<svg xmlns="http://www.w3.org/2000/svg" viewBox="0 0 127.16 355.61"><defs><style>.cls-1{fill:#fff;}.cls-2{fill:#fd9800;}.cls-3{fill:#fefefe;}.cls-4{fill:#ccc;}.cls-5{fill:#cbcccc;}.cls-6{fill:#f8fafa;}.cls-7{fill:#fb9701;}.cls-8{fill:#f4f4f3;}.cls-9{fill:#f7f8f8;}.cls-10{fill:#f2f3f3;}.cls-11{fill:#f5f6f6;}.cls-12{fill:#eff0f0;}.cls-13{fill:#fbfbfb;}.cls-14{fill:#f5f8f8;}.cls-15{fill:#f6f8f8;}.cls-16{fill:#f4f9f9;}.cls-17{fill:#fafbfb;}.cls-18{fill:#eaebeb;}.cls-19{fill:#dd8500;}.cls-20{fill:#f9fdfd;}.cls-21{fill:#eff3f3;}.cls-22{fill:#dfe7e7;}.cls-23{fill:#f2f0eb;}.cls-24{fill:#e5e7e7;}.cls-25{fill:#f59000;}.cls-26{fill:#e2e6e6;}.cls-27{fill:#dfe2e2;}.cls-28{fill:#f1f0e5;}.cls-29{fill:#f5f0e4;}.cls-30{fill:#d0d0d0;}.cls-31{fill:#d3d9cb;}.cls-32{fill:#b8b7b7;}.cls-33{fill:#090805;}.cls-34{fill:#231400;}.cls-35{fill:#262424;}.cls-36{fill:#0b0909;}.cls-37{fill:#201d1d;}.cls-38{fill:#151111;}.cls-39{fill:#869b9b;}</style></defs><g id="Capa_2" data-name="Capa 2"><g id="simplemech_arm_1" data-name="simplemech arm 1"><path class="cls-1" d="M31.89,61.24C28.61,56.59,25.19,52,22,47.19s-6-9.42-8.82-14.25c-3.44-5.94-6.72-12-10-18A46.48,46.48,0,0,1,.54,8.79C-1.35,3.59,1.93-.6,7.5.07A132.46,132.46,0,0,1,22.61,2.52a198,198,0,0,1,68.7,31.63c6.64,4.72,13,9.79,18.3,16.1a3.2,3.2,0,0,0,3,1.08,12.32,12.32,0,0,1,7.7,2.18c5.12,3.35,8,10.4,6.43,16.35-1,3.84-2.44,7.59-3.82,11.32C118.3,93.6,113.54,106,109,118.41c-1.94,5.35-5.93,8.18-11,9.67-4.6,1.35-8.82.1-12.53-2.89-.57-.46-1.1-1-1.67-1.48-1,1.21-.62,2.35-.62,3.4,0,9.11,0,18.22-.07,27.33-.06,4.94-.37,9.88-.74,14.81a8.07,8.07,0,0,0,.9,4.56,52.75,52.75,0,0,1,2.81,6.57c1.6,4.58,1.07,9.15-.55,13.61a4.94,4.94,0,0,0,.23,4.53,20.88,20.88,0,0,1,1.34,4.07c.37,1.2.69,2.42,1.14,3.59.93,2.37,2.11,4.7,1.32,7.37a2.87,2.87,0,0,0,.76,2.63c4.78,6.58,7.47,14,9.1,21.94A232.59,232.59,0,0,1,103.58,268c.92,12.12,1.34,24.25,1.1,36.39-.11,5.42-.68,10.83-1,16.24a7.65,7.65,0,0,1-3.83,6.27,11,11,0,0,1-1.68.92,3.72,3.72,0,0,0-2.31,3.33c-.55,3.62-1.52,7.21-1.81,10.85-.51,6.3-4.74,9.42-9.84,11.1a53.55,53.55,0,0,1-24.17,2c-2.53-.35-5-1-7.5-1.54C47,352.24,43.14,349,41.35,343.46c-1-3-2.15-6-3.06-9.07a5,5,0,0,0-3.22-3.79,15.47,15.47,0,0,1-3-1.55,9.85,9.85,0,0,1-4.58-7.49c-2.81-20.95-3.34-42-2.72-63.09a128.46,128.46,0,0,1,5.76-34.39c1.34-4.28,3-8.47,6-11.89a4.93,4.93,0,0,0,1.25-3.46,10.26,10.26,0,0,1,1.76-5.87c1.09-1.57,1.23-3.51,1.49-5.43-1.73-.46-3.26-.81-4.75-1.29a9.49,9.49,0,0,1-6.65-6.35,79.66,79.66,0,0,1-2.06-8.36c-.43-2.25-1.09-4.09-3.12-5.59-3.56-2.63-4.91-6.59-5.25-10.88a25.8,25.8,0,0,1,1.47-10.84,12,12,0,0,1,5.51-7,4,4,0,0,0,2.47-3.22,20.75,20.75,0,0,1,1.2-3.62c1.29-3.9,4.13-5.93,8-6.64a18.63,18.63,0,0,1,3.33-.35c3.64,0,3.52-.39,3.52-3.42,0-4.64,0-9.27,0-13.91,0-2.45-.2-2.55-2.8-2.66-2.07-.08-4.14-.22-6.2-.36a6.12,6.12,0,0,1-5.21-3.69,26.36,26.36,0,0,1-3.08-8c-.57-3.78-1.59-7.52-1.84-11.32C25,79.88,26.72,70.24,31.89,61.24Z"/><path d="M78.57,139.71c-.29,9.1-.56,18.2-.91,27.3-.07,2.06-.86,4.2-.48,6.14.35,1.76,1.93,3.25,2.81,4.95a17.06,17.06,0,0,1,.58,15.69c-1.08,2.34-1.92,4.32.38,6.39a3.14,3.14,0,0,1,1,2.13c-.15,3,1.4,5.44,2.65,8a4.88,4.88,0,0,1-.2,4.18,2.36,2.36,0,0,0,.21,2.68c6.85,7.94,9.44,17.61,11.19,27.61,1.54,8.82,2.29,17.72,3.08,26.64a366.1,366.1,0,0,1,.88,36.88c-.05,4-.66,7.93-1,11.91a4,4,0,0,1-1.91,3.14,3.51,3.51,0,0,1-1.23.71c-3.69.56-4.07,3.37-4.51,6.28-.6,4.11-1.39,8.19-2,12.28a5.77,5.77,0,0,1-2.49,3.89,18.33,18.33,0,0,1-7.79,3.41,54.6,54.6,0,0,1-23.29-.22c-.93-.22-1.84-.5-2.76-.77a9.78,9.78,0,0,1-6.92-6.71c-1.26-3.78-2.65-7.53-3.84-11.34A5,5,0,0,0,38.25,327a12.85,12.85,0,0,1-3.79-2,4.93,4.93,0,0,1-2.05-3.63C29.34,300,29,278.48,29.72,256.92a117.18,117.18,0,0,1,5.16-30.14c1.44-4.79,3.28-9.37,7.09-12.84a3,3,0,0,0,.86-3c-.37-2.14-.24-4.13,1.78-5.58a2.15,2.15,0,0,0,.71-1.59A11.58,11.58,0,0,1,49,194.25a1.43,1.43,0,0,0,.3-1.25,1.36,1.36,0,0,0-1-.71c-2.24,0-4.47,0-6.71.1-5,.16-7.42-2.25-8.28-6.82-.61-3.29-1.3-6.57-1.92-9.87A2.1,2.1,0,0,0,30,173.89c-5.19-2.11-6.18-6.49-6-11.4a22.31,22.31,0,0,1,.77-5.21c.85-3,2.34-5.66,5.88-6.2,1.16-.18,1.53-.9,1.79-1.9.51-2,1.16-4,1.67-6,.79-3.13,3.06-4.36,6-4.57,2.39-.16,4.8,0,7.19-.08,2-.05,2.36-.39,2.37-2.16q.06-12.7,0-25.41c0-1.69-.53-2.17-2.4-2.2-2.71,0-5.44-.06-8.14.11S35,108,33.93,105.63c-2-4.27-2.79-8.84-3.32-13.42a47.89,47.89,0,0,1,1.32-18.06,29.88,29.88,0,0,1,4.93-10.82c1.2-1.56,1.16-1.65,0-3.31C34.41,56.64,32,53.26,29.5,49.94,23.15,41.47,18.17,32.16,13,23c-2-3.48-3.88-7-5.73-10.52a31.94,31.94,0,0,1-1.84-4.4C4.61,5.7,5.08,5,7.37,5.3,12.27,6,17.25,6.41,22,7.63c28.26,7.27,53.92,19.8,76.33,38.62a92.65,92.65,0,0,1,9,9.27c1.07,1.18,1.91,2,3.62,1.42,3.45-1.11,6.37.1,8.57,2.73,2.47,2.95,3.68,6.38,2.4,10.25-1.05,3.18-2.21,6.32-3.38,9.46-4.51,12.13-9.14,24.21-13.48,36.4a13.69,13.69,0,0,1-6,7.11,8.76,8.76,0,0,1-13.15-6.26,17.44,17.44,0,0,1,.07-3.82c.16-1.73-.79-2.63-2.14-3.38A6.76,6.76,0,0,0,79.2,109a1.37,1.37,0,0,0-.86.95,19.49,19.49,0,0,0-.1,2.86q0,13.43,0,26.85Z"/><path class="cls-2" d="M58.35,109.12c4.46-.08,8.92-.19,13.38-.23,1.17,0,1.64.56,1.68,1.8,0,.64,0,1.28,0,1.92q.15,27.51.29,55c0,.62,0,1.23-.09,2.12a48.47,48.47,0,0,0-6.69-2.82,47.47,47.47,0,0,0-7.1-.8c2.12-2.64,1.77-5.49,1.12-8.6a80.29,80.29,0,0,1-2.15-18c3.51-6.37.55-13.1,1.07-19.64.18-2.32.35-4.82-2.06-6.39A3.57,3.57,0,0,1,58.35,109.12Z"/><path class="cls-3" d="M90.28,111.07c.19-.56.43-1.32.71-2.06,5.17-13.72,10.41-27.42,15.46-41.18a10,10,0,0,1,5.46-6.24A2.85,2.85,0,0,1,115,62a6.3,6.3,0,0,1,1.86,7.29c-4,10.06-8.08,20.12-12.07,30.2-1.82,4.59-3.51,9.24-5.31,13.84a14.82,14.82,0,0,1-1.68,3.41c-1.92,2.62-5.31,2.19-6.41-.81A41,41,0,0,1,90.28,111.07Z"/><path class="cls-4" d="M40.2,89.49c1.14,1.06.62,3.19,2.5,3.85,1.24-1.43,1.14-3.22,1.38-4.92.6-4.25,1.2-8.5,1.86-12.75a10.28,10.28,0,0,1,.79-2.11,5.7,5.7,0,0,1,.64.07,1,1,0,0,1,.42.2A374.2,374.2,0,0,0,75.35,102.7c-.57,1.21-1.47.87-2.19.87-4.94,0-9.88-.22-14.81-.17-3.66,0-7.31.43-11,.52-3.17.07-6.36,0-9.54-.14-.2,0-.38-.43-.58-.67,1.46-1.49,3.47-1.07,5.45-1.3C38.28,97.49,37.72,94.52,40.2,89.49Z"/><path class="cls-5" d="M57.36,172.12c2-1.52,4.38-1.3,6.43-.68,5.6,1.7,9.88,5.1,12,10.82a12.27,12.27,0,0,1-1.54,11.42,9,9,0,0,1-8.25,4c-4.23-.19-8.11-1.55-10.73-5.25-.25-2.67-1.3-5.23-1.06-8,.48-5.69,2.71-10.08,8.52-12C60.83,173.18,59,173.86,57.36,172.12Z"/><path class="cls-6" d="M59.09,59.79c1.17-4.47,2.47-8.9,3.47-13.4.61-2.79.79-5.67,1.14-8.51a3,3,0,0,0-1.56-3.19,176.08,176.08,0,0,0-19-10.95c-3.75-1.75-7.53-3.43-11.28-5.19a85.22,85.22,0,0,0-16.2-5.65c-1.1-.26-2.2-.5-2.79-1.61-.14-.25-.33-.65-.22-.82a1.18,1.18,0,0,1,.82-.32,2.53,2.53,0,0,1,.94.14c17.8,5.12,35.07,11.56,51.39,20.4,5.76,3.12,5,3.19,3.07,8.41C66,46.69,63.05,54.27,60.16,61.86,58.28,62,58.87,60.78,59.09,59.79Z"/><path class="cls-7" d="M54.31,338.65c.54.55,1.11,1.08,1.63,1.65.75.8,1.35.35,1.94-.21,2.76-2.58,1.14-6.67,3.26-9.47a20.42,20.42,0,0,1,2.33-.16c1.84.08,2.17.27,2.2,2.19a13.75,13.75,0,0,0,1.86,6.19c2.64,1.23,2.8-1.18,3.62-2.51,1.16-1.86.76-4.45,2.73-5.95a4.37,4.37,0,0,1,.87-.37c.84-.15,1.75-.13,1.62,1-.28,2.5-.62,5,.59,7.5a8.93,8.93,0,0,0,2.89-5.94c.33-2.61,1.56-4,4.16-4.32.46,0,.92-.19,1.69-.35a16.91,16.91,0,0,1-.13,2.34c-.69,3.76-1.45,7.49-2.14,11.24a2.17,2.17,0,0,1-1.79,1.95c-9,1.79-17.94,2.63-26.9-.06-.14,0-.24-.19-.37-.29C53.93,341.63,53,340.16,54.31,338.65Z"/><path class="cls-8" d="M59.86,139.44a125.79,125.79,0,0,0,4.07,25.76l-4.12.94-4.92,1c-.06-1.48-.16-2.84-.16-4.2q.08-22.14.16-44.3c0-2.54-.13-5.08-.14-7.62,0-2,.26-2.21,2.68-2.11a4.46,4.46,0,0,1,.92.24l.09,4.38a5.17,5.17,0,0,1,1.23,4C59.64,124.81,59.89,132.12,59.86,139.44Z"/><path class="cls-9" d="M62.29,268.13a79.37,79.37,0,0,1-22.84-1.94c-.93-.23-1.85-.51-2.77-.75a1.51,1.51,0,0,1-1.24-1.74c.32-5.1.43-10.22,1-15.3A155.87,155.87,0,0,1,41,225.89a18.41,18.41,0,0,1,5.06-9.08,2.19,2.19,0,0,1,1.69-.19c.23.06.5.86.4,1.23A30.4,30.4,0,0,1,47,221a123.9,123.9,0,0,0-6.81,26.87c-.5,3.31-.75,6.67-1.29,10a3.77,3.77,0,0,0,2.25,4.28,35,35,0,0,0,11.2,4.05c3.15.52,6.34.73,9.52,1.07C62.38,267.35,62.52,267.65,62.29,268.13Z"/><path class="cls-10" d="M35.5,269.5c5.91.4,5.25,1.12,4.43,5.28a93.25,93.25,0,0,0-1.14,28.53c.35,3.16.88,6.31,1.1,9.48a6,6,0,0,0,2.78,4.75c1.81,1.28,3.7,2.46,5.61,3.59,1.31.77,2.71,1.4,4,2.09-.19.4-.24.61-.29.61a36,36,0,0,1-14.36-3,1.93,1.93,0,0,1-1.26-2.25c.69-9.56-.35-19.09-.6-28.64-.15-5.73-.38-11.46-.53-17.19C35.26,271.69,35.43,270.6,35.5,269.5Z"/><path class="cls-11" d="M83.32,297c-.27-5.77-.58-12.14-.86-18.52-.06-1.27,0-2.55,0-3.83,0-1.79.46-2.94,1-2.69,1.2.52,1.45,1.64,1.6,2.74.22,1.58.32,3.17.46,4.76,1,11.13,1.91,22.26,1.43,33.45a14.46,14.46,0,0,0,0,2.87,2.51,2.51,0,0,0,.93,1.51c1,.72,2.21,1.25,3.32,1.88a.82.82,0,0,1,.09,1.48,26.71,26.71,0,0,1-3.07,1.31c-6.8,2.25-5.62,2-5.41-3.76C83.1,311.3,83.16,304.44,83.32,297Z"/><path class="cls-12" d="M85.14,266.35c-2.17.09-2.75-.44-2.83-1.69-.28-4.29-.45-8.59-.82-12.87a119.34,119.34,0,0,0-5.51-28,10.58,10.58,0,0,1-.52-2.79,1.48,1.48,0,0,1,1.34-1.66c.47-.09.94-.2,1.42-.26a2.4,2.4,0,0,1,2.85,1.83,7.05,7.05,0,0,1,.18,1.89c-.48,11.38,1.32,22.55,3.26,33.7.27,1.54.1,3.51,1,4.5,1.14,1.24,2.92-.3,4.45-.45,1-.09,1.93-.36,2.35.91.49,1.51.13,2.45-1.37,3C88.71,265.22,86.44,265.92,85.14,266.35Z"/><path class="cls-13" d="M40.2,89.49c0,2.05,0,4.1-.12,6.14a4.49,4.49,0,0,0,2,4.05c.89.66,1.8,1.29,2.65,2a1,1,0,0,1,.25.83.81.81,0,0,1-.61.49c-2.37.08-4.75.1-7.12.13a9,9,0,0,1-.6-1.77,84.46,84.46,0,0,1-.53-20,38,38,0,0,1,3-11.48c.57-1.25,1.35-2.4,2.06-3.62,2,1.22,2.65,2.4,1.86,4.5A45.68,45.68,0,0,0,40.2,89.49Z"/><path class="cls-14" d="M104.78,61.37l-3.9,8.36a35,35,0,0,1-1.09-3.86,22.16,22.16,0,0,0-6-11.74A56.22,56.22,0,0,0,77.69,41.57a44.56,44.56,0,0,1-4.5-2.69c-1-.64-.79-1.68-.39-2.59a1.29,1.29,0,0,1,1-.69,5.14,5.14,0,0,1,1.72.79A150.69,150.69,0,0,1,98,53.35,37.41,37.41,0,0,1,104.78,61.37Z"/><path class="cls-15" d="M66.11,207.54c-4.43-.22-8.1-.41-11.61-1.62a19.11,19.11,0,0,1-2.65-1.08c-2.09-1.09-2.48-2-1.65-4.27a13.19,13.19,0,0,1,1.6-2.89,1.31,1.31,0,0,1,1.22-.27,9,9,0,0,1,1.51,1.15c5.91,4.5,12.25,5.83,19.25,2.72a2.49,2.49,0,0,1,3.52,2.4,2,2,0,0,1-.85,1.55,11.62,11.62,0,0,1-3.51,1.44C70.44,207.12,67.89,207.32,66.11,207.54Z"/><path class="cls-16" d="M47.13,207.42c2.29,1,4.47,2.43,6.85,3,7.87,1.89,15.78,2.21,23.59-.49,1.68-.58,2.35-.41,2.83.63a2.53,2.53,0,0,1-.86,3.36A13.25,13.25,0,0,1,76,215.31a19.24,19.24,0,0,1-4.28.49,84.15,84.15,0,0,1-17.64-1.35,12.23,12.23,0,0,1-6-2.73A3.39,3.39,0,0,1,47.13,207.42Z"/><path class="cls-17" d="M57.36,172.12h6.07c-.53.66-.72,1.11-1,1.27-5.72,2.82-7.93,8.74-6.72,15.31a11.25,11.25,0,0,1,.5,2.28c0,.52-.6,1-.93,1.5-4.11-4-4.46-9-3.55-14.12C52.21,175.32,53.8,172.68,57.36,172.12Z"/><path class="cls-18" d="M46.27,254.65a6,6,0,0,1-1.33-5.3,108.41,108.41,0,0,1,4.85-19.44,22,22,0,0,1,2-3.79,1.4,1.4,0,0,1,1.29-.23A1.31,1.31,0,0,1,53.6,227a11.14,11.14,0,0,1-.8,2.73c-2.37,5.12-3.32,10.6-4.29,16.09-.22,1.26-.4,2.52-.72,3.75C47.41,251.11,46.9,252.59,46.27,254.65Z"/><path class="cls-19" d="M37.72,179.42a11.29,11.29,0,0,1-.4-10.17c1.65-3.85,1-7.87.15-11.76a17.34,17.34,0,0,1-.07-7.1c.05-.24.3-.58.51-.61s.69.16.74.34c.74,2.75,1.73,5.43,1.6,8.39-.18,4.14-.22,8.3-.15,12.45a25.22,25.22,0,0,1-1.36,7.48C38.64,178.82,38.1,179.08,37.72,179.42Z"/><path class="cls-11" d="M43.15,153.61l-2.1-8.84c6.67-1.28,7.18-1,8.47,5a11.94,11.94,0,0,1,.24,1.88c0,.6-.07,1.22-.12,2A16.46,16.46,0,0,1,43.15,153.61Z"/><path class="cls-20" d="M49.72,158V170.2c-.85.06-1.93.2-3,.19-2,0-2.11-.14-2.18-2.19q-.12-4.06-.18-8.12c0-1.76.21-2.05,1.77-2.12C47.21,157.9,48.29,158,49.72,158Z"/><path class="cls-21" d="M41.11,187,44,174.86a1.61,1.61,0,0,1,1.67-1.38,9.28,9.28,0,0,1,2.27.37c.15,0,.32.6.23.82-1.58,3.63-1.49,7.41-1.14,11.23.07.77-.45,1.12-1.17,1.13C44.49,187.06,43.08,187,41.11,187Z"/><path class="cls-22" d="M76.44,280.46a5.6,5.6,0,0,1-5.28,5.19,4.37,4.37,0,0,1-4.2-4.8,5.26,5.26,0,0,1,4.9-5A4.73,4.73,0,0,1,76.44,280.46Z"/><path class="cls-23" d="M54.31,338.65c.11.91.29,1.82.33,2.74a8.66,8.66,0,0,1-.27,1.72c-1.32-.12-2.41-.49-2.89-2-1.12-3.45-2.36-6.86-3.52-10.29-.39-1.17.1-1.67,1.46-1.57.31,0,.63.09.94.1a2,2,0,0,1,2.21,1.92C53,333.77,53.72,336.2,54.31,338.65Z"/><path class="cls-24" d="M68,259.46a5.85,5.85,0,0,1-.15-4.16,3.38,3.38,0,0,1,4.43-2.4c.46.12.89.32,1.34.48,2.73,1,3.75,2.86,3,5.49a4.59,4.59,0,0,1-5.44,3.34,5.8,5.8,0,0,1-1.65-.86c-.1-2,2-1.62,2.75-2.75.6-1.39,0-2-1.36-2.09a1.67,1.67,0,0,0-1.08.88,13.1,13.1,0,0,1-.54,1.48C69.05,259.35,68.67,259.71,68,259.46Z"/><path class="cls-25" d="M35,159.63c.71,2.55-.1,5-.74,7.37-.32,1.24-1.45,1.52-2.57.81a2.68,2.68,0,0,1-1.38-2.3c0-1.71.11-3.42.18-5.13C31.88,159.54,33.27,158.6,35,159.63Z"/><path class="cls-26" d="M74.49,55a3.35,3.35,0,0,1-3.07,3,3.39,3.39,0,0,1-3.21-3.38,3.56,3.56,0,0,1,3.07-3.08A3.52,3.52,0,0,1,74.49,55Z"/><path class="cls-27" d="M54.77,42.06A3.52,3.52,0,0,1,58,45.5a3.32,3.32,0,0,1-3.28,2.83,3.57,3.57,0,0,1-3-3.17A3.38,3.38,0,0,1,54.77,42.06Z"/><path class="cls-28" d="M73.88,330.38a20.39,20.39,0,0,1-2.55,8.16c-.74,1.19-1.76,1.91-3.21,1.38-.29-.1-.39-.71-.59-1.08.41-.14,1-.16,1.18-.44a14,14,0,0,0,1.87-5.81C70.86,330.09,70.93,330.1,73.88,330.38Z"/><path class="cls-29" d="M61.14,330.62a33.48,33.48,0,0,1,0,4.25c-.25,2.21-.82,4.33-3.26,5.22a19.37,19.37,0,0,0-.4-8c-.39-1.52.11-2,1.81-1.85A10.31,10.31,0,0,1,61.14,330.62Z"/><path class="cls-30" d="M57.71,235c.52.67,1.34,1.23,1.34,1.81a10.76,10.76,0,0,1-.69,3.62c-.31.83-1,1.86-2.06,1.4a3.51,3.51,0,0,1-1.56-2.11,4.26,4.26,0,0,1,1.15-3.88C56.23,235.38,57,235.29,57.71,235Z"/><path class="cls-31" d="M35,159.63c-1.46.53-2.88,1.23-4.51.75a12.91,12.91,0,0,1,.26-2.8,2,2,0,0,1,2.16-1.53,2,2,0,0,1,2,1.7A9.76,9.76,0,0,1,35,159.63Z"/><path class="cls-32" d="M59.09,59.79l1.07,2.07c-.78,2.39-1.52,4.8-2.36,7.17-.12.36-.67.57-1,.86-.19-.39-.53-.76-.53-1.15a5.64,5.64,0,0,1,.32-1.86C57.39,64.51,58.25,62.15,59.09,59.79Z"/><path class="cls-9" d="M62.29,268.13c-.14-.3-.28-.59-.43-.89,1.27-.06,2.53-.17,3.8-.18,4.27-.05,8.55.32,13-.08-.54.32-1.07.91-1.61.92C72.13,268,67.21,268.07,62.29,268.13Z"/><path class="cls-1" d="M68,259.46l1-1.16a5,5,0,0,1,4.5,1,2.13,2.13,0,0,1-2.18,1.14c-.77,0-1.45.06-1.77.89A2,2,0,0,1,68,259.46Z"/><path class="cls-33" d="M59.86,139.44c-.46-1.51-1.31-3-1.34-4.52-.15-7.13-.08-14.28-.08-21.42,2.12-.13,2.59.11,2.72,1.52.09,1,.05,1.91.08,2.87.15,4.14.41,8.29.43,12.44a50.19,50.19,0,0,1-.61,7.12C61,138.15,60.28,138.77,59.86,139.44Z"/><path class="cls-34" d="M62.54,118.36a11.36,11.36,0,0,1,.72-2.59,1.73,1.73,0,0,1,3,0,5.33,5.33,0,0,1-.91,6.09,1,1,0,0,1-1.6-.26A31.89,31.89,0,0,1,62.54,118.36Z"/><path class="cls-35" d="M51.36,85.62c-.33,1.23-.28,2.8-1.8,3.53-.88.42-2-1.67-2-3.75,0-1.84,1.06-3.31,2.21-3S51.52,84,51.36,85.62Z"/><path class="cls-36" d="M70.67,185.27a8,8,0,0,1-2.2,5.72,4.73,4.73,0,0,1-6.06.74c-.66-.39-1.42-1-1.09-1.85.18-.5.83-.86,1.35-1.17s.93-.21,1.35-.41A2.92,2.92,0,0,0,65.49,184a27.51,27.51,0,0,0-2-2.63,2.07,2.07,0,0,1-.09-2.62,2.29,2.29,0,0,1,3-.37A8.93,8.93,0,0,1,70.67,185.27Z"/><path class="cls-37" d="M74.37,281.34a2.59,2.59,0,0,1-2.77,2.17,2.31,2.31,0,0,1-2.47-1.65,2.52,2.52,0,0,1,.42-1.72,2.79,2.79,0,0,1,4.42.09A3.33,3.33,0,0,1,74.37,281.34Z"/><path class="cls-38" d="M73.57,259.32a4,4,0,0,1-4.5-1c0-.54,0-1.07,0-1.61a1.61,1.61,0,0,1,.63-.88l.4-.25a2.53,2.53,0,0,1,3.46.32C74.67,257,74.39,258.18,73.57,259.32Z"/><path class="cls-39" d="M69.72,255.81c-.21.29-.42.59-.64.88C69.3,256.4,69.51,256.1,69.72,255.81Z"/></g></g></svg>