<svg xmlns="http://www.w3.org/2000/svg" viewBox="0 0 119.98 382.53"><defs><style>.cls-1{fill:#fff;}.cls-2{fill:#f90;}.cls-3{fill:#ccc;}.cls-4{fill:#fe9801;}.cls-5{fill:#cbcccc;}.cls-6{fill:#fcfdfc;}.cls-7{fill:#fbfcfc;}.cls-8{fill:#fcfcfc;}.cls-9{fill:#fcfdfd;}.cls-10{fill:#f7f9f9;}.cls-11{fill:#fdfdfd;}.cls-12{fill:#fafafa;}.cls-13{fill:#cbc9c9;}.cls-14{fill:#b7baba;}.cls-15{fill:#f2f3f3;}.cls-16{fill:#e9e9e9;}.cls-17{fill:#fb9806;}.cls-18{fill:#f6f9f9;}.cls-19{fill:#f8f8f6;}.cls-20{fill:#dd8c0d;}.cls-21{fill:#ec910a;}.cls-22{fill:#ec951b;}.cls-23{fill:#f9fbfb;}.cls-24{fill:#ebeded;}.cls-25{fill:#fffbf5;}.cls-26{fill:#e2e6e5;}.cls-27{fill:#f49606;}.cls-28{fill:#f79909;}.cls-29{fill:#df8c0e;}.cls-30{fill:#e5e2e0;}.cls-31{fill:#ece9e1;}.cls-32{fill:#edebe6;}.cls-33{fill:#090909;}.cls-34{fill:#1d1717;}.cls-35{fill:#040302;}.cls-36{fill:#f9f9f5;}.cls-37{fill:#0c0700;}.cls-38{fill:#180f00;}.cls-39{fill:#fafbfb;}.cls-40{fill:#f9fcfc;}.cls-41{fill:#180e0e;}.cls-42{fill:#161313;}</style></defs><g id="Capa_2" data-name="Capa 2"><g id="simplemech_leg2" data-name="simplemech leg2"><path class="cls-1" d="M90.48,160.16c1.28.07,2.54.09,3.79.21,4.55.43,6.92,2.4,8.19,6.77.13.46.19.94.29,1.41a2.3,2.3,0,0,0,1.86,1.94,12.82,12.82,0,0,1,2.77.72,8.62,8.62,0,0,1,5.23,7.49c.3,4.3.36,8.63.23,12.94-.11,3.77-1.67,6.8-5.61,8a5.66,5.66,0,0,0-4,4.2c-1.16,3.76-3.23,7-7.69,7.63-.87.13-1.25.91-1.26,1.8a19.39,19.39,0,0,1-.11,3.82,11,11,0,0,0,2.48,10.08c2.82,3.5,3.93,8,5,12.33,2.89,11.78,3,23.74,2.31,35.74-.45,7.48-1.27,15-2,22.8.6.33,1.4.79,2.21,1.21a8.38,8.38,0,0,1,4,4.64,5.46,5.46,0,0,0,4.13,3.88,9.3,9.3,0,0,1,7.31,8.53,110.79,110.79,0,0,1,.11,15.78c-.21,4-3.46,5.89-6.56,7.63a8.09,8.09,0,0,1-2.75.8,2.82,2.82,0,0,0-2.14,1.64c-2.23,3.71-5.19,6.4-9.77,6.85a1.68,1.68,0,0,0-1.39,2.45,9.8,9.8,0,0,0,1.21,2,17.32,17.32,0,0,1,2.88,8.05c.48,3.13-.72,5.95-2.52,8.51a23.15,23.15,0,0,1-13,9.1,91.21,91.21,0,0,1-31.3,3.14A260.14,260.14,0,0,1,20.66,378c-4.87-.94-9.7-2.1-14-4.71a19.27,19.27,0,0,1-4-3.3,10.07,10.07,0,0,1-2.47-8.91,22.27,22.27,0,0,1,2.29-7.77,5.94,5.94,0,0,0,.78-3.65,30.16,30.16,0,0,1,4.53-18.3,6.19,6.19,0,0,0,.66-5.32,84.6,84.6,0,0,1-2.71-13.6A371,371,0,0,1,4.6,249.76a56.94,56.94,0,0,1,4.25-18.11,42.47,42.47,0,0,1,4.24-7.47,6,6,0,0,0,1.14-4.43A40.25,40.25,0,0,1,15.16,205a30.93,30.93,0,0,1,3.61-9.34,10.28,10.28,0,0,0,1.43-5.9q-.06-26.62,0-53.24c0-9.58.22-19.17.28-28.76,0-6,1.61-11.37,5.94-15.69a3.84,3.84,0,0,0,1.09-3.45,1.92,1.92,0,0,0-1.72-2,12.43,12.43,0,0,1-5.65-2.45,12.63,12.63,0,0,1-2.93-17.48c3.64-5.25,7.39-10.43,11.05-15.66,6.15-8.76,12.22-17.57,18.4-26.31,4.62-6.52,9.45-12.88,14-19.44,3.4-4.92,8.12-6,13.48-5S82.57,5,84.3,10.12C85.56,13.82,84.13,17,83,20.3a6.92,6.92,0,0,1-1.19,2.07c-2,2.54-2.56,5-1.07,8.23a18.32,18.32,0,0,1,1.2,8c-.19,5.75.19,11.48.1,17.22,0,3.2,0,6.4,0,9.59a7.8,7.8,0,0,0,1.36,4.93c2.27,3.31,3.16,7,1.69,10.9a5,5,0,0,0,0,3.25c.56,2,1.15,4,.35,6.12A2.78,2.78,0,0,0,86,92.69c4.06,5.07,5.07,10.89,4.46,17.15a13.7,13.7,0,0,0-.18,2.38c.82,9.9,0,19.79-.15,29.68-.09,5.59-.09,11.18-.1,16.78A6.32,6.32,0,0,0,90.48,160.16Z"/><path d="M60.92,378.05a251.9,251.9,0,0,1-33.35-3.27,80.13,80.13,0,0,1-8.47-1.63,63.84,63.84,0,0,1-9.45-3.34c-4-1.83-5.1-4.27-4.36-8.52a16.73,16.73,0,0,1,1.6-5.47A8.87,8.87,0,0,0,8.16,350a22.19,22.19,0,0,1,2.77-13.86c1-1.65,1.78-3.4,2.84-5,.89-1.33,1.19-2.4.21-3.89-1.73-2.59-2.1-5.69-2.53-8.67-.79-5.53-1.53-11.08-1.89-16.65-.84-12.92-1.27-25.86-.83-38.8.21-6.21.77-12.43,1.57-18.59a54.4,54.4,0,0,1,2.59-9.69,23.51,23.51,0,0,1,5.31-9c1.25-1.3,1.36-2.54,1.08-4.29-1.43-8.81-.16-17.2,4.63-24.87a6.71,6.71,0,0,0,1.16-5.41,6.18,6.18,0,0,1-.08-1.43q.12-29,.24-58c0-7.19.11-14.38.16-21.57,0-1-.07-1.91,0-2.87.2-5.38,1.9-10,6.55-13.19,1.21-.82,1.79-1.58,1-3.14a5.9,5.9,0,0,1,.25-5.53,20,20,0,0,0,1-2.17,1.44,1.44,0,0,0-1.66-1.73c-.78.17-1.52.51-2.29.67A7.91,7.91,0,0,1,25,81.84c-5.12-2.39-6.56-7.1-3.79-11.91,1-1.65,2.19-3.14,3.3-4.7Q42.85,39.16,61.21,13.1c1.29-1.83,2.6-3.65,4.05-5.35A7.77,7.77,0,0,1,74.85,6c3.45,1.7,5.61,5.57,4.82,9a23.52,23.52,0,0,1-1.85,4.89,15.64,15.64,0,0,1-2.31,3.63c-1.94,2.2-2.21,4.12-.36,6.71s2,6,1.95,9.24c0,3.67-.2,7.34-.19,11,0,5.91.14,11.82.19,17.73a5.5,5.5,0,0,0,1.49,4.33C81,74.94,81.22,78,80,81a4.83,4.83,0,0,0,0,4.07,8.46,8.46,0,0,1-.17,7,1.77,1.77,0,0,0,.56,2.48c4.94,3.71,5.71,9,5.33,14.59-.08,1.12-.3,2.23-.31,3.34q-.15,24.19-.26,48.4c0,1,0,1.92,0,2.88A1.58,1.58,0,0,0,87,165.39c1.6,0,3.2,0,4.79,0a13.9,13.9,0,0,1,3.29.47,3.67,3.67,0,0,1,2.8,3,7.36,7.36,0,0,0,.35,1.4c.59,1.62-.35,3.92,1.25,4.89,1.2.74,3.07.38,4.64.55a3.75,3.75,0,0,1,3.16,2.61,12.41,12.41,0,0,1,.67,3.73c.11,2.88-.06,5.76.13,8.63s-1,4.54-3.73,5.27c-.15,0-.28.17-.43.21-1.35.39-3.13.38-3.93,1.26s-.48,2.74-1,4a23.89,23.89,0,0,1-2.43,4.61c-.65,1-1.87,1.06-3,1.13-1.39.09-2.78.34-4.17.51a29.19,29.19,0,0,0,0,4.18,33.55,33.55,0,0,1-.67,10.95c-.25,1.36-.36,2.41.79,3.44,3.84,3.44,5.78,8,7,12.83a85.07,85.07,0,0,1,3,20.82,243,243,0,0,1-2.6,38.67c-.09.63-.15,1.27-.23,1.9-.3,2.23-.16,2.8,2.34,2.95,3.4.21,4.74,1.54,5.52,4.84.11.47.11,1,.21,1.43.42,2,.43,2,2.35,2.36.94.16,1.9.26,2.83.47,3.26.72,5,2.59,5.1,6,.17,4,.18,8,.12,12,0,2.55-2.49,5-5.13,5.46a3.12,3.12,0,0,1-1,.05c-2.81-.36-4.71.44-4.72,3.67-1.8,2.4-3.34,5-7,4.88-1.67-.06-3.91-.91-4.94.64-.72,1.1-.17,3.05-.17,4.62,0,.8.06,1.6,0,2.4A4.29,4.29,0,0,0,93.64,356c2.11,1.81,2.45,4.42,2.58,7a5.87,5.87,0,0,1-.72,3.21c-2,3.13-4.1,6.18-7.78,7.49a73.32,73.32,0,0,1-7.78,2.36A70.77,70.77,0,0,1,60.92,378.05Z"/><path class="cls-1" d="M80,190.82A37.52,37.52,0,0,0,58.5,179.6c-.09-1.31-.19-2.39-.23-3.48-1-25.56-.48-51.12-.65-76.68a5.62,5.62,0,0,1,.1-1.89c.18-.5.75-1.2,1.14-1.2,4.93,0,9.87-.6,14.73.89,4,1.24,6.21,3.77,6.48,7.92.17,2.7.26,5.42.28,8.14.13,17.09.27,34.18.32,51.27,0,8-.15,16-.24,24C80.42,189,80.28,189.41,80,190.82Z"/><path class="cls-1" d="M53.78,179.18c-10,1.24-10.51,1.42-22.75,8.25-.72-1.14-.38-2.42-.39-3.59q-.12-35.44-.19-70.89c0-2.24-.06-4.47-.14-6.71-.15-4.2,2.22-6.88,5.58-8.76a10.64,10.64,0,0,1,5.51-1.37c3.51.1,7,0,10.54.08,2.51,0,2.6.09,2.58,2.78q-.17,37.13-.39,74.24C54.12,175.12,53.91,177,53.78,179.18Z"/><path class="cls-2" d="M75.46,196c15.46,15.84,8.23,42.56-13,48.7A29.83,29.83,0,0,1,30,233.86a12,12,0,0,1-.85-1.68,31.77,31.77,0,0,1-.12-22.42c6.43-17.8,23.36-25,40.61-17.11A26,26,0,0,1,75.46,196Z"/><path class="cls-3" d="M59.08,308.18c-1.59-.05-3.17-.14-4.76-.16-2.39,0-4.79-.11-7.17,0-2.22.14-4.41.56-6.83.88a22.67,22.67,0,0,1-.51-2.74c-.14-2.39-.26-4.78-.26-7.16q0-23.19,0-46.37c0-.95,0-1.91,0-2.86.09-2.1.34-2.34,2.24-1.69a36.45,36.45,0,0,0,12.64,2.2c2.21-.06,4.42-.4,6.63-.62,2.1,8.78,1.79,17.72,1.24,26.58S61.45,294,60.7,302.91C60.54,304.78,60.81,306.79,59.08,308.18Z"/><path class="cls-4" d="M65.54,28.34,45.22,57.85c-3.61,5.25-7.28,10.46-10.81,15.76a7.17,7.17,0,0,1-5.49,3.32,3.4,3.4,0,0,1-3.05-1.05c-.54-.59-1.05-1.25-.52-2.09.85-1.35,1.71-2.69,2.61-4Q43.2,47.49,58.46,25.21c2.69-3.93,5.42-7.84,8.14-11.76,3.09,1.18,2.38,3.68,2,6C68.14,22.59,66.07,25.2,65.54,28.34Z"/><path class="cls-5" d="M86.15,367.58c-5,2.34-10.32,3.14-15.68,3.83-7.5,1-15,.3-22.47-.29a184,184,0,0,1-25.58-3.6,76.53,76.53,0,0,1-9.56-3c-2.08-.76-2.15-1.18-1.8-3.26a17.13,17.13,0,0,1,.36-1.87,1.73,1.73,0,0,1,2.5-1.39c1.51.49,3,1.14,4.52,1.54a93.64,93.64,0,0,0,17.4,3.18c6.52.47,13.06.87,19.59,1,3.49.07,7-.51,10.49-.75,1.59-.11,3.18-.09,4.77-.13.56.25-.79,1.16.24,1.05,3.27-.35,6.53-.94,9.78-.14C83,364.34,85.38,364.81,86.15,367.58Z"/><path class="cls-6" d="M75.46,196c-2.25-.78-4.54-1.47-6.75-2.36A35.83,35.83,0,0,0,52.79,191a18.38,18.38,0,0,0-6.47,1.56,28.58,28.58,0,0,0-14.81,14.32c-3.37,7.09-3.61,14.46-2.64,22,.14,1.1.22,2.21.32,3.32-10.55-14.5-4.28-39.51,17.8-45,10.2-2.53,19.22.12,27.09,6.93A10.24,10.24,0,0,1,75.46,196Z"/><path class="cls-7" d="M18.61,325A32.19,32.19,0,0,1,34,315a51.88,51.88,0,0,1,22.18-2.39,55,55,0,0,1,11.71,2.21,30.77,30.77,0,0,1,13.91,9.36C60.54,318.16,40,317.32,18.61,325Z"/><path class="cls-7" d="M23,327.9c12.16-7.18,50.82-5.52,58.72,1.63C71.7,332.46,35.41,331.45,23,327.9Z"/><path class="cls-8" d="M89,269.81l-7.2-1.46c.16-1.05.9-.88,1.36-.89,2.71-.06,5.42-.08,8.13,0,1.82,0,2.17.43,2.08,2.37-.2,4.77-.34,9.56-.75,14.32-1,11.91-2.89,23.71-5,35.48-.22,1.25-.46,2.5-.74,4-1.91-.81-2.88-2.48-4.13-3.79a2.88,2.88,0,0,1-.4-1.77,8.16,8.16,0,0,1,.29-1.89c2.7-11.33,4-22.89,5.53-34.42A66.42,66.42,0,0,0,89,269.81Z"/><path class="cls-9" d="M80.07,263.23c-3.5,0-7,0-10.51,0A1.36,1.36,0,0,1,68,261.88c-.19-1.93.12-2.94,1.26-3.16,1.56-.31,3.15-.44,4.72-.64,3.31-.42,6.65-.69,9.93-1.29,2.42-.45,3.4-1,3.37-4.18a51,51,0,0,0-2.82-15.9,5,5,0,0,1,.77-4.92c.42-.56,1.22-.72,1.53-.15a43.29,43.29,0,0,1,3,5.92A73.86,73.86,0,0,1,93.45,261c0,1.55-.42,2.08-1.91,2.11-3.82.07-7.64,0-11.47,0Z"/><path class="cls-10" d="M64,345.49c-2.63-4.72-6.93-7-12-7.61-7.43-.88-14.91-1.37-22.36-2.07a9.24,9.24,0,0,0-7.36,2.76,23.55,23.55,0,0,0-5,6.92c-.91,1.83-1.65,3.75-2.46,5.62a11.74,11.74,0,0,1-.24-8.32c1.39-3.55,3.15-7,4.8-10.39a1.91,1.91,0,0,1,2.39-1c10.65,2.28,21.5,2.6,32.31,3.24a22,22,0,0,0,3.34.15A4.35,4.35,0,0,1,62,337.52c1.14,2.26,2.13,4.61,3.19,6.91C65.38,345.41,65,345.7,64,345.49Z"/><path class="cls-11" d="M59.08,308.18q.09-3.33.19-6.66a50.53,50.53,0,0,1,.65-8c.52-2.76.22-5.68.31-8.53.07-2.53-.16-5.06.67-7.55a10.91,10.91,0,0,0,.22-3.3c0-4.28.08-8.57,0-12.85a48.86,48.86,0,0,0-.65-5.62c-.28-2.05-.62-4.09.68-6a13.33,13.33,0,0,1,1.38-.36c1.48-.2,1.79,0,1.85,1.3,0,.63,0,1.27,0,1.91q-.19,26.32-.38,52.64a24.88,24.88,0,0,1-.13,2.86c-.13,1.15-1,1-1.77.85-.84-.68-2-.13-2.83-.67Z"/><path class="cls-12" d="M72.09,358.77c-.93-4.27-1.6-8.36-2.74-12.31-1.1-3.76-2.69-7.38-4.18-11.38,1.65,0,3.19,0,4.73-.11,3.66-.22,7.31-.5,11-.76,1.28-.09,1.95.46,2.24,1.9.15.72-.11,1.36-.82,1.45a14.25,14.25,0,0,0-5.91,1.74c-2.08,1.26-2.43,1.91-1.62,4.29a58.42,58.42,0,0,1,2.34,12.68,1.47,1.47,0,0,1-1.16,1.79C74.73,358.33,73.5,358.52,72.09,358.77Z"/><path class="cls-13" d="M72.68,91.17l-31.56.1c-.32,0-.64,0-1,0a2.82,2.82,0,0,1-2.9-2.52,3.13,3.13,0,0,1,2.88-3.18,42.31,42.31,0,0,1,4.76-.34c7.5,0,15,0,22.48.07a11.46,11.46,0,0,1,1.41.22c.29,4.74-3,4-5.4,4.28,1.09.56,2.66-.34,4.24-.46C69.57,89.19,71.78,88.41,72.68,91.17Z"/><path class="cls-12" d="M67.79,59.93a100.32,100.32,0,0,0-1.61-19.51c-.65-3.56,1.36-5.64,3.36-7.87.09-.1,1,.22,1,.46a25.35,25.35,0,0,1,1,5.13c.23,8.91.33,17.84.47,26.76,0,.95,0,1.91,0,2.87a2.23,2.23,0,0,1-3.37,1.84,2.08,2.08,0,0,1-.82-1.55C67.74,65.35,67.79,62.64,67.79,59.93Z"/><path class="cls-14" d="M68.86,80c-3.62.16-7.25.4-10.88.47-5.87.12-11.75.12-17.62.19-1.89,0-2.61-.77-2.2-2.6.49-2.24,1.36-3,3.53-3l31,.07c-1.63,3.18-5,2.79-7.72,3.55a25.23,25.23,0,0,1-5.2.73C62.5,79.72,65.81,77.25,68.86,80Z"/><path class="cls-15" d="M21.54,295.43a25.31,25.31,0,0,1-1.74-12c.81-9.89,2-19.7,5-29.22a21.32,21.32,0,0,1,1.38-3.56,1.86,1.86,0,0,1,1.52-.78c.37.06.89.89.87,1.37a12.51,12.51,0,0,1-.62,2.78,171,171,0,0,0-5.11,32.12C22.58,289.13,22,292.1,21.54,295.43Z"/><path class="cls-16" d="M15.07,265.41c-.39-7.06-.46-14.1.94-21a38.36,38.36,0,0,1,4-11.72,10.92,10.92,0,0,1,1.43-1.89.92.92,0,0,1,.87-.12,4.81,4.81,0,0,1,1.24,5.07,36.06,36.06,0,0,0-2.38,5.69c-1.78,6.78-3.37,13.61-5.06,20.41C15.81,263,15.42,264.22,15.07,265.41Z"/><path class="cls-17" d="M97.61,338.48c-1.1.07-2.2.2-3.31.18-4.45-.07-3.75.62-5.56-4.06a3.27,3.27,0,0,1,.25-3.52,9.1,9.1,0,0,0,.48-.81C92,326,92,326,97.3,326.38,100.34,330.34,98.61,334.42,97.61,338.48Z"/><path class="cls-18" d="M86.15,367.58a13.28,13.28,0,0,0-9.27-2.93c-2.94.09-5.88,0-9.63,0l3.44-1.79c3.75-.68,7.5-1.33,11.24-2.07a30.19,30.19,0,0,0,4.59-1.24c.89-.34,1.59-.9,2.58-.18a3.14,3.14,0,0,1,1.62,2.74,9.83,9.83,0,0,1-.93,3.6C89.09,367.1,87.64,367.51,86.15,367.58Z"/><path class="cls-19" d="M65.54,28.34a5.64,5.64,0,0,1-.33-2.2,48.5,48.5,0,0,1,2-5.89,6.54,6.54,0,0,0-.59-6.8,6.53,6.53,0,0,1,.73-1.73c1.64-2,3.78-2.49,5.39-1.3a4.38,4.38,0,0,1,1.12,6.25C71.09,20.57,68.31,24.45,65.54,28.34Z"/><path class="cls-20" d="M105.23,323.3c0-1.26,0-2.53,0-3.8-.1-2.68.52-3.23,3.53-2.3a1.89,1.89,0,0,1,1.13,1.3c.07,3.49,0,7-.08,10.46,0,.42-.75,1.11-1.22,1.17-2.74.36-3.29-.07-3.21-2.54,0-1.43,0-2.86,0-4.29Z"/><path class="cls-21" d="M95.2,190.49c-3,1.23-5.9.17-8.84-.19A1.77,1.77,0,0,1,85.3,189a61.65,61.65,0,0,1,0-6.66c0-.41.73-1.06,1.21-1.14,1.39-.23,2.83-.23,4.25-.32A2.43,2.43,0,0,1,92,183.21C91.73,186.26,93.24,188.46,95.2,190.49Z"/><path class="cls-22" d="M100,321.69c-2,1-4,.45-6.06.3-.32,0-.88-1-.81-1.41q.87-5.43,2-10.8c.07-.31,1-.44,1.51-.65C99.63,312.82,97.94,317.75,100,321.69Z"/><path class="cls-23" d="M68.86,80l-10-.6L63.24,78c1.36-.43,2.7-.94,4.09-1.28s2.81-.45,4.19-.76c.42-.1.76-.53,1.13-.81,1.29-.7,2-.08,2.51,1.08.56,1.33.45,2.3-.48,2.91a5.1,5.1,0,0,1-2.09.87A33.15,33.15,0,0,1,68.86,80Z"/><path class="cls-24" d="M48.6,347.51c.26-.49.76-1.63,1.41-2.67,1-1.6,2.57-1.68,3.86-.27a4.47,4.47,0,0,1,.68,5.63A3.43,3.43,0,0,1,50.61,352C49.12,351.53,48.32,350.09,48.6,347.51Z"/><path class="cls-25" d="M95.2,190.49C91,190.14,91,191.1,91,186c0-1.71-.16-3.42-.24-5.12,5.25-1,4.85,0,4.86,4C95.6,186.74,95.34,188.61,95.2,190.49Z"/><path class="cls-18" d="M72.68,91.17c-.83-1-2-.88-3.07-.89-2.45,0-4.9,0-7.34-.2,4.71-1.4,4.71-1.4,6.52-4.56,1.4-.09,2.8-.26,4.19-.24a2.42,2.42,0,0,1,2.44,2.78C75.23,89.67,74.76,91.16,72.68,91.17Z"/><path class="cls-26" d="M100,321.69c-2.33-.58-2.32-.58-2.44-2.1l-.9-10.46A6.37,6.37,0,0,1,98.5,309c.51.11,1.31.56,1.35.94C100.33,313.85,101,317.77,100,321.69Z"/><path class="cls-27" d="M91.16,201.53c-1.36.15-2.9,1.19-4,.07a7,7,0,0,1-1.9-4.73c-.06-1.5.39-2.17,1.76-2.15s2.51.2,3.77.31C92.62,197.09,92.54,199.27,91.16,201.53Z"/><path class="cls-28" d="M91.15,176.54a7.62,7.62,0,0,1-.93.18c-5.64.33-5.79.16-4.61-5.9l5.08.24C92.45,172.75,92.4,174.59,91.15,176.54Z"/><path class="cls-29" d="M99.49,185.82a29.78,29.78,0,0,1,.06-3.78,1.82,1.82,0,0,1,1.17-1.14,1.23,1.23,0,0,1,1.68,1.15c.06,2.52,0,5,0,7.57a1.23,1.23,0,0,1-1.6,1.21,2,2,0,0,1-1.12-1.22,31.9,31.9,0,0,1,0-3.79Z"/><path class="cls-30" d="M97.61,338.48c-.09-2-.21-4-.26-6s0-4,0-6.06c.76,0,1.69-.36,2.22,0a2.49,2.49,0,0,1,.8,2c-.24,3-.6,5.95-1,8.91A1.45,1.45,0,0,1,97.61,338.48Z"/><path class="cls-31" d="M91.16,201.53l-.39-6.5a32.62,32.62,0,0,1,3.26-.21c.29,0,.79.59.8.92a21.42,21.42,0,0,1-.24,3.29C94.24,201.46,94.22,201.46,91.16,201.53Z"/><path class="cls-32" d="M91.15,176.54c-.15-1.83-.3-3.66-.46-5.48a15,15,0,0,1,1.86-.3c1.07-.06,1.87.32,2,1.5.11.79.21,1.58.26,2.37.11,1.78-.09,2-2.25,2A11.46,11.46,0,0,1,91.15,176.54Z"/><path class="cls-1" d="M64,345.49l1.11-1.06c2,2.51,1.64,5.68,2.57,8.33l-.39.52c-.12-.1-.31-.18-.36-.31C66,350.48,65,348,64,345.49Z"/><path class="cls-1" d="M59.27,308.22a2.2,2.2,0,0,1,2.83.67A2.75,2.75,0,0,1,59.27,308.22Z"/><path class="cls-33" d="M36.75,125.39a9.87,9.87,0,0,1-1.34-2.28,29.59,29.59,0,0,1,1.67-17.75,5.68,5.68,0,0,1,3.11-3.43,2.14,2.14,0,0,1,2.62.45,1.75,1.75,0,0,1,.1,2.22c-2.81,3.92-3.3,8.52-3.94,13.08a40.69,40.69,0,0,1-1,4.67A26.44,26.44,0,0,1,36.75,125.39Z"/><path class="cls-34" d="M41.51,111.68a12.57,12.57,0,0,1,.43-1.93,1.52,1.52,0,0,1,1.82-1.14A3,3,0,0,1,45.41,110a4.15,4.15,0,0,1,.14,2.3c-.24,1.46-1.37,2.76-2.23,2.78S41.56,113.62,41.51,111.68Z"/><path class="cls-35" d="M42.74,226.24a4.46,4.46,0,0,1-1.67-3.76c0-4.76,0-9.51,0-14.26a8.94,8.94,0,0,1,.47-2.32,2.86,2.86,0,0,1,2.7-2.3c4.44-.08,8.88-.21,13.3,0,1.26.06,2.46,1.28,3.68,2,2.53,5.68,1.34,11.59,1,17.43a3.51,3.51,0,0,1-2.1,3C54.38,228.31,48.57,229.5,42.74,226.24Z"/><path class="cls-36" d="M42.74,226.24c3.66,0,7.32.22,11,.11a28.85,28.85,0,0,0,6-1,2.56,2.56,0,0,0,1.45-1.65,13.55,13.55,0,0,0,.19-3.32c0-4.94-.1-9.87-.15-14.81a4.39,4.39,0,0,1,3.18,3.27,24.17,24.17,0,0,1,.65,14.57,8.42,8.42,0,0,1-5.75,5.9,22.16,22.16,0,0,1-11.32.87C45.74,229.77,43.12,229.37,42.74,226.24Z"/><path class="cls-37" d="M76.13,220.26a60.46,60.46,0,0,1-1.61,5.84,31.63,31.63,0,0,1-5.24,9,17.73,17.73,0,0,1-2.7,2.64,2.1,2.1,0,0,1-2.65.06c-.67-.47-.5-1.3.43-2.44,1.4-1.71,2.89-3.37,4.13-5.2a23.16,23.16,0,0,0,4-10.07,6,6,0,0,1,.59-2.25,2.12,2.12,0,0,1,1.48-.82c.3,0,.84.45,1,.81A16.35,16.35,0,0,1,76.13,220.26Z"/><path class="cls-38" d="M75.11,210.65a11.92,11.92,0,0,1-.56,1.69c-.61,1.27-3,1.49-3.59.23a9.7,9.7,0,0,1-.77-3.62,2.42,2.42,0,0,1,2.14-2.21,2.6,2.6,0,0,1,2.42,1.92C74.91,209.27,75,209.9,75.11,210.65Z"/><path class="cls-23" d="M58.25,266.26a7.28,7.28,0,0,1-6.85,7.22c-3.25.16-6.47-3.3-6.6-6.79a7.62,7.62,0,0,1,7.12-7.56C54.86,258.91,58.19,262.72,58.25,266.26Z"/><path class="cls-39" d="M52.3,295.66c-3.84,0-6-1.89-7-6-.61-2.37,1.14-5.87,3.74-7a6.84,6.84,0,0,1,5.55.07,4.63,4.63,0,0,1,3,3.94c.29,1.86,1.1,3.57.13,5.52C56.48,294.51,54.85,295.93,52.3,295.66Z"/><path class="cls-40" d="M45.6,214.11c.31-1.4-.82-3.49.45-5.38,1.88-.11,3.75-.24,5.63-.31,1.11,0,2.22,0,3.33,0,2,.06,2.13.2,2.15,2.26,0,2.85,0,5.7,0,8.55,0,1.12-.44,1.81-1.64,1.81-2.69,0-5.39,0-8.08,0-1.56,0-1.77-.28-1.82-2C45.57,217.54,45.6,216.11,45.6,214.11Z"/><path class="cls-41" d="M51.37,264.14c2.43.23,3.52,1.27,3.29,3.16a3.22,3.22,0,1,1-6.37-.9A2.58,2.58,0,0,1,51.37,264.14Z"/><path class="cls-42" d="M55,288.44a4.23,4.23,0,0,1-3.87,4.06,3.56,3.56,0,0,1-3.16-3c0-1.72,2.36-4.2,4-4.17A3.54,3.54,0,0,1,55,288.44Z"/></g></g></svg>