<svg xmlns="http://www.w3.org/2000/svg" viewBox="0 0 127.14 388.61"><defs><style>.cls-1{fill:#fff;}.cls-2{fill:#f90;}.cls-3{fill:#fe9900;}.cls-4{fill:#fefefe;}.cls-5{fill:#cccdcd;}.cls-6{fill:#f7f8f8;}.cls-7{fill:#f9fafa;}.cls-8{fill:#cbcbcb;}.cls-9{fill:#f7fafa;}.cls-10{fill:#fc9902;}.cls-11{fill:#fafbfb;}.cls-12{fill:#f1f4f4;}.cls-13{fill:#fcfbf9;}.cls-14{fill:#fbfcfc;}.cls-15{fill:#e6e7e7;}.cls-16{fill:#e3e5e5;}.cls-17{fill:#f6f9f9;}.cls-18{fill:#f6f5f3;}.cls-19{fill:#f59300;}.cls-20{fill:#fcf7f4;}.cls-21{fill:#f89702;}.cls-22{fill:#e8e9e9;}.cls-23{fill:#e48900;}.cls-24{fill:#e5ecec;}.cls-25{fill:#f3f0f0;}.cls-26{fill:#eaefef;}.cls-27{fill:#f5fafa;}.cls-28{fill:#f5efed;}.cls-29{fill:#eaeeee;}.cls-30{fill:#e5ebe6;}.cls-31{fill:#ed8a03;}.cls-32{fill:#e4e8e8;}.cls-33{fill:#120e00;}.cls-34{fill:#231f1f;}.cls-35{fill:#090808;}.cls-36{fill:#1f1313;}.cls-37{fill:#262121;}</style></defs><g id="Capa_2" data-name="Capa 2"><g id="simplemech_arm_2" data-name="simplemech arm 2"><path class="cls-1" d="M95.34,61.17a53.89,53.89,0,0,1,5.07,37.5,40.31,40.31,0,0,1-3.81,10.79,6.49,6.49,0,0,1-5.74,3.69c-2.08.08-4.16.07-6.23.14-1.7,0-2.11.35-2.12,1.85,0,5.6,0,11.19,0,16.78,0,1,.62,1.4,1.53,1.38a19,19,0,0,1,7.53,1.08,8.69,8.69,0,0,1,5.33,5.15,15.35,15.35,0,0,1,1,2.69,8,8,0,0,0,4.26,5.85c2.38,1.4,3.61,4,4.47,6.6a27.6,27.6,0,0,1,.82,13.26,12.66,12.66,0,0,1-5.17,8.35,6.06,6.06,0,0,0-2.52,4.35c-.42,2.67-1.13,5.29-1.79,7.92-1.12,4.49-4.08,7.07-8.52,8.08-.62.14-1.25.27-1.88.39-.9.17-1.43.63-1.25,1.62.3,1.55.24,3.17,1.35,4.52a8.19,8.19,0,0,1,1.7,5.85,4.6,4.6,0,0,0,1.36,3.43,28.92,28.92,0,0,1,5.32,10.1,116.34,116.34,0,0,1,4.74,20c2.34,15.57,2.19,31.2,1.38,46.86-.2,3.83-.4,7.66-.48,11.49-.13,7.2-1.18,14.3-2.11,21.41a9.24,9.24,0,0,1-5.07,7.16,2.82,2.82,0,0,0-1.62,3.1c.15,1.91.28,3.83.43,5.74.5,6.68,1,13.37,1.52,20a16.14,16.14,0,0,1-5,13.42A87.68,87.68,0,0,1,71.26,386c-6.5,3.7-13.56,3.29-20.2-.22a31,31,0,0,1-6.19-4.45c-1.4-1.25-2.62-2.13-4.62-1.79a17.43,17.43,0,0,1-7.57-.78,16.65,16.65,0,0,1-12.59-18.41A51,51,0,0,1,22,352.47a19.14,19.14,0,0,0,.85-6.55,33.83,33.83,0,0,1,2.61-15c.37-.88.74-1.77,1.16-2.63a1.65,1.65,0,0,0-.42-2.14c-2.25-2-2.54-4.56-2.89-7.33a176.4,176.4,0,0,1-.9-28.23c.58-16.11,1.37-32.23,4.45-48.12,1.47-7.55,3.34-15,7.1-21.75a18.49,18.49,0,0,1,1.41-2.5c1.51-1.92,2.84-3.82,2.08-6.5a4.33,4.33,0,0,1,.31-2.35c1.31-3.9,2.64-7.8,4.07-11.65A4,4,0,0,0,42,195a42.94,42.94,0,0,1-1.62-6.48,20.94,20.94,0,0,1,3.08-13.76,7.56,7.56,0,0,0,1.16-6.29,23.62,23.62,0,0,1-.32-5.72q-.08-18.93-.13-37.87a2.65,2.65,0,0,0-.3-.82c-1.18-.26-1.55.84-2.23,1.38a14.48,14.48,0,0,1-17.37.51A15.73,15.73,0,0,1,18,117.84c-4.36-12.16-9.07-24.2-13.62-36.3C3.12,78.26,1.92,75,.85,71.62-1.21,65.19.56,59.64,5.19,55a11.54,11.54,0,0,1,9.13-3.46,3.76,3.76,0,0,0,3.38-1.32C24.76,42,33.41,35.68,42.35,29.77A205.65,205.65,0,0,1,92.29,5.92c6.19-2,12.65-3.31,19-4.74A69.62,69.62,0,0,1,119.84.05c3.76-.37,6.42,1.4,7.17,4.82a6.71,6.71,0,0,1-.15,3.24,26.35,26.35,0,0,1-2.09,5.33c-6.65,12-12.88,24.26-20.7,35.58C101.26,53.09,98.3,57.06,95.34,61.17Z"/><path d="M89.29,61.69c6.95,10,8.62,20.66,7.11,32a85.2,85.2,0,0,1-1.89,8.89,26.81,26.81,0,0,1-1.44,3.54A4.24,4.24,0,0,1,88.61,109c-2.07-.09-4.15-.08-6.23-.14-.79,0-1.59-.18-2.37-.13-1.86.12-2.5.77-2.51,2.71,0,6.23,0,12.47,0,18.7,0,2.24,0,4.47,0,6.71a1.67,1.67,0,0,0,1.8,1.79c2.07.05,4.15,0,6.23.09a19.08,19.08,0,0,1,3.77.49,4.46,4.46,0,0,1,3.36,3.11c.64,2.14,1.27,4.28,1.85,6.44.34,1.3.74,2.33,2.36,2.55,2.69.37,4.08,2.35,5,4.69a22.24,22.24,0,0,1,.64,12.28,6.77,6.77,0,0,1-4.14,5c-2,.79-2.49,2.13-2.75,4-.36,2.52-1,5-1.52,7.5-.17.78-.37,1.55-.61,2.31-1.19,3.74-3,5.27-6.93,5.4-2.39.08-4.78-.17-7.18-.17a2.45,2.45,0,0,0-1.53.71c-.16.15.07.89.31,1.23.46.65,1.21,1.13,1.54,1.82a16.2,16.2,0,0,1,1.92,4.82c.28,2.21.25,4.27,2.22,5.92,1.13.95.94,2.71.54,4.1a3,3,0,0,0,1.09,3.36c3.44,3.13,5.22,7.25,6.53,11.55a125.46,125.46,0,0,1,5.14,27.25,272,272,0,0,1,.07,38.3c-.26,3.83-.11,7.68-.44,11.5-.54,6.35-1.26,12.68-2,19a5,5,0,0,1-3.58,4.17c-3.4,1-3.57,3.13-3.24,6.18.87,7.94,1.38,15.91,2,23.87.1,1.28.1,2.56.17,3.83a10.39,10.39,0,0,1-2.94,7.87,51.19,51.19,0,0,1-5.58,5.24c-3.52,2.77-7.11,5.44-10.8,8-5.7,3.9-11.74,3.82-17.69.71a20.67,20.67,0,0,1-6-4.71,5.59,5.59,0,0,0-5.81-2.2,20.13,20.13,0,0,1-5.26,0c-6.57-.65-11.88-5.79-11.17-13.05a47.93,47.93,0,0,1,1.92-8.36,18.93,18.93,0,0,0,.9-7c-.59-6.92,1.63-13.22,5.08-19.14.89-1.53.84-1.59-.63-2.63-.26-.18-.53-.36-.81-.52-2.13-1.18-2.83-2.86-3.15-5.39a183.9,183.9,0,0,1-.71-33c.38-6.7.79-13.39,1.28-20.08a183.25,183.25,0,0,1,3.42-25.14C34,232,36.73,223.89,42.65,217.19A1.87,1.87,0,0,0,43,215c-1.26-2.6-.64-4.93.95-7.18a4.72,4.72,0,0,0,1-2.55,8.85,8.85,0,0,1,2.4-6.56c.92-1,.65-2,.07-3a18.71,18.71,0,0,1-2.26-7.27,17.68,17.68,0,0,1,3.28-12.23,8.25,8.25,0,0,0,1.41-6.25c-.52-4.91-.76-9.87-.79-14.82-.1-13.74,0-27.49,0-41.23,0-1.12,0-2.24,0-3.36a1.37,1.37,0,0,0-1.53-1.44,14.21,14.21,0,0,0-3.33.18c-2,.47-2.86,1.69-2.85,3.79,0,.63.1,1.27.11,1.91a8.36,8.36,0,0,1-4.73,8.22c-3.48,1.83-6.67,1.34-9.83-1a12.54,12.54,0,0,1-4.53-5.93C16.75,101.05,11.09,86,5.5,70.82,4,66.68,4.92,62.92,7.75,59.68c2.27-2.6,5.12-3.83,8.59-2.67,1.19.39,2.08.4,2.92-.71C24.84,49,32,43.26,39.42,38A197.48,197.48,0,0,1,103.36,8.15a89.24,89.24,0,0,1,15.58-2.6,15.18,15.18,0,0,1,1.91-.08A1.25,1.25,0,0,1,122,7.13,33.93,33.93,0,0,1,120,12.45c-4.77,8.69-9.4,17.46-14.55,25.91C101.33,45,96.57,51.29,92.11,57.72,91.21,59,90.27,60.32,89.29,61.69Z"/><path class="cls-2" d="M39.42,355.6c-2.57-1-4-3.13-5.18-5.35a8.16,8.16,0,0,1-.76-3.65,31,31,0,0,1,6.37-19.13,79.27,79.27,0,0,0,7.93,2,88.44,88.44,0,0,0,21.44.86c2.54-.24,5.08-.29,7.62-.43,4.52,6.48,4.91,14,4.71,21.4-.08,3.16-3.69,4.94-7.3,4.57-2-.2-3.6-1.26-5.4-1.86l-4.06-3.8c-1.16-1.09-1.59-2.23-.63-3.74a1.66,1.66,0,0,0-.42-1.6c-.34-.22-1.21,0-1.63.35-1.47,1.15-2.84,2.42-4.25,3.64-2.61,1.12-4.68,3.11-7.18,4.44A18.25,18.25,0,0,1,39.42,355.6Z"/><path class="cls-3" d="M66.37,165.87A25.73,25.73,0,0,0,55,169.32c-.84.51-1.51,0-1.49-1,.05-2.39.19-4.78.2-7.18q.07-23.7.11-47.42a20.63,20.63,0,0,1,.08-3.34c.07-.48.65-1,1.12-1.25a2.84,2.84,0,0,1,1.41-.11c2.85.13,5.69.28,8.54.42,1.43,2.71.47,5.59.47,8.37a113.72,113.72,0,0,0,1.22,16.7c.06.41.48.76.73,1.14a5.72,5.72,0,0,0,.93-1.25c.32-.87.49-1.8.73-2.7,2.5,4.27,1.63,8.71.72,13.15-2,2.14-2.11-.49-3.45-1.55.71,1.71,2.08,2.28,2.64,3.44C70,153.37,68.61,159.68,66.37,165.87Z"/><path class="cls-4" d="M36.89,111.44a37,37,0,0,1-1.38,5.06,3.29,3.29,0,0,1-5.53,1,14.14,14.14,0,0,1-2.29-4.11C22.93,101.18,18.24,89,13.49,76.8a68.2,68.2,0,0,0-3-7,5.9,5.9,0,0,1,.19-5.92c1.41-2.64,3.4-3.1,5.93-1.52a9.47,9.47,0,0,1,4,5.16c4.52,12.43,9.19,24.81,13.83,37.2.56,1.49,1.25,2.93,1.83,4.41C36.48,109.84,36.65,110.62,36.89,111.44Z"/><path class="cls-5" d="M74,103.32c-8.48.54-18.17.44-22.16-.3,1.43-1.89,3.23-3.16,4.74-4.7s3.18-3.15,4.75-4.74,3.12-3.21,4.66-4.84,2.83-3,4.24-4.57,3-3.29,4.52-5,3-3.32,4.66-5.21a15.81,15.81,0,0,1,1.78,2.24c2,3.73,2.66,7.82,3.19,12a43.75,43.75,0,0,0,.91,4.67c.25,1,.54,1,2,0,1.41,3.63.1,6-3.38,7.47C80.72,101.68,77.22,102.08,74,103.32Z"/><path class="cls-6" d="M54.31,324.8l20.38-4.52a9.2,9.2,0,0,0,.94-.17l9-3.2c1.33-3,1.48-6.14,1.8-9.28C87.2,300,88,292.4,88.6,284.78c.23-2.84,0-5.72,0-8.58,0-1.59,0-3.19.11-4.77a2.92,2.92,0,0,1,1-1.57,1.58,1.58,0,0,1,1.3-.28,1.37,1.37,0,0,1,.84.93,21.9,21.9,0,0,1,.1,3.34q-.39,11-.82,22c-.21,5.42-.5,10.83-.65,16.25a51.46,51.46,0,0,0,.26,6.68A2,2,0,0,1,89.4,321a37.54,37.54,0,0,1-10.6,2.78,110.33,110.33,0,0,1-21.94,1.34C56.23,325.09,55.6,325,54.31,324.8Z"/><path class="cls-7" d="M80.29,217.19c3.34,1.92,4.83,4.91,5.71,8.13a146.83,146.83,0,0,1,5.7,37.26c0,.48,0,1,0,1.43a1.47,1.47,0,0,1-1.39,1.61c-6,.67-11.75,2.85-17.87,2.75-5.74-.09-11.49-.09-17.24-.15a2.57,2.57,0,0,1-1.61-.53c2.17-.26,4.34-.56,6.52-.77a69,69,0,0,0,14.4-3.39c3.64-1.17,7.28-2.35,10.94-3.45a2.23,2.23,0,0,0,1.83-2.41c-.06-3.82.08-7.66-.22-11.47-.35-4.45-1-8.88-1.68-13.29a49.36,49.36,0,0,0-4.19-13.66C80.84,218.57,80.58,217.87,80.29,217.19Z"/><path class="cls-8" d="M69.94,194.54a12.2,12.2,0,0,1-8.73,3.2c-4.67.06-7.81-2.1-9.55-6.52a12.1,12.1,0,0,1,.13-9.76c1.61-3.57,3.89-6.52,7.65-8.08,9,1.72,12.7,7.14,10.66,16A14.93,14.93,0,0,0,69.94,194.54Z"/><path class="cls-9" d="M115.13,9.91a27.79,27.79,0,0,1-2.63,4.59,5.91,5.91,0,0,1-2.91,1.35c-3.86,1-7.8,1.61-11.62,2.73A124.24,124.24,0,0,0,62.29,35.49c-1.29.89-2.62,1.73-4.14,2.73l-1.9-4.43C74.6,23.05,94,15.48,115.13,9.91Z"/><path class="cls-10" d="M60.63,362.57a18,18,0,0,1,2-8.67c.45.2.83.25,1,.47,3.16,3.62,7.33,5.6,11.75,7.13A44.5,44.5,0,0,0,80,362.58c.84.19,2.14-.45,2.38.82.1.55-.63,1.41-1.18,1.9-1.54,1.34-3.2,2.56-4.81,3.82a4.84,4.84,0,0,0-.89.35C66.35,374.51,62.59,372.77,60.63,362.57Z"/><path class="cls-11" d="M74,103.32a4.14,4.14,0,0,1,2.57-1.87c2.69-.83,5.33-1.82,8-2.7a2.28,2.28,0,0,0,1.83-1.86c.24-1.36.61-2.7.93-4,1.77-8.15-.41-15.45-5-22.4l3.31-4.2a10.44,10.44,0,0,1,2.82,4.48,35.48,35.48,0,0,1,2.72,11.12,79.23,79.23,0,0,1-.69,20c-.28,1.66-.37,1.75-2.14,1.82C83.5,103.91,78.72,104.13,74,103.32Z"/><path class="cls-12" d="M65.27,66.79c-3-2.42-4.35-5.26-5.59-8.1-1.84-4.23-3.46-8.56-5.13-12.86-1.36-3.48-2.64-4.28-6.14-3a25,25,0,0,0-6.77,3.44c-4.31,3.27-8.4,6.83-12.51,10.37-1.92,1.66-3.66,3.55-5.51,5.3-.15.15-.62.09-.85,0a.75.75,0,0,1-.12-.7,64.32,64.32,0,0,1,4.78-5.94c7.46-7.51,16-13.63,25-19.2,1.18-.73,1.74-.55,2.18.64q5.1,13.91,10.16,27.82C64.93,65.06,65,65.66,65.27,66.79Z"/><path class="cls-13" d="M68.13,145.56c.23-.4.64-.8.65-1.2.14-4.22.21-8.44.29-12.66q.44-8.35.84-16.71c.07-1.43.07-2.87.13-4.3,0-.82.17-1.67,1.26-1.55s1,1,1,1.81c0,.16,0,.32,0,.48q0,26.06,0,52.11c0,3.5,0,4.05-3.72,2.82l-1.07-.26-1.17-.23c.13-1.88.17-3.78.41-5.66.63-4.89,1.87-9.72,1.38-14.71Z"/><path class="cls-14" d="M69.94,194.54c-1-.23-1.88-.68-1.73-1.86a14.09,14.09,0,0,1,.9-4.13c2.92-6.16-1.87-10.9-6.09-13.09-1.23-.65-2.8-.67-3.58-2.08,2.56-2,5.55-2.26,8.58-1.77,4.61.74,7,2.78,7.7,7.77C76.58,185.36,75.15,190.74,69.94,194.54Z"/><path class="cls-15" d="M40,319.72a119.47,119.47,0,0,0,2-17.63c.68-9.88,1.38-19.77.67-29.69a5.55,5.55,0,0,1,.25-1.85c.05-.21.47-.34.75-.45.08,0,.3.12.34.23a7.21,7.21,0,0,1,.71,2.21c0,2.71.08,5.44-.11,8.15-.9,12.93-.59,25.88-.26,38.82a21.18,21.18,0,0,1,.05,2.87,1.26,1.26,0,0,1-1,.78,23,23,0,0,1-10.18-3.86c-1.19-.78-.79-2-.48-3,.08-.26.84-.6,1-.48,1.38.81,2.68,1.73,4,2.6C38.41,318.72,38.94,319,40,319.72Z"/><path class="cls-16" d="M42,262.68c1.48-4.42,1.51-8.76,2.07-13a260.88,260.88,0,0,1,4.48-26.36c.15-.62.26-1.25.43-1.86.58-2.08.71-2.13,3.59-1.45a111.28,111.28,0,0,0-4.84,17.46A153.8,153.8,0,0,0,45,262.61c0,1,0,1.92-.07,2.87-.08,1.15-.68,1.56-2,1.2-2-.56-4-1.17-5.92-1.86-2.4-.84-2.5-1.05-2.31-3.4.23-2.71.7-2.91,3.15-1.36Z"/><path class="cls-14" d="M61.85,207.5c-2.05-.15-4-.19-5.85-.45A19,19,0,0,1,51.86,206c-2.19-.85-2.48-2.12-1.14-4.06a1.66,1.66,0,0,1,2.39-.71c7.29,3.51,13.88,2,20-2.91.6-.48,1.17-1.24,2.05-.73,1.33.77,2.62,4.13,2,5.51a3.26,3.26,0,0,1-1.55,1.69A48.84,48.84,0,0,1,68.36,207,52.17,52.17,0,0,1,61.85,207.5Z"/><path class="cls-17" d="M59.66,215.7c-2.23,0-4.47.12-6.7,0a16.37,16.37,0,0,1-4.16-1,4.71,4.71,0,0,1-1.86-1.41,2.06,2.06,0,0,1-.16-2.64,1.76,1.76,0,0,1,2.44-.75c4.22,1.79,8.65,2.13,13.15,2,5.93-.14,11.83-.44,16.8-4.35.44-.35,1.1.3,1.27,1a3,3,0,0,1-.77,2.65,7.52,7.52,0,0,1-4.39,2.72c-3.28.64-6.57,1.26-9.88,1.68a45.77,45.77,0,0,1-5.74,0Z"/><path class="cls-18" d="M68.85,354c.93.13,1.86.28,2.79.38a21.18,21.18,0,0,0,3.79.33c4.38-.35,5.25-1.24,5-5.61a59.78,59.78,0,0,0-1.08-8.52c-.71-3.59-1.68-7.13-2.54-10.69a13.26,13.26,0,0,1,2.23-.81,14.67,14.67,0,0,1,2.51,0c.19,1.94.41,3.82.56,5.71.59,7.48,1.19,14.95,1.72,22.43.16,2.13-.29,2.51-2.47,2.18A24.36,24.36,0,0,1,68.85,354Z"/><path class="cls-19" d="M48.06,370.73c3.11-4.33,6-8.43,9-12.52,1.08.19.7,1,.62,1.48a43.72,43.72,0,0,0-.07,15.68,1.35,1.35,0,0,1-.39,1.18,1.54,1.54,0,0,1-1.33-.16C53.27,374.56,50.73,372.68,48.06,370.73Z"/><path class="cls-20" d="M60.63,362.57c.73,1.57,1.4,3.18,2.19,4.72,2,3.91,4.43,4.91,8.64,3.57,1.66-.52,3.29-1.15,4.92-1.74l-2.85,2.36-.11.11c-1.94,1.39-3.81,2.87-5.83,4.12a18.67,18.67,0,0,1-4.32,1.88c-1.64.5-2.24,0-2.53-1.8C60,371.39,59.39,367,60.63,362.57Z"/><path class="cls-21" d="M32.44,366.52c-1.61-1.2-1.85-3-1.73-4.73.2-2.69.62-5.36,1-8.57a69.88,69.88,0,0,0,5.19,4.7,63.05,63.05,0,0,0,5.73,3.4C40.74,365.48,37.4,367.18,32.44,366.52Z"/><path class="cls-22" d="M80.74,247c-.12.83-.15,1.3-.25,1.76a2.06,2.06,0,0,1-2.11,1.57,1.73,1.73,0,0,1-1.71-1.4,22.36,22.36,0,0,1-.56-5.19c.45-6.21-1.28-11.92-3.64-17.53a6.26,6.26,0,0,1-.24-1.8c0-.11.19-.28.33-.33s.68-.24.85-.11a2.82,2.82,0,0,1,.92,1,46.21,46.21,0,0,1,2.42,5.67c1.19,3.95,2.2,8,3.2,12C80.34,244.18,80.52,245.76,80.74,247Z"/><path class="cls-23" d="M88.85,148.92A10,10,0,0,1,90,156.26c-.39,2-.63,4.08-.87,6.13a14.56,14.56,0,0,0,1,7.94,9.51,9.51,0,0,1-.14,7.88c-.14.34-.65.53-1,.8-.24-.34-.64-.65-.72-1a50.5,50.5,0,0,1-1.07-6.55c-.25-4.46-.26-8.92-.34-13.38C86.86,155,88,152.26,88.85,148.92Z"/><path class="cls-24" d="M50.92,256.58a6.45,6.45,0,0,1,1.89-4.49,2.75,2.75,0,0,1,3-.76c.74.25,1.48.5,2.2.81a5.07,5.07,0,0,1,3.28,5.62,5.74,5.74,0,0,1-4.94,4.45c-2.16.18-4.09-1.19-5-3.6A15.33,15.33,0,0,1,50.92,256.58Z"/><path class="cls-20" d="M39.42,355.6c.53-.27,1-.75,1.59-.78a23.41,23.41,0,0,0,11.83-4.16,23.37,23.37,0,0,1,3.28-1.82,4.63,4.63,0,0,1,1.74,0c-2.19,2.69-4.44,5.32-6.53,8.07a4.16,4.16,0,0,1-4.09,1.72A15.53,15.53,0,0,1,39.42,355.6Z"/><path class="cls-25" d="M86.09,145c-.48,2.08-1,4.24-1.5,6.39-.65,2.65-.67,2.65-3.47,2.69-3.85.05-4.18-.33-3.46-4,1.17-6,1.77-6.42,7.88-5.47C85.68,144.62,85.8,144.78,86.09,145Z"/><path class="cls-26" d="M60.57,281.22c0,2.24-1.39,3.89-3.52,5a4.56,4.56,0,0,1-5.65-.93,4.5,4.5,0,0,1-.16-5.73,14.65,14.65,0,0,1,4.11-3.13,3.52,3.52,0,0,1,2.7.28C59.77,277.5,60.55,279,60.57,281.22Z"/><path class="cls-7" d="M82.33,170.43H77.2c-.35-1.91.18-3.77.14-5.6a52.15,52.15,0,0,1,.17-5.73c0-.37.79-.91,1.27-1a8,8,0,0,1,2.85.09,1.71,1.71,0,0,1,1.07,1.2c.07,3,0,6.06,0,9.08A14.46,14.46,0,0,1,82.33,170.43Z"/><path class="cls-27" d="M78.66,173.84a15.22,15.22,0,0,1,3-.21,1.89,1.89,0,0,1,1.35,1c1,4,2,8,3,12.19H79.83A20.94,20.94,0,0,0,78.66,173.84Z"/><path class="cls-28" d="M32.44,366.52c3.8-.95,7.49-2.1,10.2-5.2l4.24.35C44.85,369.39,37.62,371,32.44,366.52Z"/><path class="cls-29" d="M70.71,50.81a3.19,3.19,0,0,1-3.47-3,3.7,3.7,0,0,1,3.57-3.66,3.49,3.49,0,0,1,3.47,3.15C74.39,49.24,72.92,50.7,70.71,50.81Z"/><path class="cls-15" d="M52.16,58.61A3.37,3.37,0,0,1,48.86,62,3.24,3.24,0,0,1,46,58.77a3.18,3.18,0,0,1,3.31-3.3A3,3,0,0,1,52.16,58.61Z"/><path class="cls-30" d="M92.19,161.23a35.2,35.2,0,0,1,.26-3.71,1.43,1.43,0,0,1,1.72-1.22,3.12,3.12,0,0,1,1.92.92,8,8,0,0,1,.82,5.46C94.62,164.53,93.48,162.62,92.19,161.23Z"/><path class="cls-31" d="M92.19,161.23a8.53,8.53,0,0,0,4.72,1.45,32.41,32.41,0,0,1,0,3.27,2.67,2.67,0,0,1-2.15,2.24c-.66.2-1.29.15-1.57-.54A11.43,11.43,0,0,1,92.19,161.23Z"/><path class="cls-32" d="M71.3,238a17.86,17.86,0,0,1-.58,1.83,2,2,0,0,1-2.51.76A3.68,3.68,0,0,1,66.72,236a2.62,2.62,0,0,1,1.81-1.23,2.76,2.76,0,0,1,2,1A6.71,6.71,0,0,1,71.3,238Z"/><path class="cls-3" d="M67.54,166.1l1.07.26Z"/><polygon class="cls-10" points="73.42 371.59 73.36 371.41 73.53 371.48 73.61 371.66 73.42 371.59"/><path class="cls-33" d="M68.16,145.5c-1.06.05-2.28.6-3-.56a4.47,4.47,0,0,1-.68-2.16,2.12,2.12,0,0,1,2.08-2.14,1.89,1.89,0,0,1,2,2.12,22.11,22.11,0,0,1-.36,2.8Z"/><path class="cls-34" d="M81.54,87a5.35,5.35,0,0,1-.07,1.1c-.43,1-.88,1.94-1.33,2.91-1.45-.18-1.53-1.43-1.79-2.44a41.43,41.43,0,0,1-1-5,2,2,0,0,1,.85-1.48,1.29,1.29,0,0,1,1.94.66C80.78,84.3,81.2,86,81.54,87Z"/><path class="cls-35" d="M56.61,184.67c0-1.79,1.27-4.09,3.56-5.79a4.45,4.45,0,0,1,2.19-.68A1.8,1.8,0,0,1,64,180.82c-.5.8-1.27,1.43-1.72,2.25a7.94,7.94,0,0,0-.94,2.61A2.09,2.09,0,0,0,62.57,188c.87.38,1.78.64,2.65,1a1.3,1.3,0,0,1,.14,2.29,4.54,4.54,0,0,1-6.41-.08C57.35,189.81,56.59,188,56.61,184.67Z"/><path class="cls-36" d="M55.41,255.1a2.66,2.66,0,0,1,2.72,2.62,2.63,2.63,0,0,1-5.23-.28A2.6,2.6,0,0,1,55.41,255.1Z"/><path class="cls-37" d="M55.33,279.11a2.63,2.63,0,0,1,2.82,2.52,2.56,2.56,0,0,1-2.26,2.07c-1.56.11-3-1-3.09-2.27A2.58,2.58,0,0,1,55.33,279.11Z"/></g></g></svg>