<svg xmlns="http://www.w3.org/2000/svg" viewBox="0 0 293.16 179.55"><defs><style>.cls-1{fill:#fff;}.cls-2{fill:#010000;}.cls-3{fill:#fd9801;}.cls-4{fill:#f8f9f9;}.cls-5{fill:#f8fafa;}.cls-6{fill:#f0f6f2;}.cls-7{fill:#f1f6f1;}.cls-8{fill:#1a1313;}.cls-9{fill:#fe9801;}.cls-10{fill:#8c9b9b;}.cls-11{fill:#482f03;}.cls-12{fill:#a56700;}.cls-13{fill:#96620b;}.cls-14{fill:#1b1a1a;}.cls-15{fill:#231e1e;}</style></defs><g id="Capa_2" data-name="Capa 2"><g id="simplemech_chest" data-name="simplemech chest"><path class="cls-1" d="M119.38,72.34c8.14-6.44,17-9.89,27.19-9.83s19,3.81,27,10.18c3.42-2.25,6.75-4.42,10.07-6.61q27-17.79,54-35.58Q255,19.07,272.47,7.72c3.07-2,6.14-4,9.26-5.95a9.22,9.22,0,0,1,3-1.34c2.45-.46,4.81-.25,6.54,1.9A7.33,7.33,0,0,1,292.62,10a14,14,0,0,1-4,5.33L275.43,27.11Q257,43.55,238.57,59.94A6.72,6.72,0,0,0,236,65.63c.09,6.7-.23,13.41-.36,20.11a19.57,19.57,0,0,0,.24,3.33,12.21,12.21,0,0,1-2.37,9.49c-2.46,3.33-5.12,6.53-7.74,9.75q-12.4,15.24-24.86,30.42c-5.68,6.91-11.34,13.83-17.78,20.08a41.88,41.88,0,0,0-2.7,3.34c-8.66,10.45-19.46,16.95-33.28,17.38a40.22,40.22,0,0,1-29.71-11.07,107.93,107.93,0,0,1-7.28-8.24c-.73-.84-1.3-1.83-2.07-2.62-7.61-7.78-14.32-16.32-21.21-24.72q-12-14.62-24-29.28-2-2.41-3.85-4.9a12.47,12.47,0,0,1-2.48-7.61q0-9.81-.05-19.62c0-2.4-.1-4.81.12-7.19a4.49,4.49,0,0,0-1.68-4.17c-4.19-3.7-8.31-7.48-12.49-11.2C29.9,37.76,17.34,26.65,4.85,15.45A24.5,24.5,0,0,1,1,10.61,7,7,0,0,1,0,7.46a6.75,6.75,0,0,1,9.2-7,16.49,16.49,0,0,1,3.33,1.85q30.9,20.13,61.78,40.3C88.61,52,102.81,61.44,117.05,70.88,117.71,71.31,118.39,71.72,119.38,72.34Z"/><path class="cls-2" d="M119.74,78.63c1.38-1.11,2.6-2.14,3.86-3.1a36.81,36.81,0,0,1,21.69-7.92A36.34,36.34,0,0,1,170,76.49c3.47,2.89,2.54,3.09,6.78.3L268.88,16.2c4.41-2.9,8.85-5.74,13.28-8.6.94-.61,1.91-1.17,2.87-1.74a1.87,1.87,0,0,1,2.58.34,2.08,2.08,0,0,1,.29,2.65,23.91,23.91,0,0,1-3.36,4c-3.75,3.47-7.61,6.83-11.43,10.23q-20.24,18-40.48,36c-1.51,1.33-1.71,2.62-1.65,4.56.21,6.54,0,13.09,0,19.63a44.2,44.2,0,0,0,0,6.2,9.56,9.56,0,0,1-2.11,7.59c-1.59,2-3.19,4-4.81,6-9.31,11.37-18.67,22.72-27.95,34.11a239.83,239.83,0,0,1-16.55,18.63,30.38,30.38,0,0,0-2.71,3.34,40.19,40.19,0,0,1-10.11,9.45c-12.81,8.33-26.11,8.69-39.52,1.65-5.3-2.78-9.35-7.17-12.92-12-1.33-1.78-2.79-3.48-4.23-5.18-5.7-6.68-11.5-13.29-17.12-20-8.78-10.57-17.46-21.23-26.17-31.86-1.22-1.48-2.36-3-3.58-4.5a8,8,0,0,1-1.84-5.31q0-12.47,0-24.91a22.8,22.8,0,0,1,.28-4.3,3.24,3.24,0,0,0-1.29-3.33C55.6,54.58,50.87,50.28,46.1,46L8.83,12.91a26.57,26.57,0,0,1-2.69-2.72,4.47,4.47,0,0,1-1.06-2.1,3.59,3.59,0,0,1,.55-2.17,1.55,1.55,0,0,1,2.14-.41C9,6.18,10.28,6.92,11.48,7.7Q41.19,27.08,70.89,46.49c15,9.82,29.85,19.75,44.78,29.62C117,77,118.34,77.77,119.74,78.63Z"/><path class="cls-1" d="M185.22,121.08c-.35,12.64-3.76,24.87-12.11,35.45a40.11,40.11,0,0,1-11.85,10.31c-10.63,6-21.26,6-31.82-.22a41,41,0,0,1-13.33-12.84,50.82,50.82,0,0,1-8.68-26.47c-.58-11.59,1.55-22.55,7.19-32.74a44.59,44.59,0,0,1,15-16.42C145.51,68,164.14,73,174.18,87,182.32,98.31,185,108.42,185.22,121.08Z"/><path class="cls-1" d="M66.52,87.67a8.84,8.84,0,0,1-.89-2.62c0-6.53.07-13,.17-19.58a1.69,1.69,0,0,1,.64-1c.11-.1.6.12.83.31.74.6,1.45,1.24,2.17,1.87C81.1,77,92.72,87.4,104.46,97.7a3.94,3.94,0,0,1,1.34,4.89,63.35,63.35,0,0,0-2.75,19.31c0,.87.37,1.86-.66,2.83l-11.7-12.25c-3.57-1.25-4.75-4.79-7-7.3l-.2-.22a1.16,1.16,0,0,0-.75-.76l-.2-.2a1.2,1.2,0,0,0-.76-.76l-.19-.2a1.25,1.25,0,0,0-.77-.77l-.18-.19a1.36,1.36,0,0,0-.78-.78l-.17-.18a1.56,1.56,0,0,0-.78-.8l-.15-.16a1.93,1.93,0,0,0-.81-.84l-.12-.13a2.5,2.5,0,0,0-.83-.85l-.11-.12a3.09,3.09,0,0,0-.84-.85l-.11-.12a3.61,3.61,0,0,0-.84-.86l-.1-.11a5.76,5.76,0,0,0-.84-.87l-.1-.11c-.27-.3-.55-.59-.85-.87l-.09-.09c-.28-.29-.57-.59-.86-.87l-.09-.09-.87-.88-.09-.08-.87-.88-.08-.08c-.3-.29-.59-.58-.88-.88l-.08-.08c-.3-.29-.59-.59-.87-.89l-.08-.08a12.32,12.32,0,0,1-.88-.89l-.07-.07A9.35,9.35,0,0,1,66.52,87.67Z"/><path class="cls-1" d="M189.2,125.6c.34-8.76-.41-16.19-2.67-23.41-.53-1.69.32-2.64,1.48-3.67,8.37-7.38,16.7-14.82,25-22.24q5.35-4.77,10.73-9.54c.67-.59,1.41-1.11,2.07-1.62,1.12.73.72,1.6.72,2.31.08,5.42,0,10.85.18,16.27A5.56,5.56,0,0,1,225,88.32c-4.42,4.38-8.74,8.85-13,13.35-6.28,6.58-12.49,13.22-18.73,19.82C192.14,122.61,191.06,123.69,189.2,125.6Z"/><path class="cls-3" d="M54.09,45.34a149.24,149.24,0,0,0,13.49,8.5q-7.45-7-15.47-13.29a3.41,3.41,0,0,1,3.25.2Q62,45.3,68.73,49.84c1.45,1,2.93,1.91,4.4,2.85.67,1.18,1.93,1.62,3,2.33H76a31.48,31.48,0,0,0,3,2l-.09-.07c9,6.79,18.87,12.31,27.22,19.94a17.92,17.92,0,0,1,2.8,2.56c.54.76,1.25,1.63.51,2.56s-1.73.52-2.64.23c-1.3-.91-2.62-1.8-3.9-2.74q-9.48-6.94-19-13.88a7.36,7.36,0,0,0-1.71-.78c-.07,0-.26.18-.34.31s-.17.33-.12.4a8.72,8.72,0,0,0,1.38,1.82Q95.58,77.52,108,87.66c.62.5,1.25,1,1.87,1.5a1.55,1.55,0,0,1,.48,2.1c-.65,1.27-1.32,2.54-2.1,4a16.06,16.06,0,0,1-2-1.3Q79.59,70.22,53,46.42C52.84,45.54,53.13,45.08,54.09,45.34Z"/><path class="cls-3" d="M239.24,47.42q-13.37,12-26.73,24-12.31,11-24.67,21.94c-.82.73-1.68,1.42-2.45,2.06-.47-.28-.83-.37-.95-.59-2.72-5.13-2.81-4.08,1.48-7.54,8.18-6.61,16.3-13.32,24.42-20a5.67,5.67,0,0,0,1-1.49c.05-.08,0-.29-.13-.42S211,65,210.91,65a7.8,7.8,0,0,0-1.71.78c-4.79,3.44-9.56,6.92-14.34,10.38-.77.55-1.56,1.08-2.35,1.61-1.81-.25-2.75,1.44-4.22,1.9s-3.58,2-4.64,0c-.84-1.61,1.12-2.63,2.45-3.53,6.33-4.22,12.55-8.61,19.05-12.56,5.69-3.46,11.16-7.25,16.86-10.69,1-.57,1.78-1.37,3-1.11,2.73,2.16,4.15-2,6.56-1.39a1.28,1.28,0,0,0,.8-.38,1.84,1.84,0,0,0,1-.67l.07,0a3.09,3.09,0,0,1,1.1-.79,1.36,1.36,0,0,0,.74-.43,1.46,1.46,0,0,0,.93-.68l1.87-1.09C239.06,46.06,239.39,46.49,239.24,47.42Z"/><path class="cls-4" d="M186.29,141.36c.74-3,1.49-4.85,1.58-6.72.18-3.81,2.18-6.43,4.68-9,10.61-11.06,21.1-22.23,31.64-33.35a21.46,21.46,0,0,1,2.11-1.94.79.79,0,0,1,.77.08,1,1,0,0,1,.1.85,18.77,18.77,0,0,1-1.42,1.9L201,123.61c-4.12,5.08-8.22,10.18-12.35,15.26C188.13,139.48,187.56,140,186.29,141.36Z"/><path class="cls-5" d="M89.3,113.83c4,4.5,8,9.06,12.13,13.48a9,9,0,0,1,2.71,5.36,82.15,82.15,0,0,0,1.77,8.19,37.21,37.21,0,0,1-2.74-2.71q-17.64-21.7-35.25-43.42c-.69-.85-1.53-1.58-2.3-2.37a1.68,1.68,0,0,1-.05-2.59l4.08,3.68a.89.89,0,0,0,.66.7l.2.22a1.36,1.36,0,0,0,.75.79l.16.18a2,2,0,0,0,.79.82l.14.16a2.69,2.69,0,0,0,.79.82l.15.16a3.89,3.89,0,0,0,.8.82l.14.15a7,7,0,0,0,.8.84l.12.13.83.85.11.12c.29.28.57.56.84.86l.1.11a7.76,7.76,0,0,1,.86.86l.09.1a6.42,6.42,0,0,1,.86.87l.09.09a4.83,4.83,0,0,1,.86.89l.07.08a3.67,3.67,0,0,1,.89.91l.06.06a3.31,3.31,0,0,1,.89.9l.06.06a3,3,0,0,1,.89.91l.08.08A11.2,11.2,0,0,1,89.3,113.83Z"/><path class="cls-6" d="M225.78,52.19a8,8,0,0,0-1.75.6q-17.88,11.46-35.72,23c-1.52,1-3.26,1.84-4.33,3.87,2.56-.16,4.48-1.28,6.44-2.24.78-.38,1.51-.47,2.09.34-4,3.1-7.88,6.38-12.27,9.34L176,81.58a14.36,14.36,0,0,1,1.51-1.3l58.54-37.87c1-.27,1.29.23,1.28,1.1l-3.05,2.79a2.09,2.09,0,0,1-1.26,1,.32.32,0,0,0-.43.27,1.28,1.28,0,0,0-1,.8l-.1.07a5.84,5.84,0,0,0-1,.83l-.05,0a3.65,3.65,0,0,1-1.06,1.34,9.3,9.3,0,0,1-.9.59,5.46,5.46,0,0,1-.89.49,7.28,7.28,0,0,1-1.39.45Z"/><path class="cls-7" d="M106.8,82.2l2.62-.56a9.39,9.39,0,0,0-1.16-1.46c-5.8-4.75-11.55-9.57-17.47-14.16-3.26-2.53-6.84-4.65-10.25-7-.72-.51-1.74-.9-1.63-2.1a8.36,8.36,0,0,1,1.73.66q17.06,11,34.09,22c.79.5,1.49,1.15,2.33,1.81l-4.19,5.51A33.17,33.17,0,0,1,106.8,82.2Z"/><path class="cls-8" d="M89.3,113.83,82.73,107l1-1.81,7,7.3Z"/><path class="cls-9" d="M55.36,40.75l-3.24-.2-9.65-7C45.61,33.9,47.43,35,55.36,40.75Z"/><path class="cls-1" d="M237.37,43.51l-1.28-1.1A44.45,44.45,0,0,1,247.81,35l-.07-.09c-.05.29,0,.72-.18.85C244.18,38.33,240.77,40.92,237.37,43.51Z"/><path class="cls-9" d="M54.09,45.34,53,46.42a51.78,51.78,0,0,1-10.54-9.56l.11-.1c.3.07.68,0,.9.21Q48.77,41.13,54.09,45.34Z"/><path class="cls-3" d="M239.24,47.42l-1.17-1.14c3.27-2.49,6.52-5,9.81-7.45.2-.16.61,0,.92,0l-.07-.07A32,32,0,0,1,246,41.81C243.81,43.75,241.5,45.56,239.24,47.42Z"/><path class="cls-3" d="M229.06,50.15l1.44-.83,1.09,1c-1.74,1.32-3.46,2.67-5.24,3.93-.27.2-.82,0-1.24,0,.12-.42.24-.84.37-1.26s.2-.57.3-.86l-.07,0c.52-.58,1.48-.39,1.92-1.1l-.06.06A12.73,12.73,0,0,1,229.06,50.15Z"/><path class="cls-3" d="M76.1,55a2.65,2.65,0,0,1-3-2.33C74.34,53.18,75.62,53.59,76.1,55Z"/><path class="cls-7" d="M79,57c-1.58.22-2.35-.78-3-2A3.79,3.79,0,0,1,79,57Z"/><path class="cls-8" d="M65.57,89.77c0,.86,0,1.73.05,2.6-1.31-.5-1.27-1.54-1-2.63A4,4,0,0,1,65.57,89.77Z"/><path class="cls-10" d="M249.79,34.05l-2,.81.07.09c.34-1.12,1.23-.86,2-.83Z"/><path class="cls-8" d="M76,100.09l-.83-.85Z"/><path class="cls-8" d="M77,98.34l.83.85Z"/><path class="cls-8" d="M75,99.11l-.8-.84Z"/><path class="cls-8" d="M76.05,97.37l.84.85Z"/><path class="cls-8" d="M78,99.32l.81.84Z"/><path class="cls-8" d="M81.78,103.24c.26.25.51.51.76.76C82.29,103.75,82,103.49,81.78,103.24Z"/><path class="cls-8" d="M74.09,98.12l-.8-.82Z"/><path class="cls-8" d="M82.74,104.2l.75.76Z"/><path class="cls-8" d="M81.7,105.94c-.3-.3-.6-.6-.89-.91C81.1,105.34,81.4,105.64,81.7,105.94Z"/><path class="cls-8" d="M75.1,96.39l.84.86Z"/><path class="cls-8" d="M73.14,97.14l-.79-.82Z"/><path class="cls-8" d="M74.16,95.41l.84.87Z"/><path class="cls-8" d="M72.21,96.16c-.27-.27-.53-.55-.79-.82Z"/><path class="cls-8" d="M73.21,94.43c.29.29.57.59.85.88Z"/><path class="cls-8" d="M71.26,95.16l-.75-.79Z"/><path class="cls-8" d="M72.26,93.47l.86.87Z"/><path class="cls-8" d="M70.31,94.15l-.66-.7Z"/><path class="cls-8" d="M79.79,104l-.86-.89Z"/><path class="cls-8" d="M70.34,91.54l.87.88Z"/><path class="cls-8" d="M69.38,90.58c.3.29.59.58.88.88C70,91.16,69.68,90.87,69.38,90.58Z"/><path class="cls-8" d="M68.43,89.61l.87.89Z"/><path class="cls-8" d="M67.47,88.64l.88.89Z"/><path class="cls-8" d="M76.93,101.07l-.84-.86Z"/><path class="cls-8" d="M82.65,106.91l-.89-.91C82.05,106.31,82.35,106.61,82.65,106.91Z"/><path class="cls-8" d="M66.52,87.67l.88.9Z"/><path class="cls-11" d="M233.06,47.31l1.26-1Z"/><path class="cls-8" d="M78.91,100.32l.78.8Z"/><path class="cls-11" d="M231.61,48.38l1-.8Z"/><path class="cls-11" d="M236.2,47.37l-.94.68Z"/><path class="cls-12" d="M248.8,38.8l.3-.75c.76.71-.1.53-.37.68Z"/><path class="cls-11" d="M230.55,49.28l1-.83Z"/><path class="cls-11" d="M234.53,48.48l-1.1.79Z"/><path class="cls-13" d="M42.42,36.86l-.63-.41c.53-.57.6-.05.74.31Z"/><path class="cls-8" d="M80.75,105l-.89-.91Z"/><path class="cls-10" d="M249.84,34.12c0-.11,0-.22,0-.32a1.82,1.82,0,0,0-.07.25Z"/><path class="cls-11" d="M233.36,49.32l-1,.67Z"/><path class="cls-8" d="M77.89,102l-.86-.86C77.32,101.46,77.6,101.75,77.89,102Z"/><path class="cls-8" d="M79.86,101.3l.78.78Z"/><path class="cls-8" d="M78.84,103l-.86-.87Z"/><path class="cls-8" d="M80.82,102.27l.77.77Z"/><path class="cls-8" d="M71.3,92.5l.87.88Z"/><path d="M142.23,117c.19-1.88.3-3.77.57-5.64.48-3.31,1.09-6.61,1.59-9.92a7,7,0,0,0,0-2.37c-.21-1-.86-1.84-2-1.71a2.94,2.94,0,0,0-2,1,6.56,6.56,0,0,0-.9,2.67c-.8,5-1.52,10.09-2.3,15.13a3.53,3.53,0,0,1-.54,1.3,1.1,1.1,0,0,1-.75.52.92.92,0,0,1-.71-.5,6.63,6.63,0,0,1-.64-2.22c0-2.23.12-4.47.17-6.7a17.5,17.5,0,0,0-.06-3.32c-.08-.51-.7-1.3-1.09-1.3a2.7,2.7,0,0,0-2,.82,5.05,5.05,0,0,0-1,2.63c-.25,4-.59,8-.47,12a23.52,23.52,0,0,1-.44,7.12,40.21,40.21,0,0,0-1.14,10.92,23,23,0,0,1-2.76,11,14.48,14.48,0,0,1-1.28,1.66c-2-3.45-2.73-7-3.42-10.56A86,86,0,0,1,120,124.27c-.06-5.91,0-11.82,1.14-17.66a40.25,40.25,0,0,1,4-11.74A22.78,22.78,0,0,1,143,82.67a39.4,39.4,0,0,1,12.41.37A18.62,18.62,0,0,1,169.88,95a45.52,45.52,0,0,1,3.05,13,114.15,114.15,0,0,1,0,23.45,51.33,51.33,0,0,1-3.29,13.94c-3.62,9-10.27,14-19.9,15a32.63,32.63,0,0,1-13.13-1c1.29-4,2.72-7.77,5.35-11a17,17,0,0,1,4-3.28c2.15-1.37,4.49-2.44,6.65-3.79a15.12,15.12,0,0,0,4.11-3.24c2.19-2.87,5.2-4.69,7.92-6.89.62-.49,1.37-.82,2-1.3.88-.66,2.09-1.36,1.53-2.63-.47-1.08-1.73-1.31-2.89-1.4a8.39,8.39,0,0,0-5.75,2c-1.67,1.23-3.35,2.45-5.1,3.56-1,.64-1.85,0-1.8-1.19a32.42,32.42,0,0,1,2.6-11.14c1.7-4.13,3.43-8.24,5.07-12.4a15.51,15.51,0,0,0,1-3.67,2.17,2.17,0,0,0-1.52-2.21,1.92,1.92,0,0,0-2.47.86,15.41,15.41,0,0,0-1.48,3c-1.52,3.86-3,7.75-4.5,11.6-.63,1.56-2,2.52-2.2,1.9a5.78,5.78,0,0,1-.05-2.74c1.35-5.42,2.81-10.81,4.2-16.21a2.32,2.32,0,0,0-1.44-3.1,1.91,1.91,0,0,0-2.54.59,15.58,15.58,0,0,0-1.21,3.1c-1.39,5.24-2.69,10.5-4.09,15.73a6.59,6.59,0,0,1-1.19,1.76Z"/><path class="cls-14" d="M181.41,129.94A40.66,40.66,0,0,1,178.62,142a4.68,4.68,0,0,1-1.57,1.69,1.21,1.21,0,0,1-1.11-.34,3.65,3.65,0,0,1-.26-1.84c.18-1.09.55-2.15.83-3.23,1-3.85,2.21-7.65,2.27-11.7a3,3,0,0,1,1-1.93c.43-.4,1.33.71,1.53,2a7.46,7.46,0,0,1,.1.95C181.42,128.05,181.41,128.53,181.41,129.94Z"/><path class="cls-15" d="M180.16,116.6c-1.15,0-1.89-.89-1.86-2.23a1.94,1.94,0,0,1,2-2.1,2.17,2.17,0,0,1-.16,4.33Z"/><path class="cls-3" d="M227.63,51.12a1.62,1.62,0,0,1-1.92,1.1A1.53,1.53,0,0,1,227.63,51.12Z"/><path class="cls-3" d="M229.06,50.15l-1.49,1C227.7,50.31,228.31,50.12,229.06,50.15Z"/></g></g></svg>