<svg xmlns="http://www.w3.org/2000/svg" viewBox="0 0 1093.93 838.2"><defs><style>.cls-1{fill:#fff;}.cls-2{fill:#010000;}.cls-3{fill:#fefefe;}.cls-4{fill:#010101;}.cls-5{fill:#030303;}.cls-6{fill:#060606;}.cls-7{fill:#020202;}.cls-8{fill:#cdcdcd;}.cls-9{fill:#f90;}.cls-10{fill:#cecece;}.cls-11{fill:#fdfdfd;}.cls-12{fill:#fe9800;}.cls-13{fill:#ccc;}.cls-14{fill:#cbcbcb;}.cls-15{fill:#fefdfc;}.cls-16{fill:#fe9801;}.cls-17{fill:#fcfcfc;}.cls-18{fill:#fc9803;}.cls-19{fill:#fdfcfb;}.cls-20{fill:#fd9800;}.cls-21{fill:#f6f6f6;}.cls-22{fill:#f9f9f9;}.cls-23{fill:#f7f7f7;}.cls-24{fill:#f8f8f8;}.cls-25{fill:#f0f0f0;}.cls-26{fill:#c8c8c8;}.cls-27{fill:#fbfbf9;}.cls-28{fill:#f6f5f3;}.cls-29{fill:#fbfbfb;}.cls-30{fill:#f5f5f5;}.cls-31{fill:#c3c3c3;}.cls-32{fill:#efefef;}.cls-33{fill:#f4f4f4;}.cls-34{fill:#f7f4f0;}.cls-35{fill:#ebebeb;}.cls-36{fill:#c9c9c9;}.cls-37{fill:#f9f6f1;}.cls-38{fill:#f6f3ee;}.cls-39{fill:#faf8f5;}.cls-40{fill:#f1f1f1;}.cls-41{fill:#f7f4ef;}.cls-42{fill:#f3f1ee;}.cls-43{fill:#e5e5e5;}.cls-44{fill:#f19100;}.cls-45{fill:#e6e6e6;}.cls-46{fill:#e1e1e1;}.cls-47{fill:#eee;}.cls-48{fill:#e0e0e0;}.cls-49{fill:#16130e;}.cls-50{fill:#f2ede6;}.cls-51{fill:#f8f5f1;}.cls-52{fill:#d9d9d9;}.cls-53{fill:#e7e7e7;}.cls-54{fill:#ececec;}.cls-55{fill:#ede9e3;}.cls-56{fill:#f3ede3;}.cls-57{fill:#dedede;}.cls-58{fill:#9e9e9e;}.cls-59{fill:#d9bf98;}.cls-60{fill:#747474;}.cls-61{fill:#b5b5b5;}.cls-62{fill:#dfcdb2;}.cls-63{fill:#5f5f5f;}.cls-64{fill:#191919;}.cls-65{fill:#040404;}.cls-66{fill:#121212;}.cls-67{fill:#d1d1d1;}.cls-68{fill:#070707;}.cls-69{fill:#0c0c0c;}.cls-70{fill:#0a0a0a;}.cls-71{fill:#0d0d0d;}.cls-72{fill:#0f0f0f;}.cls-73{fill:#080808;}.cls-74{fill:#050505;}.cls-75{fill:#110c06;}.cls-76{fill:#f5ede2;}.cls-77{fill:#131313;}.cls-78{fill:#373737;}.cls-79{fill:#1b1b1b;}.cls-80{fill:#141414;}.cls-81{fill:#1a1a1a;}.cls-82{fill:#090500;}.cls-83{fill:#fc9700;}.cls-84{fill:#fb9600;}.cls-85{fill:#f69400;}.cls-86{fill:#dcdcdc;}.cls-87{fill:#fafafa;}.cls-88{fill:#f3f3f3;}.cls-89{font-size:48px;font-family:simpleshow;}.cls-90{text-decoration:underline;}.cls-91{letter-spacing:0.04em;}.cls-92{letter-spacing:-0.01em;}.cls-93{font-size:40px;}.cls-94{letter-spacing:0.02em;}.cls-95{letter-spacing:-0.08em;}.cls-96{letter-spacing:-0.02em;}.cls-97{letter-spacing:0.01em;}.cls-98{letter-spacing:-0.07em;}.cls-99{letter-spacing:-0.04em;}</style></defs><g id="Capa_2" data-name="Capa 2"><g id="feedback_overlay-box-large_Image" data-name="feedback_overlay-box-large Image"><path class="cls-1" d="M566.13,838.2H415.42q-170.87,0-341.73-.07c-4.15,0-8.3-.29-12.45-.47C48.47,837.1,41.87,827.3,40,818.75a79.55,79.55,0,0,1-1.77-17.14q0-54.72,0-109.43,0-73.2,0-146.39,0-120.7-.1-241.42,0-133.18.1-266.38A85.19,85.19,0,0,1,40,19.89a25.4,25.4,0,0,1,3.6-8.82A22.25,22.25,0,0,1,61.51.61C66.77.29,72,0,77.31,0Q241.22,0,405.12,0q323.75,0,647.47,0c5.91,0,11.83.26,17.73.58,12.07.65,19.3,9,21.62,18.61a73,73,0,0,1,1.87,17.12q0,51.6,0,103.2,0,73.18,0,146.38,0,119,.1,238.06,0,138-.1,276a89.7,89.7,0,0,1-1.73,18.58,26.12,26.12,0,0,1-5,10.77,20.18,20.18,0,0,1-13.21,8,88.36,88.36,0,0,1-9.06.81c-2.71.13-5.44,0-8.16,0H566.13Z"/><path class="cls-2" d="M565.8,832c-18.72,0-37.44,0-56.16,0-23.84.06-47.67.26-71.51.25q-182.85-.12-365.72-.33c-3.36,0-6.72-.14-10.08-.17-6.76-.08-11.47-3.43-14.61-9.22a25.47,25.47,0,0,1-2.83-10.59c-.29-4.46-.48-8.94-.48-13.42q-.06-120.71,0-241.42-.09-127.43-.3-254.85,0-132,.34-264c0-5.59,0-11.2,1.27-16.7a20,20,0,0,1,5.61-10.4,16.31,16.31,0,0,1,9.86-4.39c7.65-.86,15.31-.7,23-.71L404.72,6q323,0,646,0c6.88,0,13.74.19,20.59.83,6.38.6,10.52,4.26,13.3,9.71a25.24,25.24,0,0,1,2.54,10.17c.24,4.47.46,9,.46,13.42q0,117.82,0,235.66c.06,83.35.3,166.7.29,250.05q0,137.26-.33,274.53a80.42,80.42,0,0,1-1.22,16.24,21.54,21.54,0,0,1-3,7.51c-3.12,4.7-7.41,7.43-13.16,7.58-3.83.09-7.67.18-11.51.18H565.8Z"/><path class="cls-3" d="M566,826.43q-26.88,0-53.75,0-48.24,0-96.47-.07-168.45.07-336.91.17c-5.43,0-10.87-.23-16.3-.26-4.91,0-8.19-2.49-10.11-6.75a21.89,21.89,0,0,1-1.81-6.42,107.78,107.78,0,0,1-.81-12.43c0-85.43-.38-170.86.05-256.29.39-77.11.22-154.22.24-231.33,0-91.18-.22-182.37-.29-273.56a121.42,121.42,0,0,1,.79-13.87,23.68,23.68,0,0,1,2.14-7.3,10.31,10.31,0,0,1,9.53-6.2c2.87-.08,5.76,0,8.64,0q167.49,0,335-.07,45.6,0,91.19.06L1054.36,12c4.79,0,9.59.08,14.39,0,6.43-.06,9.78,3.66,11.49,8.4a20.22,20.22,0,0,1,1.18,5.13c.37,4.45.76,8.93.76,13.39q.08,123.83,0,247.65c-.06,79.67-.64,159.34-.27,239,.42,90.07.08,180.14.24,270.2,0,5.43-.27,10.87-.73,16.28a24.13,24.13,0,0,1-1.9,7.37c-1.86,4.29-5.18,6.75-10.09,6.77s-9.91.26-14.86.26q-165.1,0-330.2,0H566Z"/><path d="M591.57,379.57c-1.5-.29-2.71-.63-3.94-.74a7.44,7.44,0,0,1-5.57-3.32c-.17-.22-.32-.76-.24-.82a1.74,1.74,0,0,1,1.11-.45c3.41.74,6.67-.12,9.89-1A41.83,41.83,0,0,0,604.61,368c3.63-2.33,7.25-4.68,10.92-6.95,6.06-3.75,12.55-6.47,19.71-6.92a30.13,30.13,0,0,1,25,9.87,14.34,14.34,0,0,1,1.66,2.34c.42.67.74,1.41,1.23,2.36,1-.25,2-.54,3.06-.77,12.23-2.81,22.76.45,31.76,9a14.2,14.2,0,0,1,2.77,3.86,2.85,2.85,0,0,0,3.09,1.65c1.44-.07,2.88,0,4.32,0H955.74a26.91,26.91,0,0,1,4.31.06,14.62,14.62,0,0,1,4,1.39,2,2,0,0,1,1.08,2.4,12.09,12.09,0,0,0-.36,2.81q0,75.59,0,151.17,0,51.82,0,103.66c0,1.44.08,2.89-.06,4.31a6.57,6.57,0,0,1-.8,2.69q-4.53,7.62-9.2,15.14c-10.77,17.4-21.49,34.83-33.51,51.42-3.33,4.59-7.47,6.41-13,6.4q-61.68-.11-123.34,0h-501a51.25,51.25,0,0,1-5.26-.14,3.94,3.94,0,0,1-3.5-2.83,19.12,19.12,0,0,1-.89-6.62q-.06-20.14-.12-40.31c0-5,.13-9.89-.61-14.83a68.67,68.67,0,0,1-.26-8.62,1.35,1.35,0,0,0-1.46-1.48c-1.28,0-2.56,0-3.84,0l-54.23-.09a35.42,35.42,0,0,1-5.25-.32c-2.54-.38-3.3-1.28-3.45-3.79-.08-1.27,0-2.56,0-3.84q0-22.31,0-44.63c0-2.19.37-4.43-.94-6.52a3.67,3.67,0,0,1,.12-2.75,17.21,17.21,0,0,0,.85-6.12q0-29.28,0-58.55c0-.8,0-1.6,0-2.4-.07-2-.22-2.19-2.27-2.2-6.07,0-12.15,0-18.23,0-10.08,0-20.16-.17-30.23-.12a21,21,0,0,1-8.35-1.82c-5.29-2.24-8.09-6.62-8.08-12.43q.06-49.67.11-99.34,0-14.64-.11-29.27c0-6.11,2.73-10.39,8.28-12.77a19.74,19.74,0,0,1,7.88-1.69c8.64,0,17.28-.14,25.91-.15q77.51,0,155,0c3.36,0,6.72.23,10.07.14a18.87,18.87,0,0,1,8.32,1.88,12.8,12.8,0,0,1,7.83,13.07c0,.64-.2,1.27-.21,1.91,0,5.81-.63,5.24,5,5.24H584.7a9.88,9.88,0,0,1,1.44,0C588.49,382.82,590,381.64,591.57,379.57Z"/><path class="cls-4" d="M58.11,420q0-57.84,0-115.67.07-100.79.22-201.57c0-19.36.42-38.71.66-58.07a21.93,21.93,0,0,1,.35-4.29,2.85,2.85,0,0,1,1.51-1.57c.75-.35,1.77.56,1.91,1.67a38.5,38.5,0,0,1,.3,4.3c.2,12,.48,24,.52,36q.2,56.63.23,113.26.13,165.11.17,330.2c-.06,72.63-.49,145.26-.76,217.89q-.11,26.16-.29,52.31c0,3,.11,6.1-1.3,8.92a1,1,0,0,1-.75.41c-.2,0-.47-.26-.61-.48a2.31,2.31,0,0,1-.31-.89,44.13,44.13,0,0,1-.78-5.67c-.13-6.72-.11-13.44-.15-20.15-.1-15.68-.23-31.36-.28-47q-.3-92.38-.54-184.77c-.09-41.59,0-83.19,0-124.78Z"/><path class="cls-5" d="M273.69,805H458c2.39,0,4.81-.23,7,1,.42.22.87.4,1.28.64a1.71,1.71,0,0,1,.07,3.07,24.49,24.49,0,0,1-5,1.58,19.55,19.55,0,0,1-3.83.06q-122.61,0-245.23,0c-37.91,0-75.83-.21-113.74-.34-3.84,0-7.67-.14-11.51-.24a16,16,0,0,1-2.39-.2,2.35,2.35,0,0,1-.1-4.66c1.75-.17,3.51-.27,5.27-.28q14.16-.12,28.31-.17,40.8-.1,81.59-.18,36.94,0,73.9,0Z"/><path class="cls-6" d="M582,31.81q-83.24,0-166.46,0a36.42,36.42,0,0,1-6.16-.6,2.22,2.22,0,0,1-1.65-2.13,2.7,2.7,0,0,1,1.59-2.7,9.78,9.78,0,0,1,2.32-.54c1.27-.12,2.56-.12,3.83-.12q35-.06,70-.11,120.42,0,240.82,0c5.76,0,11.52,0,17.27-.06a85.88,85.88,0,0,1,17.17,1.36c1.41.26,2.88.16,4.28.45a1.8,1.8,0,0,1,1.13,1.31A1.75,1.75,0,0,1,765.11,30c-5.89.47-11.65,1.87-17.6,1.87q-82.75-.09-165.51,0Z"/><path class="cls-5" d="M1070,132.31v83c0,1.28,0,2.56,0,3.83a3.38,3.38,0,0,1-.49,1.81,6.42,6.42,0,0,1-2.11,1.77c-.69.34-2.09-.74-2.5-1.85a8.31,8.31,0,0,1-.46-2.32c-.08-1.11,0-2.24,0-3.35q0-68.16,0-136.3c0-9.28.26-18.55.36-27.83a20.53,20.53,0,0,0-.25-3.32c-.36-2.36-.81-4.72-1.2-7.08a16.13,16.13,0,0,0-3.81-8.64,6.35,6.35,0,0,0-5.06-2.12c-15.84.08-31.67,0-47.51,0a16,16,0,0,1-3.31-.35A2.39,2.39,0,0,1,1002,27a2.22,2.22,0,0,1,1.83-2,17.71,17.71,0,0,1,3.33-.31c15.19-.09,30.39-.19,45.59-.19a27.88,27.88,0,0,1,6.13.87c2.28.53,3.86,2.21,5.25,4a22.9,22.9,0,0,1,3.93,8.67c.44,1.69,1,3.34,1.37,5.05a30.47,30.47,0,0,1,.51,5.22Q1070,61,1070,73.76q0,29.28,0,58.55Z"/><path d="M1067.25,361.27V464.91c0,1.12,0,2.24-.06,3.36a3.73,3.73,0,0,1-.34,1.86,19.41,19.41,0,0,1-2.23,2.31,10,10,0,0,1-2.11-2.44,9.19,9.19,0,0,1-.34-3.3c-.07-5.12-.14-10.24-.14-15.35q0-72.71,0-145.39c0-15.68.16-31.35.3-47a39.07,39.07,0,0,1,.5-5.71,1.9,1.9,0,0,1,2-1.66,2,2,0,0,1,2,1.77,29.26,29.26,0,0,1,.29,4.29c.09,14.55.19,29.11.21,43.66q0,30,0,60Z"/><path class="cls-7" d="M1020.56,81.83c-3.75,3.57-7.37,7-10.91,10.41a6.61,6.61,0,0,1-5.07,2.27,1.94,1.94,0,0,1-1.81-2.33,6.21,6.21,0,0,1,1-2.13c1.68-2.13,3.37-4.26,5.2-6.27,2.13-2.35,4.4-4.58,6.79-7-1.56-1.6-2.92-2.93-4.2-4.34-2.15-2.37-4.31-4.73-6.32-7.22a19.14,19.14,0,0,1-2.38-4.12,1.88,1.88,0,0,1,.41-1.68A1.91,1.91,0,0,1,1005,59a18.05,18.05,0,0,1,4.12,2.36c2.71,2.24,5.27,4.65,7.89,7,1.18,1.06,2.35,2.14,3.71,3.38,1.16-1,2.24-1.9,3.29-2.85,2.74-2.45,5.4-5,8.23-7.34a21,21,0,0,1,4.52-2.59c.41-.19,1.21.2,1.7.52a1.21,1.21,0,0,1,.3,1.71,33.27,33.27,0,0,1-2.77,4.46c-2.13,2.59-4.44,5-6.7,7.52-1.06,1.17-2.16,2.29-3.4,3.62,2.35,2.44,4.61,4.68,6.76,7,1.71,1.88,3.31,3.88,4.92,5.87a9.2,9.2,0,0,1,1.19,2.06,2,2,0,0,1-1.76,2.74,6.4,6.4,0,0,1-5.07-2.23c-3.2-3.13-6.49-6.17-9.75-9.23C1021.8,82.71,1021.39,82.45,1020.56,81.83Z"/><path class="cls-1" d="M776.31,535a30.57,30.57,0,0,0-1.8-3.84c-2.82-4.42-10.12-4.25-12.74.29a7.08,7.08,0,0,0-.77,2.68c-.14,1.24-.06,2.51-.08,3.77-5.22,4-10.94,2.59-16.61,1.49-.62-.12-.83-.87-.73-1.56,1-4.18,2-8.37,3.07-12.55a1.91,1.91,0,0,1,2.07-1.59c1,0,1.92,0,2.88,0q33.36,0,66.72.1l93.58.27c2.88,0,5.78.13,8.41-1.37.41-.23.85-.44,1.24-.7a1.21,1.21,0,0,0-.14-2,14,14,0,0,0-6.33-2c-1,0-1.92,0-2.88,0L773,518.32c-7.2,0-14.4.08-21.6.1a25.07,25.07,0,0,1-2.59-.26c.31-1.58.57-3,.86-4.33.7-3.28,1.49-6.54,2.1-9.84a21.09,21.09,0,0,0-2-13.51,58.88,58.88,0,0,0-3.08-5.41c-3.09-4.89-7.63-7.57-13.24-8.65a56.68,56.68,0,0,0-13.39-.61q-14.61.68-29.22,1.5c-2.71.16-5.4.54-8.11.79a7.45,7.45,0,0,1-1.54-.23c.25-.86.44-1.61.69-2.35A60.48,60.48,0,0,1,690.39,460a3.34,3.34,0,0,1,3.18-1.66c1.27.09,2.56,0,3.84,0q71.51,0,143-.05c26.55,0,53.11-.18,79.67-.29a57.58,57.58,0,0,0,6.7-.31,83.1,83.1,0,0,1,14.37-.22,13.56,13.56,0,0,0,2.85,0,3.33,3.33,0,0,0,2.67-3,3.66,3.66,0,0,0-2.49-3.67,6.3,6.3,0,0,0-1.89-.19c-7,.31-14,.66-21.07,1-1.44.07-2.88.13-4.32.12q-109.18-.12-218.37-.27c-1.25,0-2.51-.09-3.89-.15-.17-3-.33-5.84-.51-9a38.6,38.6,0,0,0,4.53-.65c2.15-.57,2.47-1.5,1.3-3a17.08,17.08,0,0,1-3.32-12.21A118.86,118.86,0,0,1,698,414.52c1.47-8.27.86-16.24-2.71-23.91a7.8,7.8,0,0,1-.34-1.42c1.78-.65,3.55-.34,5.26-.34q64.32,0,128.63,0h124.3c1.44,0,2.88,0,4.32.07s1.26,1.14,1.11,2.12c-1,7.31-1,7.29-8.8,7.29H839c-3.34,0-6.71-.14-10.28,1.44,1.56,1.63,3.32,1.21,4.88,1.27,39.15,1.55,78.31.83,117.47,1,1.28,0,2.56,0,3.84,0,2.33,0,3.6.82,3.31,3.4-.36,3.14.59,6.36-.53,9.47a37.41,37.41,0,0,1-3.78.44c-6.4.12-12.8.17-19.2.24a7.58,7.58,0,0,1-2.38,0c-3.28-1.13-6.65-.72-10-.72-29.43.06-58.87.07-88.31.27-15.51.11-31,.24-46.53,1-20.3,1-40.61,1.16-60.92,1.62a41,41,0,0,0-4.27.38.82.82,0,0,0-.51.64c0,.41.22,1.1.46,1.15a19.89,19.89,0,0,0,3.76.51c7,.12,14.08.19,21.12.26,17.76.15,35.49,1.13,53.23,1.76,11.83.43,23.67.39,35.51.45q44.4.21,88.79.29c2.38,0,4.75-.43,7.13-.65,1-.08,1.9-.19,2.86-.18q10.32.1,20.63.25a13.57,13.57,0,0,1,1.91.18,1.54,1.54,0,0,1,1.4,1.63c0,.95,0,1.91,0,2.87l0,45.6c0,1,0,1.92,0,2.88a1.42,1.42,0,0,1-1.55,1.43c-1.28,0-2.56,0-3.84,0-26.08.05-52.16.05-78.23.15q-32.64.14-65.28.45c-10.87.12-21.74.49-32.62.78a25.46,25.46,0,0,0-3.8.36c-1,.18-1.93,1.29-1.62,2a3.62,3.62,0,0,0,1.48,1.68,5.58,5.58,0,0,0,2.33.38c2.56.12,5.12.19,7.67.26,47.67,1.19,95.34,1,143,1.07,9.44,0,18.88.06,28.31.09a13.69,13.69,0,0,1,2.87.12,2.09,2.09,0,0,1,1.18,1.19,5.19,5.19,0,0,1,.12,1.9c-.09,3.81-.2,7.62-.3,11.43-3.7,1.43-7.53.43-11.3.62-4.14.2-8.3,0-12.45.05l-58.55.53c-2.4,0-4.8,0-7.2.08a17.16,17.16,0,0,0-2.87.19,3.62,3.62,0,0,0-2.8,3.44,3.44,3.44,0,0,0,2.94,3.28,21.06,21.06,0,0,0,2.87.14q31,.28,61.91.53c7.51,0,15-.11,22.53-.17q1.68,0,3.36,0c1.09,0,1.83.45,1.84,1.67,0,.64,0,1.28,0,1.92,0,21.6,0,43.2,0,64.79a8.11,8.11,0,0,1-2.29,6c-4.08,4.28-8,8.78-12.28,12.79-4.68,4.35-9.82,8.2-14.68,12.37a7.18,7.18,0,0,1-4.75,1.86c-2.08,0-4.15.26-6.23.27l-124.78.43c-1.92,0-3.84.07-5.76.17a5.55,5.55,0,0,0-1.85.38,1.68,1.68,0,0,0-1.12,1.9,2.39,2.39,0,0,0,1,1.47,5.53,5.53,0,0,0,2.29.53c2.23.13,4.47.22,6.71.23l119,.32c1.12,0,2.24,0,3.36.05a.87.87,0,0,1,.62.53,1,1,0,0,1-.29.8c-1.25,1-2.51,2-3.83,2.88-10.78,7.19-21.44,14.54-32.38,21.46-13.38,8.46-27.22,16.15-41.25,23.49a17.11,17.11,0,0,1-8.21,2.1q-61.91-.11-123.83,0c-1.27,0-2.56,0-3.83-.1a1,1,0,0,1-.91-1.36c1.41-6,2.86-12.05,4.25-17.86,1.15-.56,1.44.17,1.77.64a11.59,11.59,0,0,0,9.8,5.17,13.32,13.32,0,0,1,7.1,2.25,25.11,25.11,0,0,0,6.16,2.58c4.93,1.39,9.47.67,13.46-2.82a56.15,56.15,0,0,0,10-11.56c1.3-2,2.59-4,3.88-6,2.54-.11,5.08-.3,7.62-.3q35.52,0,71,0a33.31,33.31,0,0,0,4.79-.18c2.38-.34,4.17-1.87,4.2-3.33s-1.69-3-4.15-3.31a51.51,51.51,0,0,0-6.22-.3q-34.56,0-69.11,0c-4.52,0-4.94.39-2.7-4.22a19.37,19.37,0,0,0,1-2.19c.71-2.06,1.58-3.61,4.21-3.86,2.18-.2,3.57-2.1,4.28-4.14a29.75,29.75,0,0,0,1.52-6c.66-5.07,1.21-10.17,1.58-15.27a3.08,3.08,0,0,1,2.48-3c2.86-1,5.71-2.06,8.57-3.09a13.56,13.56,0,0,0,9-9.81c1.5-5.57,2.91-11.14,1.83-17a5.27,5.27,0,0,1,.6-3.19c1.92-3.64.9-6.8-1.32-9.82-.56-.77-1.19-1.5-1.79-2.24.94-3.55,4-2.6,6.24-2.63,14.24-.15,28.48-.06,42.72-.08a23.11,23.11,0,0,0,5.25-.34c1-.22,2-.58,1.85-1.78-.09-.88-1-1.14-1.8-1.3a26.45,26.45,0,0,0-5.26-.28c-16.32,0-32.64-.21-49,.1-5.92.11-11.7-1.65-17.64-.74C776.86,539.21,776.92,536.72,776.31,535Z"/><path class="cls-1" d="M379.83,602.88q-51.33,0-102.66,0c-5.43,0-10.87.13-16.3.35-3.11.12-6-.77-8.9-1.57a9.75,9.75,0,0,1-6.17-5,5.22,5.22,0,0,1-.7-4.52c.5-1.44.25-3.16.26-4.76q0-32.61,0-65.24c0-4.73-.29-4.36,4.43-4.37q41.25,0,82.51,0c4.32,0,8.64-.2,13-.13a18.73,18.73,0,0,0,8.72-2.26c4.92-2.47,7.16-6.71,7.15-12.1,0-10.22-.23-20.45-.25-30.68,0-16.95,0-33.9,0-50.85,0-1.28,0-2.56.06-3.84a1.49,1.49,0,0,1,1.54-1.49c1.11-.06,2.23,0,3.35,0q60,0,119.94-.07c4.47,0,8.94-.16,13.41-.33,3.1-.11,6,.8,8.88,1.65a9.61,9.61,0,0,1,5.56,4.33c1,1.65,1.82,3.29,1,5.4a10.79,10.79,0,0,0-.25,3.79q0,78.44,0,156.88a10.55,10.55,0,0,0,.24,3.79c.93,2.32-.08,4.06-1.22,5.8-1.57,2.39-3.95,3.61-6.61,4.46-4,1.29-8.18,1.22-12.33,1.1-2.4-.06-4.79-.27-7.18-.27Q433.57,602.86,379.83,602.88Z"/><path class="cls-1" d="M513.33,624.49c-.31.89-.55,1.81-.93,2.67-.95,2.15-2.59,2.83-5,2.82-17.12-.09-34.23-.05-51.35,0q-47,.06-94.07.13c-8.31,0-16.63.11-24.95.18a30.51,30.51,0,0,0-3.83.17c-2.09.27-3.24,1.35-3.28,2.87s1.15,2.66,3.2,2.89c1.11.12,2.24.1,3.35.11,12,.1,24,.27,36,.28q64.06.06,128.14,0h5c1,1.22.22,2.06.09,2.91a42.06,42.06,0,0,0,1,17.12,18.15,18.15,0,0,0,1.42,3.55c.55,1.09,1.3,2.08,2.23,3.52-1.74.09-3.1.21-4.46.21l-70.55.37a53.64,53.64,0,0,1-9.55-.48,44.41,44.41,0,0,0-7.66-.25q-66,0-132,.09c-6.56,0-5.72,1-5.79-5.9a27.54,27.54,0,0,0-.72-7.61c-.34-1.13,0-2.48.16-3.73a3.22,3.22,0,0,0-2.84-3.74,28.74,28.74,0,0,0-3.83-.1q-28.32.07-56.63.15c-6,0-5.22.64-5.28-5.45,0-.8,0-1.6,0-2.4.08-1.84.38-2.2,2.29-2.21,6.56,0,13.12,0,19.68,0,19.68,0,39.35.1,59,.07a59.52,59.52,0,0,0,7.14-.71,8,8,0,0,0,4.82-2.33,9.75,9.75,0,0,0-6.25-2.55c-2.54-.25-5.1-.4-7.66-.4q-35.74.09-71.5.24h-3.36c-4.14,0-4.22.29-4.21-4.17q0-19.2,0-38.4a12.18,12.18,0,0,1,.8-5.16c7.36-16.35,16.55-31.68,25.88-46.87,1.36.21,1.1,1.15,1.1,1.86q.06,9.6.06,19.2c0,9.12.06,18.24,0,27.35,0,3.2-.12,6.4-.25,9.59A16.67,16.67,0,0,0,249.54,607a29.08,29.08,0,0,0,11.21,2c19.68,0,39.35.17,59,.18q84.47,0,168.93,0c4,0,8-.3,12-.15a23,23,0,0,0,10.61-2.53c6.44-3,9.64-8.19,9.63-15.26q0-42-.13-84c0-3.15.05-3.17,3.19-3.13,7,.1,14.07.23,21.11.31a11.82,11.82,0,0,0,3.31-.31,3.41,3.41,0,0,0,2.26-3.35,3.29,3.29,0,0,0-2.61-3,21,21,0,0,0-3.81-.17c-7,.07-14.07.18-21.11.23-2.22,0-2.28-.11-2.34-2.53,0-.8,0-1.6,0-2.4q0-28.56,0-57.11c0-1.75.13-3.51.2-5.26,1.28-2.41,3.61-2.41,5.84-2.43,10.07-.1,20.14-.14,30.2,0,5.24.07,5.57.6,5.66,5.86,0,2.06-.41,4.15.38,6.17,1.55,3.63,3.11,7.26,4.78,11.14-.24.74-1.15.46-1.87.49l-29.69,1a10.42,10.42,0,0,0-2.79.43,2,2,0,0,0-1.4,2.23,2.08,2.08,0,0,0,1.82,1.93,15.18,15.18,0,0,0,1.91.09q13.89.41,27.78.79c2.72.08,5.43.05,8.15.13,1.71,0,2.3.64,2.23,2.34a13.43,13.43,0,0,1-.5,3.29c-.48,1.63-1.43,2-3.22,1.5-.61-.17-1.23-.3-1.84-.45-1.09-.27-1.35.49-1.57,1.28a3.73,3.73,0,0,0,1.22,3.9c2.39,2.2,5,4,8.49,3.69a7.46,7.46,0,0,1,1-.06c.14,0,.27.13.74.36-.14,1.53-.37,3.22-.41,4.92s.19,3.18.18,4.77a1.5,1.5,0,0,1-.79,1,11.25,11.25,0,0,1-1.87.36A16.54,16.54,0,0,0,565,492.39a35.56,35.56,0,0,0-4.73,10.42c-1.32,4.6-2.5,9.24-3.76,13.86-.54,2-.61,2.1-2.51,2.12-5.43.07-10.86.06-16.29.14a12.71,12.71,0,0,0-3.76.45,2.28,2.28,0,0,0-1.29,1.73,2.25,2.25,0,0,0,1.41,1.63,22.87,22.87,0,0,0,4.75.5c4.63.08,9.26.06,13.9.11,1.65,0,2,.48,1.64,2-2,7.57-4.12,15.09-6,22.67-4.13,16.41-8.45,32.77-11.6,49.4-.35,1.87-.93,3.88-.58,5.67.53,2.67-.61,4.23-2.34,5.79-.71.63-1.76,1.31-1.89,2.1-.42,2.52-2.19,2.68-4.13,3a37.74,37.74,0,0,0-5,1.63c-9.68,2.56-19.66,2.36-29.49,2.39-74.72.22-149.44.12-224.15.14-2.47,0-5-.33-8.49.94a24.72,24.72,0,0,0,8,.73l234.72,0a41,41,0,0,1,7.18.28C513,620.6,514.36,621.8,513.33,624.49Z"/><path class="cls-1" d="M569.37,714.39h-4.75l-277.9,0c-5.38,0-4.92.59-4.93-4.81q-.06-18.72-.11-37.44a9.4,9.4,0,0,1,.08-2.38,2.07,2.07,0,0,1,1.16-1.18,6.06,6.06,0,0,1,1.91-.06q65.51,0,131,.11c1.74,0,3.47.35,5.22.48,1.59.12,3.18.25,4.78.25q47.52.11,95,.18c4.32,0,8.64-.25,13-.26,2,0,4-.07,5.53,1.95,1.24,1.66,3.4,1.53,5.34,1.57,3.19.06,6.39.12,9.58.2a71.82,71.82,0,0,1,13.75,2,18.27,18.27,0,0,1,7.76,3.55,31.22,31.22,0,0,0,4.37,2.94,13,13,0,0,0,9.67,1.62c2.94-.73,6-1.15,9-1.66,1.73-.29,3.48-.53,5.22-.69a12.8,12.8,0,0,1,7.4,1.49,53.3,53.3,0,0,0,7.07,2.91,8.29,8.29,0,0,0,7-.57,37.25,37.25,0,0,0,4.94-3c2.9-2.18,5.17-4.8,4.84-8.81,0-.27.26-.56.46-1h234c.4,1.37-.68,1.34-1.29,1.6-9.1,3.91-18.33,7.54-27.3,11.73-19.25,9-38.37,18.27-57.55,27.43a15.62,15.62,0,0,1-3,1.39,5.67,5.67,0,0,1-3.27-.06c-.68-.28-1.08-1.43-1.43-2.27a21.14,21.14,0,0,0-6.49-8.19c-2-1.6-4-3.21-6-4.75a6.54,6.54,0,0,0-1.74-.7l-19.87-7c1.55-1.47,3.51-1.78,5.25-2.53,3.37-1.45,6.82-2.74,10.15-4.27a13.31,13.31,0,0,0,3.42-2.53,2,2,0,0,0,.13-1.76,1.88,1.88,0,0,0-1.45-1,18.78,18.78,0,0,0-4.58,1.16c-5.56,2.44-11.09,4.94-16.57,7.56a12.39,12.39,0,0,1-8.26,1c-24.62-4.9-49.53-5.79-74.52-4.64a252.24,252.24,0,0,0-43.26,5.51c-7.49,1.66-14.94,3.56-22,6.67a88.72,88.72,0,0,0-11,5.82A20.3,20.3,0,0,0,570.16,713,8.48,8.48,0,0,1,569.37,714.39Z"/><path class="cls-8" d="M355.82,370.81a4.59,4.59,0,0,1,.61,1.67c-.08,1.9-.46,3.79-.47,5.68-.07,8.95,0,17.9-.07,26.85a23.12,23.12,0,0,1-.17,3.82,1.75,1.75,0,0,1-1.23,1.11,36.38,36.38,0,0,1-4.31.12q-39.07,0-78.15.05c-5,0-9.91.08-14.86.3A21.18,21.18,0,0,0,244.83,415a15.75,15.75,0,0,0-6,13q0,40.28.18,80.54c0,4.45-.1,4.23-4.18,4.23q-28.53,0-57.06,0c-6.87,0-13.74.06-20.61.25a27.88,27.88,0,0,1-9-1.22,12.87,12.87,0,0,1-2.75-1.7,49.19,49.19,0,0,1-.49-6.19c-.52-25.42.35-50.82,1.16-76.21.56-17.22,1.24-34.47,2.74-51.66.35-4,2.2-5.74,6.07-5.76,2.08,0,4.15,0,6.23,0q94,0,188,0A31,31,0,0,1,355.82,370.81Z"/><path class="cls-8" d="M296.06,512.79h-44.6c-1.28,0-2.56,0-3.83,0-1.89-.07-2.14-.33-2.21-2.29,0-1.28,0-2.56,0-3.84q0-37.39,0-74.8a15,15,0,0,0-.16-4.3c-1-3.28.58-5.53,2.64-7.63a11.89,11.89,0,0,1,5.45-2.85,36.93,36.93,0,0,1,12.34-1c2.07.12,4.14.24,6.22.24l78.64,0c6,0,5.39-.56,5.39,5.38q0,38.84.06,77.68a17.57,17.57,0,0,0,.12,4.3,5.45,5.45,0,0,1-.62,4.55,7.9,7.9,0,0,1-4.41,3.52,22.42,22.42,0,0,1-7.51,1.3c-3.35-.17-6.71-.23-10.06-.24q-18.7,0-37.4,0Z"/><path class="cls-9" d="M672.43,600.74a4.84,4.84,0,0,0-1.34.47c-1.05.74-1.31,1.65-.61,2.39a23.88,23.88,0,0,0,2.88,2.43c1,.75,2.06,1.41,3.06,2.09-1.92,2-3.7,3.83-5.39,5.71-1.93,2.14-3.74,4.39-4.52,7.24a1.72,1.72,0,0,0,.38,1.16c.07.1.66,0,.85-.16,1.64-1.51,3.26-3.05,4.84-4.61,1.82-1.79,3.56-3.66,5.41-5.42a11.07,11.07,0,0,1,2.2-1.22,13.12,13.12,0,0,1,0,2.71c-1.71,7.29-3.14,14.64-5.54,21.77C672.7,641,671.46,647,670,652.86c-.52,2-.85,4.06-1.36,6.07-.58,2.31-1.47,4.59.36,7.31h-4.58c-9.9.1-19.79.15-29.69.34a7.05,7.05,0,0,1-5.55-2c-3-2.9-6.16-5.56-9.29-8.28-2.8-2.45-5.8-4.51-9.64-4.93-.93-.1-1.46-.59-1.35-1.56.85-7.76,1.66-15.53,4.18-23,1.84-2.5,2.43-5.58,3.84-8.29l0,.07c.56-.44.54-1.17.89-1.71,1-2.15,2.17-4.27,3.14-6.45,2.58-5.84,5.08-11.72,7.67-17.56.61-1.38.81-3,2.61-4.39-.28,5.31.88,9.9,1.82,14.56a22.53,22.53,0,0,1-1.27,13.64c-1.64,3.82-3.27,7.65-4.74,11.53-1,2.68-1.81,5.46-2.61,8.21a11.38,11.38,0,0,1-1.82,4.35,2.51,2.51,0,0,0,.06,3.5,3.05,3.05,0,0,0,3.89.77,10.94,10.94,0,0,0,2.07-1.2c1.1-.81,1.94-2,1.36-3.28-.74-1.72-.06-3.12.46-4.6,1.55-4.37,3.09-8.74,4.68-13.1a32.87,32.87,0,0,0,1.21-19.78c-.44-1.7-.81-3.42-1.14-5.15a36.09,36.09,0,0,1,.81-16.62c.65-2.3,1.07-4.67,1.8-6.95a14.33,14.33,0,0,1,1.92-3.78,61,61,0,0,1,20.62-18.33c6-3.38,12-6.62,18.73-8.41a29.12,29.12,0,0,0,9.44,6c1.27.52,2.77.84,3.28,2.42-1.64,1.9-3.35,3.75-4.89,5.72a13.43,13.43,0,0,0-3.06,7.3,8.71,8.71,0,0,0,.19,2.33c.26,1.22,1.12.7,1.83.54a10.63,10.63,0,0,0,5.22-2.26c3.13-2.46,5.83-1.65,8.53.81a53.56,53.56,0,0,1,7.57,9.21c4.22,6,8.25,12.16,13.33,17.51.76.8,1.51,1.69,1.19,3l-.6.68c-2.15,2.33-2.15,2.46-.16,5.3,0,2.45-2.11,3.74-3.11,5.64-.87,1.63-2.42,3-2.1,5.08l-.82,3.49a13.09,13.09,0,0,0,4.26-2.72,65.58,65.58,0,0,1,11.89-8,35.32,35.32,0,0,1,4-1.65c1.13-.4,1.55,0,1.94,1.32a5.22,5.22,0,0,1-.87,4.91c-2.1,3-3.91,6.22-5.78,9.38a6.78,6.78,0,0,1-2.54,2.7c-6.33,3.71-9.83,9.4-11.07,16.55-.17.94-.18,1.92-.38,2.85s.36,2.22-.9,2.26c-.56,0-1.2-1.27-1.73-2a7,7,0,0,1-.69-6.79,33.85,33.85,0,0,1,7.84-13c1-1,2.09-2,3.05-3,.21-.24.13-.85,0-1.23-.06-.18-.54-.31-.83-.32a11.65,11.65,0,0,0-1.43.12c-7.59,1.23-10.85,7.28-14.42,13-.9,1.44-.94,3.47-2.85,4.23a1.85,1.85,0,0,1-1-2c0-1.57.13-3.14.18-4.72a9.45,9.45,0,0,0-2.9-7.21c-1.76-1.78-3.4-3.67-5.09-5.51a11.16,11.16,0,0,0-.91-.91l.08.1c-3.16-4.57-6.13-9.3-11.07-12.31-3.78-2.31-7.7-3.53-11.11-2.86-.39.18.21.17.73.67s-.32-.16-.09.43C673.2,600.88,672.79,601,672.43,600.74Z"/><path class="cls-1" d="M652.46,452.34a21.15,21.15,0,0,0,4,2.54,15.78,15.78,0,0,1,5.16,3.46c-.7,1.1-1.41,2.12-2,3.2a1,1,0,0,0,.39,1.6,1.38,1.38,0,0,0,1.24-.29c.9-.9,1.61-2,2.54-2.86,3-2.75,5-2.15,6.17,1.77,1.41,4.8.62,9.52-.67,14.18a28.33,28.33,0,0,1-2.31,5.75,6.28,6.28,0,0,1-6.26,3.56c-3.54-.14-4.3.61-5.39,4.07a18,18,0,0,1-.54,1.81,1.46,1.46,0,0,1-2.63.44,19.76,19.76,0,0,1-4.66-8.25c-.46-1.74-1.31-2.4-2.12-2-1.06.53-1,1.54-.93,2.46a16.53,16.53,0,0,0,5.24,10.49c.64.63,1.64,1.54,1.53,2.14a3.79,3.79,0,0,1-1.81,2.6c-2.79,1-4.23,3.36-6,5.33-5,5.44-9.79,11-14.71,16.46a20.69,20.69,0,0,1-2.82,2.55c-.83.65-1.55.34-2.15-.75-.23-.42-.3-1-.63-1.26s-1.14-.78-1.59-.66a2,2,0,0,0-1,1.36,4.82,4.82,0,0,0,.34,1.85c.16.64.26,1.27-.58,1.48a1.34,1.34,0,0,1-1.79-1,6,6,0,0,0-.55-1.82,2.16,2.16,0,0,0-1.46-1,2,2,0,0,0-1.38,1,6.14,6.14,0,0,0-.33,1.86c-.3,1.77-.31,1.77-2.95,1.83-.89-.79-.25-1.74-.26-2.63a9.79,9.79,0,0,0,0-2.36,2,2,0,0,0-1.14-1.32,1.94,1.94,0,0,0-1.6.67c-1.12,1.45-1.16,3.25-1.35,5-.09.78-.8.86-1.46.81-1-.07-1.54-.59-1.36-1.48.33-1.56.76-3.11,1-4.68a6.81,6.81,0,0,0,0-2.34,1.48,1.48,0,0,0-.91-.92,1.43,1.43,0,0,0-1.28.28,11.17,11.17,0,0,0-1.64,2.86c-.58,1.64-.93,3.36-1.41,5.21-.9-.34-1.65-.59-2.36-.91a1.27,1.27,0,0,1-.78-1.89c.6-1.31,1.17-2.63,1.72-4a8.91,8.91,0,0,0,.59-1.81,1.49,1.49,0,0,0-1.05-1.88,2.06,2.06,0,0,0-1.73.34c-1.1,1.32-2,2.79-3.27,4.58-2.33-6.11-4.66-11.82-6-17.82s-2.51-12.21-3.47-18.36a34.07,34.07,0,0,1,0-7.62c.18-2.55.71-5.07,1-7.61a40.86,40.86,0,0,0-.19-11.94,127.34,127.34,0,0,1-1.62-22,8.68,8.68,0,0,1,1-3.59c4.73-9.75,12.82-14.38,23.39-14.88,4.78-.22,9.59,0,14.38.11,5,.09,9.93.24,14.75-1.28,1.82-.57,3.62-1.22,5.81-1.95a10.33,10.33,0,0,1-.13,2.26c-1.82,6.2-1.33,12.34.43,18.43a15.92,15.92,0,0,0,1.62,4,14.66,14.66,0,0,1,2.3,6.19,9.53,9.53,0,0,0,3.09,5.81,1.43,1.43,0,0,0,.74.84l.06.07a2.9,2.9,0,0,0,.89.92l0,.05A2.53,2.53,0,0,0,652.46,452.34Z"/><path class="cls-9" d="M544.77,616.94c.51-.35,1.29-.61,1.45-1.08.34-1-.58-1.35-1.3-1.61a13.24,13.24,0,0,0-2.32-.54c-1.07-.17-2.15-.27-3.75-.47,1.28-1.65,2.58-2.82,3.22-4.28a25,25,0,0,0,1.09-5.1,11.83,11.83,0,0,1,3.21-2.77l1-.66a7.38,7.38,0,0,0,1-.81l.43-.48c.29-.34.6-.65.92-1a105.19,105.19,0,0,0,15.17-21.28c2.7-4.86,5.64-9.56,8.82-14.14,4-5.79,10-7.17,16.45-7.65a40.38,40.38,0,0,0,4.28,5.07,19.92,19.92,0,0,1,6.13,10.07,13.64,13.64,0,0,1,.31,1.41,51.13,51.13,0,0,0,6.41,18.44,5.26,5.26,0,0,1,.49,3.68,22.07,22.07,0,0,1-7,13.32,48.18,48.18,0,0,0-4.27,4.54,12.45,12.45,0,0,0-2.89,9.83c.22,1.58.36,3.18.49,4.77a18.54,18.54,0,0,1-1.09,8c-.78,2.1-1.5,4.21-2.18,6.35s-.78,4.35-3,5.73c-1,.61-.92,2-.41,3.09a2.89,2.89,0,0,0,3.16,1.66,9.67,9.67,0,0,0,3.1-1.16c1.29-.81,2.14-2.08,1.42-3.66a3.23,3.23,0,0,1,.54-3.53,26,26,0,0,0,4.28-21,9,9,0,0,1,1.31-6.88c.5-.81,1.05-1.6,1.61-2.37,2.76-3.74,5.55-7.45,6.66-12.1a.87.87,0,0,1,.69-.44.91.91,0,0,1,.65.51,20.19,20.19,0,0,1,1.16,10.34c-.79,4.88-1.46,9.77-3,14.5a107,107,0,0,0-4.83,22.45,15.46,15.46,0,0,0-.3,1.89c0,2.48-1.25,3.69-3.56,4.26-3.41.82-6.78,1.85-10.18,2.73a6.91,6.91,0,0,1-5.11-.51c-5.39-2.8-10.83-5.5-16.24-8.25a3,3,0,0,1-1.93-2.55,5,5,0,0,1,.95-4.07c4.33-6.74,6.86-14.37,10.56-21.44a39.62,39.62,0,0,0,4.56-22.66c-.39-3.91-.78-8-4.76-10.31-2.85-.53-3.84-.15-4.37,2a52.9,52.9,0,0,0-1,6.13c-.33,2.69-.66,5.39-.79,8.09a19.7,19.7,0,0,1-2.52,8.63c-1.08,1.94-1.86,4-2.85,6a12.29,12.29,0,0,1-1.36,1.88c-1.57-.16-2.44-1.41-3.55-2.28-1.54-1.2-3.07-1.75-4.62-.06-2,4.19,1.46,5.07,4,6.41,1.08.58,3.17,0,2.09,2.42l-.07.19c-.58.46-.34,1.29-.81,1.8-1.33,3.25-2.73,6.46-4,9.74-.64,1.68-2.4,2.61-3.49,1.34-2.31-2.68-5.57-3-8.55-4a13.82,13.82,0,0,0-9,0,5.55,5.55,0,0,1-2.3.45c-4-.48-7.13,1.38-10,3.87a16.06,16.06,0,0,0-3.49,20.06c.35.68.78,1.33,1.25,2.12-3.4-.23-3.4-.23-7.51-2.68-1.48-5.59,1.19-10.54,2.41-15.73.49-2.09,2.07-4.08.6-6.36-1.32-1.27-2.77,0-4.14-.19l.08.09a9.09,9.09,0,0,1,.64-2.13c1.16-1.88,2.43-3.68,3.65-5.52,5.09-5.41,11.79-7.75,18.68-9.61A37.94,37.94,0,0,0,544.77,616.94Z"/><path class="cls-1" d="M520.05,421.73c-2.67-6.34-8-9.27-14.22-11a13.08,13.08,0,0,0-3.32-.3c-5-.12-9.91-.28-14.86-.28q-45.81-.06-91.61-.05h-4.67c-.26-1.35.67-1.48,1.34-1.77,9.53-4.1,19.05-8.23,28.62-12.25,4.7-2,9.51-3.73,14.24-5.66a22.75,22.75,0,0,1,8.88-1.58q35.25.07,70.5,0h63.31c1.54,0,3.08.11,4.76.18a17,17,0,0,1-8.78,7.95c-1.88.87-3.81,1.63-5.68,2.51a1.33,1.33,0,0,0-.71,1,1.42,1.42,0,0,0,.83,1,13.06,13.06,0,0,0,8,0c-2.68,3.43-5.35,6.3-7.33,9.58s-3.39,7.18-5.05,10.79c-1.91,1.48-4.17,1.35-6.4,1.41-11,.3-22-.63-32.92.66C523,424.14,521.11,423.74,520.05,421.73Z"/><path class="cls-8" d="M706.2,558.05a81.78,81.78,0,0,1-4.89-7c-1.55-2.75-3.4-5-6.37-6.22a2.76,2.76,0,0,1-2.06-3.2c.39-5.31-2.71-8.79-7-11-5.38-2.81-11.15-3.87-17.18-2.15-.77.22-1.52.52-2.28.76a2,2,0,0,1-2.51-.82,8.39,8.39,0,0,1-.56-.77,11,11,0,0,0-9.94-6c.14-2.71.18-5.25.45-7.77.17-1.52-.54-3.61,1-4.39,1.08-.53,2.77.18,4.19.33a17.34,17.34,0,0,0,1.91.14c2.47,0,3.91-1.16,4.43-3.54.24-1.08.17-2.23.36-3.33a28.1,28.1,0,0,1,1-4.17c.78-2.22,1.09-2.22,3.56-1.94a54.2,54.2,0,0,0,7.63.48c2.64-.07,3.62-1.57,2.78-4.21a12.37,12.37,0,0,1-.41-5.19c5.66-3.87,12.1-2.4,18.15-2.06,5.54.31,11.18.31,16.66,1.59,6.44,1.5,8.71,4.09,8.72,10.62,0,8.54-1.7,16.86-4,25a284.67,284.67,0,0,1-11.05,31.67C708.27,556.15,707.75,557.52,706.2,558.05Z"/><path class="cls-3" d="M355.82,370.81a6.88,6.88,0,0,1-2,1,27.16,27.16,0,0,1-3.83.07q-97.14,0-194.28-.06c-5.56,0-5.26-.12-5.35,5.19a48.51,48.51,0,0,1-.68,8.56c-.53,2.79-.17,5.74-.32,8.61-.1,2.06-.43,4.1-.61,6.16-.12,1.27-.22,2.55-.24,3.82,0,4,0,8-.1,12,0,2.55.1,5.09-.66,7.61a14.21,14.21,0,0,0-.19,3.82c-.05,5.75-.05,11.51-.12,17.26,0,3.35.2,6.69-.69,10a16.61,16.61,0,0,0-.15,4.3c0,15.35-.06,30.7-.14,46,0,1.68.61,3.56-1,4.94a5.56,5.56,0,0,1-2.71-6.1,21.21,21.21,0,0,0,.13-3.83q0-61.19,0-122.38c0-1.28,0-2.56-.08-3.83-.21-3.82,1.37-6.52,4.9-7.78a20,20,0,0,1,7.52-1.35c3.35.15,6.71.24,10.06.24H334.18c3,0,6.08-.3,9.1-.17a36.89,36.89,0,0,1,7.08,1A6.94,6.94,0,0,1,355.82,370.81Z"/><path class="cls-1" d="M791.82,716.06c28.24-15.46,57.52-28.36,86.87-41.44a10.09,10.09,0,0,1,.25,1.5q0,19.18,0,38.36c0,1.06-.5,1.4-1.41,1.42s-1.6,0-2.4,0l-80.08.14Z"/><path class="cls-8" d="M579.67,494.43c.69,2.93,1.26,5.9,2.11,8.79,1.62,5.5,3.45,10.93,5.09,16.42a15.72,15.72,0,0,0,10.4,11c.75.26,1.46.61,2.43,1a20,20,0,0,1-1.76,1.72,13.11,13.11,0,0,0-4.75,6.45,4.2,4.2,0,0,1-2.91,2.82q-7.54,3-15,6.12a42.05,42.05,0,0,0-4.69,2.37,10.19,10.19,0,0,0-5,6.16,19.35,19.35,0,0,1-3.11,5.85c-3.48,5.15-7.05,10.24-10.43,15.45a65,65,0,0,0-7.15,14c-2.35-.29-1.2-1.74-1-2.89,3.46-14.12,6.85-28.26,10.41-42.35,3.14-12.39,6.46-24.73,9.72-37.09.66-2.47,1.32-4.94,2.16-7.35s1.77-5.14,3.76-7.12A28.43,28.43,0,0,1,579.67,494.43Z"/><path class="cls-3" d="M707.72,699.31c-2,.81-3.06,1.33-4.21,1.74-7.21,2.58-14.45,5.08-21.64,7.73a62.24,62.24,0,0,0-9.2,4,13.07,13.07,0,0,1-6.83,1.59c-10.22,0-20.45,0-30.67,0l-32.6,0c-1.28,0-2.55,0-3.83-.09-.57,0-1-.85-.76-1.42a6.89,6.89,0,0,1,3-3.6,55.81,55.81,0,0,1,6.78-3.51c7.13-2.94,14.67-4.37,22.25-5.56,19.81-3.13,39.76-3.49,59.74-2.71,4.31.16,8.61.57,12.91.94C704.08,698.56,705.47,698.91,707.72,699.31Z"/><path class="cls-8" d="M513.33,624.49c-.64-2.87-.64-2.91-2.74-3s-4.16,0-6.23,0H265c-1.6,0-3.2,0-4.8-.05s-2.22-.72-2.25-1.92a2.47,2.47,0,0,1,2.1-2.76,24.89,24.89,0,0,1,3.35-.16q8.38,0,16.79,0,107.94,0,215.89,0c2.55,0,5.1.17,7.61-.6a11.92,11.92,0,0,1,3.34-.18q7.9-.06,15.82-.09c-.79.51-1.56,1.06-2.37,1.52C517.36,618.94,514.61,621,513.33,624.49Z"/><path class="cls-1" d="M760.09,548.7c-.07,3.48-1.73,6.42-3.2,9.41a24.39,24.39,0,0,0-1.65,19c.71,1.87.68,3.17-.78,4.66-5,5.11-9.92,10.36-14.9,15.53-1.27,1.31-1.75,1.35-3.21.05a11.51,11.51,0,0,0-4.93-2.77,3.33,3.33,0,0,1-1.79-1.29c-2.59-4-2.51-4-1-8.68q6.21-19.3,12.35-38.65c.24-.75.6-1.47.9-2.21,5.35-2.81,11-1.84,16.5-.92C761.61,543.35,760.32,546.47,760.09,548.7Z"/><path class="cls-8" d="M744.47,508.13c-.45,2-.85,4-1.35,6-4.8,19.22-10.63,38.15-16.13,57.18-.93,3.22-1.74,6.48-2.64,9.7-.25.91-.64,1.77-1,2.68-.42-.24-.77-.32-.91-.54-3-4.55-5.88-9.14-8.86-13.68a3.91,3.91,0,0,1-.53-3.6c3.5-11.12,6.89-22.27,10.39-33.39,3-9.45,6-18.88,8-28.6.44-2.17,1-4.32,1.45-6.48l.55.37C734.66,503.88,740,505.51,744.47,508.13Z"/><path class="cls-1" d="M760.69,619.46a8.86,8.86,0,0,1-.37,1.55c-2.7,5.6-5.32,11.24-8.16,16.76a43.35,43.35,0,0,1-9.48,11.92c-2.33,2.15-4.91,2.94-7.9,1.83a61.56,61.56,0,0,1-7-3c-2.39-1.25-4.61-2.83-6.93-4.24a2.52,2.52,0,0,1-1.43-2.72,18.07,18.07,0,0,1,5.93-11.27c.12,2.07.2,3.49.28,4.91,1.64.1,2.09-1,2.66-1.94,2.56-4,5.09-8.1,7.63-12.16.93-1.48,1.83-3,2.82-4.43.81-1.18,1.54-2.9,2.64-3.23s2.52.89,3.75,1.53a35.83,35.83,0,0,0,11.32,3.6C757.83,618.83,759.2,619.16,760.69,619.46Z"/><path class="cls-10" d="M957.66,414.87c0-3.81.18-7.62,0-11.44H856.16c-8.9-1.31-17.86-.64-26.79-.85a9.31,9.31,0,0,1-2.36-.3,2.16,2.16,0,0,1-1.64-2.12,2,2,0,0,1,1.57-2.14,56,56,0,0,1,9-1.2c15.52.08,31,0,46.55,0l65.26,0h9.58c1.22-1.67-.44-4.1,1.26-5.77q.06,11.3.13,22.59A1.1,1.1,0,0,1,957.66,414.87Z"/><path class="cls-11" d="M958.57,589.63v3.17c0,17.11,0,34.23,0,51.35a10.6,10.6,0,0,1-2,6.65,75.49,75.49,0,0,0-4.29,6.93c-8.56,14.82-17.94,29.13-27.34,43.42-3.34,5.07-7,9.89-10.53,14.87a3.28,3.28,0,0,1-3.2,1.61c-2-.17-4,.15-6.31-.33a15.62,15.62,0,0,1,2.65-4.22c9.69-13.32,19.54-26.53,28.36-40.45,6.15-9.72,11.92-19.68,17.93-29.5a7.53,7.53,0,0,0,.88-4.13c0-6.72,0-13.44.16-20.15.14-8.16.38-16.31.58-24.46C955.53,592.41,955.75,590.53,958.57,589.63Z"/><path class="cls-12" d="M760.91,603c.28-.91.43-1.36.54-1.82,1.29-5.35.37-7.9-4-11.15-1.49-1.11-1.47-1.52-.17-2.92a2.52,2.52,0,0,1,3-.88c2.28.85,4.38.23,6.45-.8q5.14-2.54,10.34-5a23,23,0,0,1,3.12-1.19,32.28,32.28,0,0,0,9.59-5.26,1.31,1.31,0,0,0,.25-1.23c-.16-.35-.8-.82-1.08-.73-2.12.65-4.24,1.34-6.29,2.19-4.15,1.69-5.42,1.11-6.14-3.28a33.15,33.15,0,0,1-.28-5.73,16.32,16.32,0,0,0-1.21-7.49,3.87,3.87,0,0,1,.65-4.46c2.12-2.59,4.39-5.07,6.68-7.51a2.06,2.06,0,0,1,1.73-.35,20.1,20.1,0,0,1,3.1,1.25,2.17,2.17,0,0,1,1.36,2.71c-.41,1.71-.88,3.4-1.29,5.1a26.41,26.41,0,0,0-.69,3.27,4.42,4.42,0,0,0,1.88,4.17,12.29,12.29,0,0,0,2.88,1.69c2,.73,2.81,2,2.35,4-.73,3.26-1.3,6.57-2.21,9.78-.75,2.67-2.89,4.11-5.42,5-3.32,1.14-6.67,2.21-9.94,3.48a25.87,25.87,0,0,0-4.6,2.48c-.42.27-.87,1.25-.69,1.57,1.59,2.93.68,6,.34,8.89-.72,6.23.62,5.8-6.57,5A29.84,29.84,0,0,1,760.91,603Z"/><path class="cls-11" d="M706.2,558.05c4.06-10.4,7.92-20.87,11.31-31.51a144.19,144.19,0,0,0,4.12-18.62,58.41,58.41,0,0,0,.89-11.41c-.06-3.87-2.23-6.7-6.09-7.39-3.12-.55-6.22-1.31-9.46-1.22-2.36.07-4.74-.68-7.11-.68-5.57,0-11.17-.73-16.7.53a19.47,19.47,0,0,1-2.86.23,20.1,20.1,0,0,1-.66-2.26,1.31,1.31,0,0,1,1.12-1.74,34.61,34.61,0,0,1,4.26-.59q17.46-.63,34.93-1.18a10,10,0,0,1,5.08.93,8.93,8.93,0,0,1,5.12,8.05,32.85,32.85,0,0,1-.51,7.13c-1.47,8.35-4.19,16.36-7,24.32-4.41,12.47-8.76,25-12.15,37.76-.19.72-.46,1.42-.81,2.45A8.07,8.07,0,0,1,707,559.3a2.23,2.23,0,0,0-.79-1.24Z"/><path class="cls-3" d="M642.79,543.63c.37,1.15-.56,1.75-1.12,2.44-2.4,3-4.88,5.92-7.32,8.88a79.18,79.18,0,0,0-16.57,34.13c-.16.75-.46,1.48-.7,2.25-.4-.2-.78-.28-.8-.41-.87-6.65-1.53-13.33-2.6-19.94-1.15-7.12-1.58-14.28-2.2-21.44a20.71,20.71,0,0,1,.48-6.77c9.41,5.64,18.78,5.14,28.28,1.44.86-.33,1.64-1.05,2.66-.49Z"/><path class="cls-11" d="M680.31,713.52c1-.43,2-.93,3-1.29Q699,706.61,714.82,701a6.71,6.71,0,0,1,3.71-.51c6.11,1.21,12.25,2.28,18.09,4.48a70.43,70.43,0,0,1,7.78,3.63,10.3,10.3,0,0,1,2.94,2.4,3.8,3.8,0,0,1,1,2.51c-.16,1.27-1.49.85-2.36.85q-32.78,0-65.56,0Z"/><path class="cls-3" d="M624,542.92a16.63,16.63,0,0,1-6.79-1.14,2.14,2.14,0,0,1-1.58-2.11,19.3,19.3,0,0,1-.21-2.37c.17-1.57.08-3.44.92-4.59.67-.91,2.56-.92,3.91-1.32,5.64-1.7,10.73-4.17,13.64-9.72a7,7,0,0,1,1.13-1.53c3.88-4.25,7.79-8.48,11.68-12.71.11-.12.21-.29.34-.33A1.63,1.63,0,0,1,648,507c.24.09.56.42.55.64,0,1.59-.17,3.18-.28,4.77-.31,4.15-.68,8.29-.93,12.44a15.5,15.5,0,0,0,.17,4.77c.67,2.67-.6,4.27-2.46,5.69C638.9,540,632.18,543.08,624,542.92Z"/><path class="cls-10" d="M776.31,535a12.11,12.11,0,0,1,1,1.6,1.83,1.83,0,0,0,1.78,1.3c1.28,0,2.56,0,3.84,0H849.1c1.44,0,2.89,0,4.31.1a2.72,2.72,0,0,1,2.54,2.45c.27,1.69-.28,3.06-1.76,3.49a15.35,15.35,0,0,1-4.21.6c-9.75,0-19.51,0-29.26,0H800.58c-1.27,0-2.61-.15-3.37,1.25-1.55-1.09-3.07-2.22-4.65-3.25a21.19,21.19,0,0,0-7.44-3.12c-2.36-.48-4.42-.46-5.92,1.77a5.73,5.73,0,0,1-1.05,1,.85.85,0,0,1-1.4-.53C776.59,539.45,776.45,537.24,776.31,535Z"/><path class="cls-13" d="M693.76,623.61c2.88,1.74,4.12,4,3.84,7a7.69,7.69,0,0,0,0,1c.25,5.23,1.41,6.89,6.55,9.09-2.73,7.6-3.93,15.63-6.13,23.41-.56,2-.66,2.13-2.56,2.11-3.67,0-7.33-.18-11-.29-.57-3.79,1.32-7.09,2.18-10.58,2.48-9.93,5.05-19.82,6.46-30A11,11,0,0,1,693.76,623.61Z"/><path class="cls-14" d="M592.66,714.33c-5.62,0-10.89,0-16.15,0a1.13,1.13,0,0,1-.89-1.73,15.25,15.25,0,0,1,4.26-5.11,42.92,42.92,0,0,1,9.86-5.87,115.47,115.47,0,0,1,21.86-7,259.3,259.3,0,0,1,31.72-4.87c.95-.1,1.91-.15,2.87-.16,1.35,0,1.79.39,1.81,1.57,0,1.62-.32,2.07-1.76,2.26-7.28,1-14.58,1.79-21.84,2.93A82.87,82.87,0,0,0,606.83,701a57.78,57.78,0,0,0-6.09,2.79C596.63,706,593.47,709,592.66,714.33Z"/><path class="cls-3" d="M774.82,578.85a29.52,29.52,0,0,1-9.22,3.93c-1.72.44-2.21.12-2.77-1.55a3.4,3.4,0,0,0-.09-.46c-3.47-7.54-3.18-15.09-.26-22.73,2.3-6,3-12.34,3.32-18.73,0-1,0-1.92.1-2.86a2.52,2.52,0,0,1,2.42-2.49c1.81-.32,2.87.12,3.38,1.79a25.22,25.22,0,0,1,.79,4.66c.21,1.88-.38,3.8.5,5.65.2.43-.12,1.21-.38,1.72-.52,1-1.28,1.85-1.75,2.85-1.19,2.54-1.73,5.2-.2,7.78a7.51,7.51,0,0,1,.58,5.55,37.89,37.89,0,0,0-.7,4.22c-.24,3.65.53,7,3.44,9.51A6.56,6.56,0,0,1,774.82,578.85Z"/><path class="cls-15" d="M578.17,586.85c.56-.25,1.27-.85,1.63-.68a4,4,0,0,1,2,1.75,34,34,0,0,1,2.59,10.14,38.71,38.71,0,0,1-2.59,16.88,250.47,250.47,0,0,1-15,30.39c-1.12-.87-2.23-1.76-3.38-2.6-1.52-1.11-1.45-1-.38-2.82a52.57,52.57,0,0,0,5.65-14.08,18.15,18.15,0,0,1,2.64-6,86.28,86.28,0,0,0,5.52-10,9.79,9.79,0,0,0,1-3.62q.6-7.83.92-15.68A16.35,16.35,0,0,0,578.17,586.85Z"/><path class="cls-3" d="M537.07,664c-4.06-1.36-7.35-3.63-10.71-5.7-2.92-1.8-4.23-6.25-3.2-9.8a13.66,13.66,0,0,1,8-9,3.28,3.28,0,0,1,1.82-.34q6.55,1.2,13.07,2.56a16.18,16.18,0,0,1,2.55,1.08C541.81,648.44,538.78,655.83,537.07,664Z"/><path class="cls-16" d="M601.49,661.72l4.18,4.62c-.28.86-1.21.41-1.87.58l-15.31,3.85c-1.55.39-3.08.84-4.63,1.2-2.84.66-5.45.72-8.24-.91-4-2.35-8.77-2.81-13.34-3.56-2.35-.38-4.71-.67-7.3-1,.15-1.37.22-2.59.44-3.79s.61-2.44,1-4c2,1.08,3.64,2.38,5.49,2.84a22.81,22.81,0,0,0,6.19.19c2.17-.09,3.82-1.48,5.57-2.58,2.82,0,4.94,1.93,7.46,2.79a24.38,24.38,0,0,0,14.85.4C597.75,661.84,599.54,660.9,601.49,661.72Z"/><path class="cls-10" d="M520.05,421.73c1.91,1.13,4,1,6,.7a45.19,45.19,0,0,1,5.67-.57c10.84-.05,21.68,0,32.52,0-.2,1.86-.49,3.71-.6,5.57-.25,4.2-.42,8.4-.62,12.6-1.39-1.28-1-3-1-4.52.15-6.39.66-6-5.8-6H526.06c-1.75,0-3.53-.13-5.09.92A26.17,26.17,0,0,0,520.05,421.73Z"/><path class="cls-17" d="M686.09,616.1c4.2,2.22,4.74,5,3.67,8.94-3.34,12.45-5.6,25.18-9.42,37.51-.19.61-.33,1.23-.49,1.85a2.1,2.1,0,0,1-2.38,1.81c-1.57-.07-3.15,0-5.05,0,2.36-7.11,3.4-14.17,5.17-21.07a41.29,41.29,0,0,1,2-6.38,82.42,82.42,0,0,0,5.71-19.67A27.68,27.68,0,0,1,686.09,616.1Z"/><path class="cls-18" d="M678.53,538.83c-18.71,5.07-33.45,15.72-44.47,31.61a22.14,22.14,0,0,1-1.84,2c-1.74-2.75.25-4.78,1.42-6.89,1.28-2.31,3.31-4.2,3.9-6.9,2.73-3.48,5.59-6.87,8.13-10.47a69.47,69.47,0,0,0,5.59-9.34,56.77,56.77,0,0,0,2.57-7.58c2.16-.65,3.42,1.3,5.19,1.77-.59,1.2-2.11,1.94-1.77,3.6,0,1.6-1.16,2.52-2.51,3.89,6.47-2.39,12.64-4.22,19.18-3.82C675.65,536.85,677.86,536.24,678.53,538.83Z"/><path class="cls-19" d="M547.79,601l-.82.5c-.84.23-1.08-.21-1.06-.94l2.16-2.17a1.72,1.72,0,0,1,.68-.89,242.23,242.23,0,0,1,15.51-26.33,119.7,119.7,0,0,0,6.34-10.69,11.23,11.23,0,0,1,5.8-5.38c4.54-1.88,9-3.86,13.76-5.89v5.89c-3.31,1.15-6.59,2.36-9.93,3.43a7.05,7.05,0,0,0-4.13,3c-3.33,5.25-6.84,10.38-10,15.7-3.53,5.89-7,11.82-11.44,17-1.55,1.81-3.3,3.43-5,5.14-.3.28-.6.55-.91.81l-.13.09A1.79,1.79,0,0,1,547.79,601Z"/><path class="cls-20" d="M608.17,538.66a30.21,30.21,0,0,0-1.22,16c1.64,9.59,3.16,19.21,4.72,28.82.12.78.18,1.57.39,3.38a22.74,22.74,0,0,1-2-3.42c-1.05-3.17-2-6.38-2.92-9.59-.36-1.22-.56-2.49-.87-3.73A20.6,20.6,0,0,0,598.39,558c-4.52-3.28-4.85-3.83-3-10.18A29.55,29.55,0,0,1,598,542.7C600.82,540,603.63,537.15,608.17,538.66Z"/><path class="cls-21" d="M216.57,517.78c.09,4.17.2,7.82.26,11.46.12,8.44.14,16.89.36,25.33a13.74,13.74,0,0,1-1.84,7.74c-1.07,1.77-1.89,3.68-2.87,5.5a.88.88,0,0,1-.76.32.89.89,0,0,1-.5-.64,23.76,23.76,0,0,1-.06-2.39v-43c0-1,0-1.91.07-2.86a1.41,1.41,0,0,1,1.54-1.44C213.87,517.75,215,517.78,216.57,517.78Z"/><path class="cls-19" d="M721.63,596.33a3,3,0,0,0-.42-.84c-6.7-6-11.36-13.65-16.31-21a35.53,35.53,0,0,0-7.47-8c-2.16-1.73-2.83-1.67-5.11-.22-1.34.85-2.64,1.77-4,2.55-1,.57-1.8,0-2.5-.75,1.59-2.19,3.21-4.36,4.77-6.58a32.07,32.07,0,0,1,5.63-6.17c1.46.11,1.61,1.26,2.09,2,6.07,9.18,12.05,18.41,18.15,27.56a49,49,0,0,0,4.54,5.54c1.27,1.4,2.62,2.7,3.18,4.84Z"/><path class="cls-22" d="M582.31,675.08c6.44-1.62,12.45-3.09,18.43-4.67,3.21-.84,6.37-.28,9.51.16a101.54,101.54,0,0,1,16.72,4,8.93,8.93,0,0,1,1.56.87,7.39,7.39,0,0,1-3.5,3.37,5.55,5.55,0,0,1-5.49.41c-1.71-.85-3.52-1.52-5.17-2.47a18.4,18.4,0,0,0-12.94-2.11q-5.88,1.07-11.76,2.18C587.11,677.33,584.65,677.4,582.31,675.08Z"/><path class="cls-23" d="M572.89,447.47a11.56,11.56,0,0,1-4.17-8.53A39.88,39.88,0,0,1,581.4,406.6a100.86,100.86,0,0,1,9.06-7.07,7.84,7.84,0,0,1,2.07-1.17c.31-.12.84.14,1.15.39a.89.89,0,0,1,0,.88,37.44,37.44,0,0,1-2.54,2.81c-3.06,3-6.22,6-9.22,9.08a40.15,40.15,0,0,0-8.85,15.2c-1.94,5.59-1.89,11.29-.84,17C572.49,445,572.69,446.23,572.89,447.47Z"/><path class="cls-24" d="M607.28,373.72c3.68-2.52,7.33-5.07,11-7.56a37.4,37.4,0,0,1,12.14-5.44c9.38-2.22,17.57,0,25.21,7.25a14.14,14.14,0,0,1-2.92-.28c-2.09-.76-4.08-1.83-6.2-2.44-7.18-2.09-14.22-1.26-21,1.57-3.82,1.58-7.48,3.54-11.2,5.34-1.72.83-3.42,1.69-5.12,2.54C608.07,375.34,607.19,375.48,607.28,373.72Z"/><path class="cls-25" d="M690,417.6c0-4.31.22-8.63,0-12.92-.5-7.92-3.15-14.94-9.42-20.23a4.35,4.35,0,0,1-1-1.05.78.78,0,0,1,.06-.77,1,1,0,0,1,.86-.2,9.22,9.22,0,0,1,2.14,1,21.94,21.94,0,0,1,8.13,10.39,40.93,40.93,0,0,1,2.61,19.74c-.32,3-.64,6-.94,9-.49,5-.58,9.89,1.67,14.55a.76.76,0,0,1-.25.7,1.12,1.12,0,0,1-.89.11,4.65,4.65,0,0,1-2.82-3.61,24.62,24.62,0,0,1-.41-4.28c0-4.15,0-8.3,0-12.45Z"/><path class="cls-21" d="M424.17,389.09c-4.15,2.34-7.36,3.2-11,3.13-12.76-.27-25.51-.32-38.27-.51-3.83,0-7.65-.28-11.47-.45a5.19,5.19,0,0,1-1.86-.31c-.31-.14-.5-.73-.57-1.14a.87.87,0,0,1,.51-.67,15.71,15.71,0,0,1,2.81-.32q28.23,0,56.46,0C421.58,388.81,422.37,388.94,424.17,389.09Z"/><path class="cls-26" d="M751,706.9c2.77-1.44,5.74-2.08,8.62-3a2.65,2.65,0,0,1,1.84.15c3.84,2.06,7.34,4.53,9.44,8.52.46.87.08,1.69-.87,1.7-4.95,0-9.9,0-14.84,0a1.78,1.78,0,0,1-1.72-1.38C752.73,711.05,751.92,709.17,751,706.9Z"/><path class="cls-27" d="M678.53,538.83c-3.67-1.38-7.47-1.07-11.2-.56a40.08,40.08,0,0,0-13.06,4,3.37,3.37,0,0,1-1.3.5,1.9,1.9,0,0,1-1.15-.52c-.12-.1,0-.66.17-.85.75-.8,1.55-1.56,2.37-2.3s1.93-1.62,2.89-2.43c1.19.51,2.13-.14,3.14-.63a28,28,0,0,1,13.84-3,25.49,25.49,0,0,1,7.42,1.64,9.18,9.18,0,0,1,6.16,6.7c-1.1.78-2.47,1-3-.05-1.13-2.07-2.92-2.21-4.83-2.36C679.49,538.88,679,538.86,678.53,538.83Z"/><path class="cls-28" d="M637.54,558.69c.6,1,.06,1.8-.37,2.65-1.43,2.82-2.91,5.62-4.27,8.47a12.9,12.9,0,0,0-.68,2.67l0-.05c-.6.53-.41,1.47-1,2l0-.1c-.54.57-.4,1.48-1,2l.05-.11c-.52.54-.36,1.39-.92,1.9q-3.9,9.78-7.82,19.56a32.07,32.07,0,0,1-3.47,7.17C619.84,587.46,625.78,571.84,637.54,558.69Z"/><path class="cls-29" d="M765.37,614.53c-4.71-.64-9.42-1.26-14.12-1.93-1-.14-1.37-.82-1-1.66.83-1.71,1.7-3.4,2.57-5.09.38-.75.91-1.33,1.85-1.05a77.29,77.29,0,0,0,14,2.77,1.23,1.23,0,0,1,1.23,1.61c-.14.62-.21,1.25-.35,1.87C768.87,614.1,768.49,614.39,765.37,614.53Z"/><path class="cls-30" d="M687.48,689.34a12.13,12.13,0,0,0-.92,1.4,2.81,2.81,0,0,1-3,1.78c-2.54-.13-5.1-.15-7.65-.1-7.32.11-14.65.29-22,.43-.76,0-1.72.28-1.94-.78a2.79,2.79,0,0,1,1.66-3.05,5.05,5.05,0,0,1,1-.13q16.23,0,32.48-.07C687.16,688.82,687.23,689,687.48,689.34Z"/><path class="cls-13" d="M732.9,497.44,733,488c3.68-.57,6,3.62,9.73,2.81,3.55,4.84,3.77,10.11,2.08,15.65C741.42,503,737,501,733.4,497.93Z"/><path class="cls-31" d="M690.82,692.23c1.15-2,2.55-3.14,5-3a242,242,0,0,1,26,2.91c.77.14,1.53.35,2.72.61-2.58,1.69-4.87,3-7.7,2.66q-12.32-1.29-24.63-2.63A5.54,5.54,0,0,1,690.82,692.23Z"/><path class="cls-32" d="M621,373.08a17,17,0,0,1,3.1-.92,45.62,45.62,0,0,1,21.42,3.53,21.61,21.61,0,0,1,7.28,5.26,4.81,4.81,0,0,1,.88,1.64,1.48,1.48,0,0,1-1.52,1.87,4.94,4.94,0,0,1-2.12-.92c-6.35-5.61-14.1-7.69-22.22-8.85C625.66,374.38,623.47,374.38,621,373.08Z"/><path class="cls-33" d="M585.11,394.93c2.28-2.65,4.5-5.36,6.84-7.95a16.41,16.41,0,0,1,10.69-5.76c2.37-.24,4.72-.75,7.1-.86a12.68,12.68,0,0,1,3.65.8,1,1,0,0,1,.56.7,1.14,1.14,0,0,1-.45.78,4,4,0,0,1-1.26.63,9.22,9.22,0,0,1-1.89.32c-7.15.47-13.13,3.52-18.33,8.31A11.69,11.69,0,0,1,585.11,394.93Z"/><path class="cls-32" d="M655,416.9c.15,0,.4,0,.44.07a7.7,7.7,0,0,1,.71,1.68,20.82,20.82,0,0,0,12.23,14.91c3.32,1.54,6.71,2.95,9.51,5.38a15.1,15.1,0,0,1,1.82,2.15.34.34,0,0,1,0,.35c-.1.12-.29.25-.4.22a9,9,0,0,1-1.33-.43c-3-1.34-6.07-2.77-9.16-4a32.63,32.63,0,0,1-8.3-4.63c-4.88-3.88-7.12-8.85-6-15.11C654.45,417.26,654.77,417.09,655,416.9Z"/><path class="cls-22" d="M753.31,700.79c-1.33.49-2.39.83-3.41,1.28a9.21,9.21,0,0,1-8.21-.19c-3.44-1.61-7.22-2.48-10.87-3.65-1.34-.44-2.7-.8-4.58-1.36a50.91,50.91,0,0,1,4.84-2.08,6.5,6.5,0,0,1,3.26-.26,112.62,112.62,0,0,1,17.89,5.28C752.5,699.92,752.69,700.22,753.31,700.79Z"/><path class="cls-34" d="M544.77,616.94a4.18,4.18,0,0,1-3.38,3l-2.82.56a42.14,42.14,0,0,0-16.26,6.75,27.43,27.43,0,0,1-3.79,1.91,7.88,7.88,0,0,1,5.06-6.93,18.67,18.67,0,0,0,2.48-1.45A25.44,25.44,0,0,1,544.77,616.94Z"/><path class="cls-35" d="M679.23,428.19c0,.93,0,1.89,0,2.85a2.42,2.42,0,0,1-.32.75c-.38-.21-1-.36-1.1-.64-.85-3.56-1.61-7.14-2.41-10.71a65.59,65.59,0,0,0-1.74-7.42,19,19,0,0,0-9-10.79,17.25,17.25,0,0,1-2-1.26,1,1,0,0,1-.27-.84.88.88,0,0,1,.78-.35,12,12,0,0,1,2.75.58,16.25,16.25,0,0,1,7.31,6,26.6,26.6,0,0,1,3.12,5.89A47.48,47.48,0,0,1,679.23,428.19Z"/><path class="cls-36" d="M760.09,548.7c-.08-.62-.2-1.24-.24-1.86-.21-3-.21-3.08-3.34-3.11-4.88-.05-9.76,0-14.64,0l1.71-5.87c.54.3,1.07.86,1.62.87,4,.07,8,.11,12,0a19.72,19.72,0,0,0,3.73-.8C760.9,541.53,761.52,545.19,760.09,548.7Z"/><path class="cls-32" d="M633.19,389.84c2.12.39,4.48.78,6.81,1.3a4.8,4.8,0,0,1,2.1,1.08,2.5,2.5,0,0,1,.69,1.64c0,.93-.73,1.42-1.53,1.57a4.42,4.42,0,0,1-1.87-.15c-8.53-2.23-16.79-1.12-24.9,2a1.61,1.61,0,0,1-.92.21c-.22-.06-.39-.43-.53-.69a.53.53,0,0,1,0-.46,2,2,0,0,1,.71-.58c5-1.78,9.91-3.59,14.9-5.25A25,25,0,0,1,633.19,389.84Z"/><path class="cls-37" d="M704.3,635c1.67-5.84,5.07-10.58,9.34-14.77a11.58,11.58,0,0,1,4.8-3,3.21,3.21,0,0,1,3.13.58c-5.44,4.34-9.7,9.54-12,16.22-.7,2.07-.82,2.08-3.17,1.78A10,10,0,0,1,704.3,635Z"/><path class="cls-38" d="M601.49,661.72c-1.33.51-2.64,1.09-4,1.53-8.65,2.8-16.56,1.22-23.82-4.1.48-1.11,1.09-2,2.5-1.27a37.07,37.07,0,0,1,4.2,2.18c3.47,2.35,7.11,2.34,10.9,1.11,2.41-.78,4.79-1.61,7.2-2.39.88-.29,1.79-.51,3-.85Z"/><path class="cls-39" d="M672.43,600.74c-.39-.24-1.14-.56-1.11-.71.11-.52.39-1.28.8-1.43a9.61,9.61,0,0,1,6.52.06c7.63,2.62,12.86,7.85,16.07,15.18.11.26,0,.62,0,.93-1.3-1.13-2.66-2.22-3.89-3.42A43.49,43.49,0,0,0,672.43,600.74Z"/><path class="cls-32" d="M651.83,433.36c.28.15.65.22.8.44,3.36,4.93,8.64,6.83,13.86,8.78,1.49.55,3.08.83,4.58,1.34a34.15,34.15,0,0,1,3.95,1.63c1.21.6,2.06,2.16,1.53,2.6-.84.7-1.78.38-2.71.09-2.73-.86-5.48-1.63-8.19-2.54-4.25-1.41-8.35-3.13-11.59-6.39-1.48-1.49-2.77-3.1-2.77-5.34C651.29,433.76,651.64,433.56,651.83,433.36Z"/><path class="cls-40" d="M683.92,457.1l.34-1.7c.59-1,.14-2.13.61-3.12a61.76,61.76,0,0,0-1.5-17.56c-.43-1.81-.58-3.68-1-6.18a11.49,11.49,0,0,1,1.59,2c1.27,3.09,2.54,6.18,3.65,9.33,2.14,6.05,1.92,11.89-1.89,17.31a2.67,2.67,0,0,1-.69,1.06h0C684.13,458.42,683.63,458.16,683.92,457.1Z"/><path class="cls-22" d="M551.53,658c-.23,2.91-.44,5.54-.67,8.44-2.07.09-4.41.25-6.76.29-1.41,0-2-.61-2-2a21.27,21.27,0,0,1,2.18-8.8Z"/><path class="cls-41" d="M518.29,636.94c1.24.25,2,.92,1.92,2.27a8.26,8.26,0,0,1-.48,2.32,63.33,63.33,0,0,0-4,16.14,7.65,7.65,0,0,1-.43,1.36c-3.12-2.85-3.77-6.31-2.53-10.25a26.75,26.75,0,0,1,4.38-8.85A10.64,10.64,0,0,0,518.29,636.94Z"/><path class="cls-30" d="M559.09,647.55c-1.74,2.11-3.43,4.12-5.07,6.17a1.82,1.82,0,0,1-2,.9c-2-.49-3.94-1-6.13-1.58a17.12,17.12,0,0,1,7.83-7.71,2.54,2.54,0,0,1,3.39.51A17.57,17.57,0,0,0,559.09,647.55Z"/><path class="cls-33" d="M619.42,664.09c-.64.72-1,1.2-1.47,1.66a1.7,1.7,0,0,1-2.1.58c-3-1.41-6.05-2.75-9-4.3-1.5-.79-1.47-3.76-.09-4.87a1.77,1.77,0,0,1,1.32-.34,16.06,16.06,0,0,1,4,1.23C614.93,659.58,617.09,661.88,619.42,664.09Z"/><path class="cls-42" d="M715.66,613c-1.2-.54-1.78-1.43-.95-2.57,2-2.76,4.1-5.44,6.16-8.15,2.4.08,4.15-1.41,6.11-2.46a9.39,9.39,0,0,1,3.5-1.25,2.91,2.91,0,0,1,2.42,1.19c.45,1.2-1,1.23-1.76,1.64-2.26,1.18-4.53,2.33-6.74,3.6A27,27,0,0,0,715.66,613Z"/><path class="cls-43" d="M631.51,380.37A26.42,26.42,0,0,1,646.93,386,3,3,0,0,1,648,387.5a2.1,2.1,0,0,1-.34,1.68,1.93,1.93,0,0,1-1.62.5,7,7,0,0,1-2-1.23c-4.81-3.54-9.91-6.29-16.14-6.09-.19,0-.57-.38-.54-.51s.29-.66.53-.71C629.24,380.8,630.63,380.55,631.51,380.37Z"/><path class="cls-11" d="M733.4,497.93a14.22,14.22,0,0,1,3,1c2,1.17,3.9,2.58,5.88,3.81a5.22,5.22,0,0,1,2.46,3.78c-.1.55-.19,1.09-.29,1.64a2.39,2.39,0,0,1-2.66.05c-1.82-1.24-3.59-2.58-5.52-3.63C733.52,503.05,732.43,501,733.4,497.93Z"/><path class="cls-44" d="M746.92,610.88c-1.77,0-2.9-1.19-4-2.33-2.49-2.58-2.46-3.29.05-5.78a11.6,11.6,0,0,1,1.72-1.65,2.05,2.05,0,0,1,1.68-.25c1.39.71,2.68,1.61,4.11,2.51C749.23,606,748.08,608.43,746.92,610.88Z"/><path class="cls-45" d="M592.66,405.52c1-1.28,1.44-2.2,2.16-2.66a18.55,18.55,0,0,1,8.93-3.2c2.86-.17,5.74,0,8.62.13a3.3,3.3,0,0,1,1.38.34,6.08,6.08,0,0,1,1.07.91c-.32.31-.59.8-1,.9a10.1,10.1,0,0,1-2.83.37,34.82,34.82,0,0,0-14.51,2.58A20.51,20.51,0,0,1,592.66,405.52Z"/><path class="cls-46" d="M688.61,377.5a9.67,9.67,0,0,1-2.28,0,56.66,56.66,0,0,0-15.6-2c-1.68,0-3.57.39-4.9-1.21,1-2.37,3.2-1.53,4.91-1.67a28,28,0,0,1,15.77,2.94,8.44,8.44,0,0,1,1.22.74A7.64,7.64,0,0,1,688.61,377.5Z"/><path class="cls-32" d="M633.43,405.64c-2.55,0-5.11,0-7.66,0-.35,0-.95-.37-1-.64a1.26,1.26,0,0,1,.54-1.11,60.32,60.32,0,0,1,7.82-2.12,26.89,26.89,0,0,1,6.21,0,6.21,6.21,0,0,1,2.66.91,1.9,1.9,0,0,1,.7,1.6,1.78,1.78,0,0,1-1.17,1.24,35.77,35.77,0,0,1-4.27,0h-3.84Z"/><path class="cls-47" d="M742.68,490.84c-.22.92-.3,2.18-1.72,1.48-2.71-1.34-5.34-2.85-8-4.29-.8-1.71-1.61-3.42-2.43-5.16C736.21,482.84,739.53,485,742.68,490.84Z"/><path class="cls-40" d="M759.22,598.12a12.86,12.86,0,0,1-.48,2,3.18,3.18,0,0,1-5.08.93,1.77,1.77,0,0,1-.37-1.31c.18-1.77.21-3.49-1.18-4.85-.51-.5-.75-1-.29-1.62.65-.91,1.28-1.9,2.6-1.65A6.27,6.27,0,0,1,759.22,598.12Z"/><path class="cls-48" d="M663.76,391.75a14,14,0,0,1,11,5.43,11.74,11.74,0,0,1,1.83,3.82c.57,1.78,0,3.76-.48,3.4a6.54,6.54,0,0,1-1.88-2.44c-2.1-4.82-5.91-7.33-10.9-8.35a6.85,6.85,0,0,1-1.29-.46.47.47,0,0,1-.21-.38c.07-.26.16-.66.34-.72A9.4,9.4,0,0,1,663.76,391.75Z"/><path class="cls-49" d="M563.16,626.14c-.25-.35-.57-1-.72-1-2,.45-3.36-.42-4.64-1.73-.77-.79-1.67-1.46-2.42-2.27-1.33-1.47-1.2-2.41.48-4a4.06,4.06,0,0,1,.81-.49c4.36-.08,6.79,2.06,7.3,6.39C564.16,624.21,564.36,625.36,563.16,626.14Z"/><path class="cls-50" d="M691.72,552.21q-5.12-2.34-10.24-4.7a4,4,0,0,1-2.47-3.7,22.9,22.9,0,0,1,2.64-1c.36-.09,1.13.16,1.21.41.84,2.82,3.54,3.47,5.58,4.85,1.31.88,2.84,1.43,4.18,2.27s.09,1.21-.4,1.7l-.54.24Z"/><path class="cls-51" d="M608.17,538.66c-3.74.5-6.86,2.56-10.21,4a6.66,6.66,0,0,1,2.1-4.16c2.57-2.57,5.72-4.25,9.42-6.06C609.21,534.94,610,537,608.17,538.66Z"/><path class="cls-52" d="M667.2,383c5.63.55,10.64,2.36,14.56,6.55a6.85,6.85,0,0,1,1.25,2c.14.36-.12.88-.2,1.32a1.86,1.86,0,0,1-1.58-.8c-4.24-4.59-9.4-7.05-15.73-6.84a1.66,1.66,0,0,1-.91-.21,1.12,1.12,0,0,1-.48-.69c0-.23.16-.66.34-.71C665.36,383.32,666.3,383.16,667.2,383Z"/><path class="cls-53" d="M566.7,652.42c-1.71,2-3.13,3.67-4.6,5.31a2.13,2.13,0,0,1-1.15.71c-1.3.18-3.16-2.65-2.43-3.82a31.33,31.33,0,0,1,3.1-4.15,1.78,1.78,0,0,1,1.63-.2A39.14,39.14,0,0,1,566.7,652.42Z"/><path class="cls-54" d="M791.77,549.79c.88.58,1.68,1,2.4,1.61a3.87,3.87,0,0,1,1.31,5.09,16.82,16.82,0,0,0-.74,1.76c-.29.9-.37,2-1.75,1.71s-2.56-1.35-2.5-2.49C790.64,555,790.49,552.38,791.77,549.79Z"/><path class="cls-55" d="M659,533.07c-3.36.85-3.54.79-5.19-1.78-.42-1-.89-2-1.23-3-.4-1.2.42-2.11,1.69-2.12a4.36,4.36,0,0,1,3.73,1.66,20.41,20.41,0,0,1,1.76,2.78C660.32,531.64,659.79,532.42,659,533.07Z"/><path class="cls-25" d="M579.67,494.43c-.36.32-.67.84-1.07.92-2.33.47-4.67.89-7,1.18-.51.07-1.1-.47-1.65-.74,1.62-3,4.5-4.06,7.53-4.88,1.25-.34,1.7-.05,2,1.22A22.13,22.13,0,0,1,579.67,494.43Z"/><path class="cls-56" d="M564,623.06c-1.49-3.21-4.13-5.1-7.3-6.39,1.41-2.13,2.33-2.52,4-1.6a14.3,14.3,0,0,1,4.61,4.58Z"/><path class="cls-57" d="M572.3,656.34a5.64,5.64,0,0,1-.42.81,6.19,6.19,0,0,1-4.1,2.24c-.91.17-2.4.46-2.71,0-.84-1.15.61-1.83,1.18-2.67a8.07,8.07,0,0,1,1-1.07c.64-.64,1-1.95,2.13-1.56a12.28,12.28,0,0,1,2.75,1.8C572.21,656,572.23,656.19,572.3,656.34Z"/><path class="cls-58" d="M683.92,457.1l1.15,1.14-6.46,12.47c-.12-1.44-.37-2.13-.18-2.67a30.7,30.7,0,0,1,1.75-3.88C681.4,461.79,682.67,459.45,683.92,457.1Z"/><path class="cls-59" d="M616.88,618.49a14.43,14.43,0,0,1-.27,3.18,27.57,27.57,0,0,1-2,4.68c-.17.33-1,.3-1.57.44A10.26,10.26,0,0,1,616.88,618.49Z"/><path class="cls-52" d="M626.43,670.57c-2.63-.54-4-.75-5.34-1.13-.85-.24-.6-1-.26-1.48.83-1.26,1.61-1.43,2.62-.52C624.24,668.16,624.93,669,626.43,670.57Z"/><path class="cls-13" d="M751.3,598.38c-.11.27-.21.77-.35.77a5,5,0,0,1-2.08-.13c-.42-.18-1-1.12-.85-1.31a12.24,12.24,0,0,1,1.83-1.84,19.33,19.33,0,0,1,1.39,1.61C751.39,597.69,751.29,598.07,751.3,598.38Z"/><path class="cls-60" d="M543.88,589.7c.48.91-.38,2.27,1,2.89.08,1.72-.68,2.85-2.77,3.74C542.83,593.83,542.54,591.58,543.88,589.7Z"/><path class="cls-61" d="M607.28,373.72c.31,1,1.24.74,1.92,1a8.53,8.53,0,0,1-7.12,1.85C604.3,375.11,605.6,374.11,607.28,373.72Z"/><path class="cls-62" d="M545.91,600.57l1.06.94c-.85,1.47-2.38,1.84-3.81,2.35C543.15,602,544.45,601.21,545.91,600.57Z"/><path class="cls-63" d="M688,380.93a17,17,0,0,1,1.73.61c.15.07.17.48.17.73,0,.08-.25.25-.36.24a8.26,8.26,0,0,1-1.8-.3c-.21-.06-.42-.49-.42-.75S687.71,381.14,688,380.93Z"/><path class="cls-58" d="M684.87,452.28a2.63,2.63,0,0,1-.61,3.12C684.47,454.36,684.67,453.32,684.87,452.28Z"/><path class="cls-18" d="M631.24,574.42c-.1-.9-.06-1.72,1-2A1.7,1.7,0,0,1,631.24,574.42Z"/><path class="cls-49" d="M562.28,628.13l.81-1.8Z"/><path class="cls-59" d="M617.73,616.85c-.08.68,0,1.46-.89,1.71Z"/><path class="cls-18" d="M629.41,578.13c.31-.63.61-1.26.92-1.9C630,576.87,629.72,577.5,629.41,578.13Z"/><path class="cls-18" d="M630.28,576.34c0-.87,0-1.67,1-2Z"/><path class="cls-39" d="M694.6,614.67l.91.91Z"/><path class="cls-62" d="M548.75,597.51l-.68.89Z"/><path class="cls-9" d="M514.15,636.75l-.33.64c-.43-.61,0-.6.41-.55Z"/><path class="cls-8" d="M706.2,558.06c.27.41.53.83.79,1.24C706.73,558.89,706.47,558.47,706.2,558.06Z"/><path class="cls-9" d="M691.68,552.25l.2-.35.35.11s-.2.28-.2.28Z"/><path class="cls-3" d="M642.9,543.72c0-.22,0-.44.05-.67l.55.32-.71.26Z"/><path class="cls-64" d="M650.55,450.43l-.74-.84Z"/><path class="cls-64" d="M651.5,451.42l-.89-.92Z"/><path class="cls-64" d="M652.46,452.34l-.91-.87Z"/><path class="cls-58" d="M685.07,458.24l.69-1.06Z"/><path class="cls-10" d="M868.33,433.22h54.21c1.28,0,2.56-.05,3.83,0a6.93,6.93,0,0,1,2.3.51,3.37,3.37,0,0,1,2,3,3.41,3.41,0,0,1-1.91,2.59,4.51,4.51,0,0,1-1.8.56c-1.11.09-2.23.06-3.35.06q-52.05,0-104.1-.1c-2.21,0-4.42-.45-6.64-.63-1.43-.12-2.87-.18-4.31-.19-8,0-16,0-24-.12-4,0-8,.3-11.92-.72a15.19,15.19,0,0,0-3.82-.1c-12,0-24,0-36-.09a24,24,0,0,1-4.22-.47c-.27,0-.51-.72-.58-1.13a.9.9,0,0,1,.5-.73,15.74,15.74,0,0,1,3.24-.52c5.92-.07,11.83,0,17.75-.1,2.06,0,4.11-.39,6.17-.55,1.59-.13,3.18-.24,4.77-.25q20.64-.09,41.26-.14a26.82,26.82,0,0,0,7.13-.61,18.44,18.44,0,0,1,4.77-.23h54.69Z"/><path class="cls-10" d="M903.42,536.06c10.7,0,21.39,0,32.09,0a57,57,0,0,1,6.61.77,6.56,6.56,0,0,1,1.4.28,3.25,3.25,0,0,1-.46,6.43,21,21,0,0,1-2.39.15c-23.1,1.64-46.24.58-69.36.87-1.9,0-3.82.16-5.6-.85a3.87,3.87,0,0,1,0-6.89c1.63-.92,3.37-.84,5.12-.85h32.57Z"/><path class="cls-6" d="M860.2,593.79c-19.94,0-35.6,0-51.25,0a38.37,38.37,0,0,1-4.29-.18,1.81,1.81,0,0,1-1.7-2,1.85,1.85,0,0,1,1.68-2,23.09,23.09,0,0,1,3.33-.22q25.15-.18,50.31-.34,22.28-.17,44.55-.39c1.6,0,3.2-.05,4.79.08a5.36,5.36,0,0,1,2.22.74,2.28,2.28,0,0,1,0,4,9,9,0,0,1-3.64.89c-4.15.09-8.31,0-12.46,0C881.14,594.16,868.52,593.93,860.2,593.79Z"/><path class="cls-5" d="M922.81,570.38c-6.21,0-12.42,0-18.63,0a16.71,16.71,0,0,1-3.32-.25,3.13,3.13,0,0,1-2.69-2.92,3.07,3.07,0,0,1,2.57-3,25.42,25.42,0,0,1,4.27-.31q12.19-.12,24.38-.16c4,0,8,0,11.94,0a20.55,20.55,0,0,1,3.33.21,3.22,3.22,0,0,1,.11,6.36,20,20,0,0,1-3.8.26c-6.05,0-12.1,0-18.16,0Z"/><path class="cls-65" d="M858.62,569.43c-8.13,0-16.26,0-24.39,0a13.81,13.81,0,0,1-4.19-.67,2.25,2.25,0,0,1-1.06-1.85,2.32,2.32,0,0,1,1.17-1.82,16.77,16.77,0,0,1,4.25-.43c9.41,0,18.81,0,28.22,0,6.85,0,13.71-.18,20.56-.25a9.28,9.28,0,0,1,2.35.23,2.67,2.67,0,0,1,2.08,2.82,2.7,2.7,0,0,1-2.22,2.22,11.76,11.76,0,0,1-2.38.13H858.62Z"/><path class="cls-10" d="M786.34,404.48H773.89c-.95,0-1.91,0-2.87,0-2.62-.18-3.75-1.54-3.4-4.06a2.75,2.75,0,0,1,2.44-2.54,21.06,21.06,0,0,1,2.87-.13q14.12,0,28.24,0a15.16,15.16,0,0,1,2.86.17,3.79,3.79,0,0,1,2.78,3,3.6,3.6,0,0,1-2.78,3.44,17.54,17.54,0,0,1-3.33.18C795.92,404.49,791.13,404.48,786.34,404.48Z"/><path class="cls-66" d="M833.45,506c-4.47,0-9,.06-13.42,0a10.8,10.8,0,0,1-3.62-.92c-.84-.34-.85-1.92-.09-2.46a4.59,4.59,0,0,1,1.67-.86,16,16,0,0,1,2.86-.16l26.38-.18a9.29,9.29,0,0,1,1.9.12A2.55,2.55,0,0,1,851,504a2.4,2.4,0,0,1-1.77,2,9.37,9.37,0,0,1-2.37.18H833.45Z"/><path class="cls-67" d="M755.84,400.5c-.23,1.64-1.8,3-3.15,2.58-2.83-.82-5.7-.49-8.54-.51-10.52-.06-21,0-31.56-.05a22.92,22.92,0,0,1-4.2-.49c-.27,0-.52-.7-.6-1.11,0-.2.29-.64.53-.7a11.43,11.43,0,0,1,2.75-.53c3.51-.06,7,0,10.52,0,7.81,0,15.62,0,23.43,0,2.69,0,5.41.32,8-.65a2.4,2.4,0,0,1,1.79.31A3.89,3.89,0,0,1,755.84,400.5Z"/><path d="M450.47,446.37A14.76,14.76,0,0,1,459.91,458c.27,1.42.12,2.63-1.05,3.4a2.78,2.78,0,0,0-1.35,2.78c.11,2.87.16,5.75.13,8.63a2.61,2.61,0,0,0,1.15,2.43c1.47,1,1.78,2.52,1.82,4.2.13,5.27.36,10.54.52,15.82a7.3,7.3,0,0,1-.15,2.85c-1,2.4-.45,4.65.08,7a22,22,0,0,1,.56,6.15c-.22,3.11-1.71,4.48-4.87,4.95a21.53,21.53,0,0,1-9-.18c-3.35-.91-4.53-2.57-4.09-5.92.35-2.68.84-5.35,1.23-8a17,17,0,0,0,.15-2.37l.12-20.15a8.31,8.31,0,0,1,1.06-4.59,7,7,0,0,0,.79-3.16c.17-2.56.2-5.12.24-7.68,0-2,0-2-2.17-2.09-.64,0-1.27,0-2.17,0,0,4.61-1.68,8.66-3.91,12.56-1.75,3.05-3.42,6.14-5.09,9.24-.73,1.37-1.37,2.8-2.25,4.6,2.31.08,4.16.07,6,.21,2.36.19,3.14.85,3.3,3.22.19,2.86.18,5.75.14,8.63a3,3,0,0,1-2.46,3.1c-1.05.25-2.09.57-3.05.84,0,.36-.11.56,0,.65,1.8,2.41,2.07,5.18,2,8.08-.07,2.39.16,4.81,0,7.19-.2,3,0,5.52,2.72,7.55,1.67,1.23,2.14,3.49,2.22,5.64.17,4.63.4,9.26.46,13.9.06,3.67,0,7.35-.21,11a3.46,3.46,0,0,0,.81,2.59,12.74,12.74,0,0,1,2.94,7c.19,2.15-.52,3.16-2.67,3.88a7.48,7.48,0,0,1-1.85.46c-5.72.43-11.42,1.44-17.21.55a19.65,19.65,0,0,0-5.73,0c-5.79.87-11.48-.19-17.21-.62a6.72,6.72,0,0,1-1.82-.56c-1.9-.69-2.52-1.6-2.36-3.62a10.58,10.58,0,0,1,2.35-6.19c1.26-1.47,1.29-2.93,1.27-4.78-.08-7.51.17-15,.3-22.54a10.16,10.16,0,0,1,3.89-8.38,2.77,2.77,0,0,0,1.22-2.4c0-6.08,0-12.16.11-18.23,0-1.22-.19-2.15-1.47-2.66a2.62,2.62,0,0,1-1.59-2.71c0-2.4,0-4.81.17-7.19.28-3.23,1.35-4.16,4.52-4.32,1.26-.06,2.53,0,4.17,0a11.5,11.5,0,0,0-.71-2.42c-2-3.45-4-6.91-6.18-10.27-2.6-4.06-4.85-8.24-5.7-13-.2-1.1-.9-1.1-1.74-1s-1.42.55-1.39,1.52c.1,3,.17,6.08.3,9.11a3.21,3.21,0,0,0,.39,1.84c1.7,2.07,1.42,4.5,1.43,6.88,0,6.23,0,12.47.09,18.71,0,.93.31,1.86.41,2.8a16.26,16.26,0,0,1,.25,3.32c-.23,2.76-1.43,4-4.19,4.32-3,.34-6.06.69-9.05-.22-2.21-.67-3.11-1.49-2.89-3.78.42-4.49-.84-8.86-.64-13.31s.4-9,.52-13.42c0-1.84.26-3.53,1.95-4.62a2.55,2.55,0,0,0,1-2.49c0-2.72,0-5.44.14-8.15a3.09,3.09,0,0,0-1.45-3.22c-1.2-.74-1.2-2.05-.9-3.43.68-3.2,1.74-6.14,4.61-8.26-1.2-1.81-2.26-3.36-3.25-5a1.68,1.68,0,0,1,.9-2.37,9.78,9.78,0,0,1,1.83-.52c6.73-1.1,13.12-.42,18.57,4.08a4.79,4.79,0,0,0,4,1c1.21-.1,1.53-.75,1.64-1.87a75,75,0,0,1,1-8.05,10.46,10.46,0,0,1,3.69-6c3.74-3.11,8.61-2.35,11,1.9a22.09,22.09,0,0,1,2.19,5.8c.58,2.46.78,5,1.16,7.68,1.59.8,2.91.32,4.44-1.05a20.09,20.09,0,0,1,14-5.36,7.74,7.74,0,0,1,2.35.36,2.25,2.25,0,0,1,.93,3.56C452.5,444.59,451.62,445.29,450.47,446.37Z"/><path class="cls-7" d="M365.2,595.31c-5.4-.09-8.89-4.51-7.56-9.73a15.12,15.12,0,0,1,1.76-3.89c1.14-1.89,2.56-3.62,3.6-5.56a7.26,7.26,0,0,0,.5-3.21c.07-10.23.07-20.46.16-30.68a34.17,34.17,0,0,1,.53-5.71c.51-2.77,1.33-3.35,4.24-3.48h.95c6.72,0,13.43,0,20.14.11a24.6,24.6,0,0,1,4.28.39,2.56,2.56,0,0,1,2.18,2.23,2.31,2.31,0,0,1-2.07,2.26,40.47,40.47,0,0,1-5.7.57c-5.12.09-10.23,0-15.34.06-1,0-1.92,0-2.88,0-1.18.06-1.61.53-1.61,1.83,0,10.71.09,21.42,0,32.12a2.9,2.9,0,0,0,2.18,3.12c4.27,1.76,6.35,6,5.09,11.13C374.55,591.55,369.68,595.39,365.2,595.31Z"/><path class="cls-68" d="M476.74,573.31c-5.26-.13-10.52-.24-15.78-.4a19.46,19.46,0,0,1-2.84-.33,2.6,2.6,0,0,1-2.07-2.35,2.84,2.84,0,0,1,2-2.9,10.25,10.25,0,0,1,2.34-.41c1.43-.1,2.87-.14,4.3-.15q13.4,0,26.79,0a15.36,15.36,0,0,1,3.32.28,3.09,3.09,0,0,1,2.17,2.85,2.81,2.81,0,0,1-2.09,2.86,15.77,15.77,0,0,1-3.76.43c-4.79.05-9.57,0-14.36,0Z"/><path class="cls-68" d="M318.73,563.86c4.79,0,9.57,0,14.36,0a14.67,14.67,0,0,1,3.31.29,3.06,3.06,0,0,1,2.15,2.86,2.94,2.94,0,0,1-2.11,2.87,7.7,7.7,0,0,1-2.33.4q-15.78-.09-31.57-.26a18.18,18.18,0,0,1-2.84-.33,2.62,2.62,0,0,1-2.05-2.37,2.8,2.8,0,0,1,2-2.88A13.51,13.51,0,0,1,303,564c5.26,0,10.52,0,15.78,0Z"/><path class="cls-68" d="M318.69,539.86c4.79,0,9.57,0,14.36,0a15.21,15.21,0,0,1,3.31.27,3.1,3.1,0,0,1,2.19,2.84,2.92,2.92,0,0,1-2.08,2.89,7.42,7.42,0,0,1-2.32.42q-15.79-.09-31.57-.26a18.16,18.16,0,0,1-2.84-.32,2.6,2.6,0,0,1-2.08-2.34,2.73,2.73,0,0,1,2-2.91,13.52,13.52,0,0,1,3.29-.45c5.26,0,10.52,0,15.78,0Z"/><path class="cls-68" d="M318.56,575.37h14.35a18.15,18.15,0,0,1,2.86.13,3.21,3.21,0,0,1,2.77,2.86,3.06,3.06,0,0,1-2.38,3.16,6.62,6.62,0,0,1-1.87.28q-16-.1-32.05-.28a12.32,12.32,0,0,1-2.83-.41,2.5,2.5,0,0,1-1.72-2.1,2.54,2.54,0,0,1,1.38-2.77,12.75,12.75,0,0,1,3.7-.7c5.26-.08,10.53,0,15.79,0Z"/><path class="cls-68" d="M318.34,534.91c-5.26-.13-10.52-.24-15.78-.4a19.46,19.46,0,0,1-2.84-.33,2.61,2.61,0,0,1-2.07-2.35,2.86,2.86,0,0,1,2-2.91,10.24,10.24,0,0,1,2.33-.4c1.43-.1,2.87-.14,4.31-.15q13.39,0,26.79,0a15.26,15.26,0,0,1,3.31.28,3.08,3.08,0,0,1,2.17,2.85,2.83,2.83,0,0,1-2.1,2.86,15.77,15.77,0,0,1-3.76.43c-4.78.05-9.57,0-14.35,0Z"/><path class="cls-69" d="M491.66,453.07c0,3.82,0,7.65,0,11.48a13.92,13.92,0,0,1-.5,3.76c-.55,1.83-1.65,2.49-3.61,2.43l-22-.75c-1.67-.06-2.82-.72-2.57-1.42.48-1.31,1.67-1.33,2.78-1.35,4.78-.11,9.57-.19,14.35-.27,1.44,0,2.88,0,4.31-.07,2.5-.14,2.76-.38,2.75-2.82,0-7-.13-14-.17-21.06a21.85,21.85,0,0,1,.19-3.8,2.13,2.13,0,0,1,2-1.74,2.17,2.17,0,0,1,2.3,1.35,8.06,8.06,0,0,1,.47,2.77c0,3.83,0,7.66,0,11.49Z"/><path class="cls-7" d="M476.6,560.94c-5.25,0-10.51,0-15.76,0a11.63,11.63,0,0,1-2.83-.3,2.92,2.92,0,0,1-1.94-3,2.84,2.84,0,0,1,2.09-2.37,10.36,10.36,0,0,1,2.37-.24q16-.12,32-.2a9.37,9.37,0,0,1,2.36.3,2.91,2.91,0,0,1,2,2.88,3,3,0,0,1-2.19,2.8,18.41,18.41,0,0,1-3.32.23c-4.94,0-9.87,0-14.81,0Z"/><path class="cls-7" d="M317.93,558.06c-5.09,0-10.19,0-15.28,0a12.83,12.83,0,0,1-2.84-.25,3,3,0,0,1-2.16-2.83,3,3,0,0,1,2.37-2.63,18.13,18.13,0,0,1,2.85-.2q15.53-.12,31.05-.19a10.47,10.47,0,0,1,2.36.26,2.9,2.9,0,0,1,2.24,2.72,3,3,0,0,1-2.45,3.06,19.46,19.46,0,0,1-3.33.18c-4.94,0-9.87,0-14.81,0Z"/><path class="cls-7" d="M476.67,543.3c4.77,0,9.55,0,14.33,0a21.85,21.85,0,0,1,3.79.3,2.82,2.82,0,0,1,2.13,2.8,3.07,3.07,0,0,1-2.1,2.87,9.81,9.81,0,0,1-2.36.25q-15.76,0-31.53-.12a12.48,12.48,0,0,1-2.37-.16,3.08,3.08,0,0,1-2.51-3,3,3,0,0,1,2.48-2.54,19.45,19.45,0,0,1,2.86-.19h15.28Z"/><path class="cls-7" d="M476.33,584.94c-5.09,0-10.19,0-15.28,0a12.83,12.83,0,0,1-2.84-.25,3,3,0,0,1-2.15-2.83,3,3,0,0,1,2.36-2.63,19.41,19.41,0,0,1,2.85-.2q15.53-.12,31.05-.19a10.47,10.47,0,0,1,2.36.26,2.9,2.9,0,0,1,2.24,2.72,3,3,0,0,1-2.46,3.06,19.29,19.29,0,0,1-3.32.18c-4.94,0-9.87,0-14.81,0Z"/><path class="cls-7" d="M476.28,596.45c-5.26,0-10.51,0-15.76,0a9,9,0,0,1-2.78-.46,2.84,2.84,0,0,1-1.69-2.65,3.15,3.15,0,0,1,2-2.5,8,8,0,0,1,1.89-.24q16.47-.12,33-.22a8,8,0,0,1,1.88.25,2.94,2.94,0,0,1,2.19,2.78,3,3,0,0,1-2.05,2.9,16.57,16.57,0,0,1-3.31.28c-5.09,0-10.19,0-15.28,0Z"/><path class="cls-70" d="M256.56,567.27c0,2.56.05,5.11,0,7.66a19.26,19.26,0,0,1-.47,3.78,3,3,0,0,1-2.72,2.3,3.37,3.37,0,0,1-2.84-2.24,8.11,8.11,0,0,1-.3-2.35c0-5.43.1-10.85.24-16.27a20.29,20.29,0,0,1,.61-3.77,2.35,2.35,0,0,1,2-1.78,2.53,2.53,0,0,1,2.57,1.73,14,14,0,0,1,.43,2.82c.16,2.7.25,5.41.37,8.12Z"/><path class="cls-71" d="M488.36,430.56c-2.71,0-5.43,0-8.15,0a7.34,7.34,0,0,1-2.82-.39,2.47,2.47,0,0,1-1.28-1.75,2.42,2.42,0,0,1,1.21-1.79,6.7,6.7,0,0,1,2.79-.52c5.76-.15,11.51-.24,17.27-.33a10.11,10.11,0,0,1,1.91.11,2.64,2.64,0,0,1,2.3,2.63,2.49,2.49,0,0,1-2.2,2.16,14.69,14.69,0,0,1-2.39.16c-2.88,0-5.76,0-8.64,0Z"/><path class="cls-72" d="M257.11,585.79a6.38,6.38,0,0,1,2.16,1,4.16,4.16,0,0,1,.69,5.54c-1.28,1.59-3.52,1.71-5.5.21a7.18,7.18,0,0,1-1.6-1.7c-1.58-2.37-.36-4.81,2.46-5C255.63,585.77,256,585.79,257.11,585.79Z"/><path class="cls-8" d="M459.12,646.41h16.79a23.35,23.35,0,0,1,3.35.1,4.72,4.72,0,0,1,4.06,4.11c.05,1.53-2.14,3.91-4,4.26a10.59,10.59,0,0,1-2.39.1c-4.45-.16-8.93.37-13.36-.73a18.1,18.1,0,0,0-4.3-.1L326.85,654a28.71,28.71,0,0,1-7.61-.6,19.37,19.37,0,0,0-4.77-.22c-4.64,0-9.28,0-13.91-.07-2.26,0-3.39-1.06-3.22-2.63.14-1.37,1.12-2.11,3.19-2.18,2.24-.07,4.48.06,6.71-.06s4.75-.45,7.12-.62c1.75-.13,3.51-.19,5.27-.19L430,647.28c2.86,0,5.73.19,8.57-.64a14.19,14.19,0,0,1,3.81-.17h16.79Z"/><path class="cls-10" d="M236.21,622.42c-3.26-.31-7.51-.67-11.75-1.13a2.38,2.38,0,0,1-2.07-2.73,1.64,1.64,0,0,1,1.29-1.75,38.46,38.46,0,0,1,5.6-.92c4.11-.19,8.24-.25,12.36-.19,1.85,0,2.76,1.24,2.81,3.16.05,2.16-.91,3.31-3,3.53-.31,0-.63,0-.95,0Z"/><path class="cls-4" d="M470,676.85l25.84,1.78c5.74.39,11.48.92,17.23,1.18,12.79.57,25.51,1.85,38.23,3.21.64.07,1.29.1,1.91.23,3,.64,4,1.93,4,5,0,1.44-.32,2.87-.3,4.31,0,2.24-.83,3.63-2.78,5.06-5,3.67-9.8,7.7-14.47,11.82a11.38,11.38,0,0,1-8.78,2.92q-8.13-.54-16.27-1.14c-1.91-.13-3.82-.38-5.73-.48-19.49-1-39-2-58.45-3.09-5.74-.33-11.45-1.13-17.19-1.61-2.3-.2-3.25-2.34-5.1-3.22-1.17-.55-1.19-2.16-1.29-3.45a3.87,3.87,0,0,1,0-.48c.65-6.11-1.53-5.17,4.89-8.45L453,679.57l.42-.23c5.62-2.85,5.62-2.85,11.77-2.58L470,677Z"/><path class="cls-7" d="M199.05,499.26c-8.15,0-16.3,0-24.44,0-6.13,0-6.85-.42-7-6.32-.16-7.33.33-14.68.54-22a7.47,7.47,0,0,1,.12-1c.45-2.55.8-3,3.32-3.23,2.86-.26,5.74-.43,8.61-.46q20.61-.22,41.22-.32c1.91,0,3.82.24,5.72.41a2.67,2.67,0,0,1,2.52,2.47,20.59,20.59,0,0,1,.28,3.33c.06,6.23.18,12.47.05,18.69a31,31,0,0,1-1.15,6.5,2.7,2.7,0,0,1-2.51,1.94,37.41,37.41,0,0,1-3.82.12H199.05Z"/><path class="cls-4" d="M212.39,437.19c-2.24,0-4.48,0-6.71,0a1.94,1.94,0,0,0-2.11,1.51c-.1.31-.15.62-.25.93a22.37,22.37,0,0,1-23.93,15.69c-7.92-.85-15.65-8.16-14.9-17.54.65-8.16,7-16.34,14.73-18.2a32.73,32.73,0,0,1,8.53-.93c6.94.18,11.91,3.85,14.39,10.11,1.39,3.51,3.13,4.58,6.67,4.17s7.3.24,10.86-.88c.25-3.49.47-7,.78-10.47a21,21,0,0,1,.74-4.18,1.79,1.79,0,0,1,1.46-.92c.49,0,1,.61,1.39,1.09a2.58,2.58,0,0,1,.33,1.37c.28,4.79.63,9.57.77,14.36.08,2.88-.6,3.45-3.69,3.67s-6,.31-9,.46Z"/><path class="cls-6" d="M224.77,388.59H174.44a30.84,30.84,0,0,1-4.29-.31,2,2,0,0,1-1.75-2,2.22,2.22,0,0,1,1.79-2.46,17.49,17.49,0,0,1,3.31-.3c5.76-.07,11.51-.13,17.26-.14q42.18,0,84.37,0a15,15,0,0,1,3.35.08,12.62,12.62,0,0,1,3.43,1.46,1.52,1.52,0,0,1,0,2.46,7,7,0,0,1-4.89,1.57c-3.35,0-6.71,0-10.06,0H224.77Z"/><path class="cls-73" d="M193.07,402c-5.91,0-11.82,0-17.74,0a29.17,29.17,0,0,1-4.28-.34,2.65,2.65,0,0,1-2-2.44,2.6,2.6,0,0,1,1.81-2.53,16.66,16.66,0,0,1,3.77-.55q19.16-.15,38.33-.2a11.7,11.7,0,0,1,2.84.27,3.44,3.44,0,0,1,2.3,2.8,3.11,3.11,0,0,1-2.14,2.87,16.44,16.44,0,0,1-3.76.44c-6.39,0-12.78,0-19.17,0Z"/><path class="cls-6" d="M320.4,475.54c4.93,0,9.87,0,14.81,0a12.39,12.39,0,0,1,3.28.4,2.91,2.91,0,0,1,2,3,2.72,2.72,0,0,1-1.87,2.53,8.55,8.55,0,0,1-2.78.52q-15.3-.06-30.59-.22a20.11,20.11,0,0,1-3.78-.45,2.48,2.48,0,0,1-1.82-2.49A3.69,3.69,0,0,1,301,476.5a8.38,8.38,0,0,1,3.65-.79c5.26-.08,10.52,0,15.77,0Z"/><path class="cls-6" d="M320.1,440c4.94,0,9.88,0,14.82,0a16,16,0,0,1,3.32.26,3.11,3.11,0,0,1,2.21,2.82,2.91,2.91,0,0,1-2,2.91,7.38,7.38,0,0,1-2.32.43q-15.76-.09-31.54-.25a18.16,18.16,0,0,1-2.84-.32,2.61,2.61,0,0,1-2.1-2.32,2.66,2.66,0,0,1,1.92-2.92,12.5,12.5,0,0,1,3.28-.47c5.1-.05,10.19,0,15.29,0Z"/><path class="cls-6" d="M320.4,464c4.93,0,9.87,0,14.81,0a12.39,12.39,0,0,1,3.28.4,2.91,2.91,0,0,1,2,3,2.72,2.72,0,0,1-1.87,2.53,8.55,8.55,0,0,1-2.78.52q-15.3-.06-30.59-.22a20.11,20.11,0,0,1-3.78-.45,2.48,2.48,0,0,1-1.82-2.49A3.69,3.69,0,0,1,301,465a8.38,8.38,0,0,1,3.65-.79c5.26-.08,10.52,0,15.77,0Z"/><path class="cls-6" d="M320.15,428.5c4.94,0,9.88,0,14.82,0a14.62,14.62,0,0,1,3.31.29,3.08,3.08,0,0,1,2.18,2.84,3,3,0,0,1-2.09,2.88,7.71,7.71,0,0,1-2.33.41q-15.77-.09-31.54-.25a17.07,17.07,0,0,1-2.84-.34,2.59,2.59,0,0,1-2.07-2.35,2.76,2.76,0,0,1,2-2.9,13.57,13.57,0,0,1,3.29-.44c5.1,0,10.2,0,15.29,0Z"/><path class="cls-74" d="M351.74,473.22c.22,6.07.24,12.15.75,18.2.33,3.9-1.44,6.77-3.57,9.54a6.79,6.79,0,0,1-6,2.51,2.59,2.59,0,0,1-2.56-1.77,2.31,2.31,0,0,1,1.37-2.74c.71-.35,1.55-.47,2.22-.87a5.82,5.82,0,0,0,3.24-5.34c.2-12.47.64-24.92,1-37.38a49.65,49.65,0,0,1,.62-5.7,1.24,1.24,0,0,1,1-.75,1.33,1.33,0,0,1,.95.83,24.83,24.83,0,0,1,.31,3.34q.4,10.05.8,20.12Z"/><path class="cls-7" d="M319.9,458.22c-5.12,0-10.24,0-15.35,0a12.1,12.1,0,0,1-3.28-.48,2.64,2.64,0,0,1-1.67-2.65,2.84,2.84,0,0,1,2-2.48,8.18,8.18,0,0,1,2.37-.26q16.08-.13,32.15-.21a7.83,7.83,0,0,1,2.36.33,2.79,2.79,0,0,1,2,2.47,2.89,2.89,0,0,1-1.87,3,13.53,13.53,0,0,1-3.3.38c-5.12,0-10.24,0-15.36,0Z"/><path class="cls-75" d="M712.06,594.25a7.31,7.31,0,0,1,1.4.15.94.94,0,0,1,.68,1.42,2.79,2.79,0,0,1-.9,1.06,43.16,43.16,0,0,0-9.6,9.76,16.48,16.48,0,0,1-1.87,2.13,3.72,3.72,0,0,1-1.19.55,5.84,5.84,0,0,1-.61-1.62,13.42,13.42,0,0,1,.31-2.33C701.67,599,706,595.65,712.06,594.25Z"/><path class="cls-76" d="M712.06,594.25a28,28,0,0,0-11.78,11.12,2,2,0,0,1-.65-2.53,16.08,16.08,0,0,1,7.53-8.71A4.44,4.44,0,0,1,712.06,594.25Z"/><path class="cls-6" d="M603.27,456.67c0,2.07.05,4.14,0,6.21a10.6,10.6,0,0,1-.42,2.8,3.85,3.85,0,0,1-3.5,2.8,3.92,3.92,0,0,1-3.94-2.87,9.82,9.82,0,0,1-.38-2.81c0-4.29,0-8.59,0-12.88a9.64,9.64,0,0,1,.6-3.24,3.58,3.58,0,0,1,3.78-2.32,3.48,3.48,0,0,1,3.27,2.38,12.36,12.36,0,0,1,.55,3.25C603.33,452.21,603.27,454.44,603.27,456.67Z"/><path class="cls-68" d="M629.31,456.6c0,2.07,0,4.14,0,6.21a11,11,0,0,1-.19,2.37A4.31,4.31,0,0,1,625,468.5a3.67,3.67,0,0,1-3.57-3.28c-.18-5.86-.17-11.74,0-17.6a3.5,3.5,0,0,1,3.51-3.29,4.06,4.06,0,0,1,4.15,3.23,10.91,10.91,0,0,1,.2,2.36c0,2.23,0,4.46,0,6.68Z"/><path class="cls-70" d="M607.16,496c-4.42,0-7.42-.45-10.26-1.65a9.2,9.2,0,0,1-2.26-1.66.85.85,0,0,1-.07-.83,3.32,3.32,0,0,1,1-.74c.1-.06.32,0,.44.11,4.31,2.61,9,2.06,13.55,1.29a26.31,26.31,0,0,0,13.33-6.17,3.87,3.87,0,0,0,1.66-3.68c-.32-2.42,2.25-3.1,4-2.13a5,5,0,0,1,1.43,1.25,2.67,2.67,0,0,1-.7,4.1,20.28,20.28,0,0,0-2.65,1.91A29.15,29.15,0,0,1,607.16,496Z"/><path class="cls-70" d="M597.66,428.22c1.83.44,3.7.78,5.49,1.36a2.45,2.45,0,0,1-1.22,4.72,13.05,13.05,0,0,1-2.32-.46,9.74,9.74,0,0,0-9,1.41,5.82,5.82,0,0,1-1.27.64c-.53.22-1.19-.39-1.28-1a3.71,3.71,0,0,1,1.05-3C591.32,429.19,594.28,428.38,597.66,428.22Z"/><path class="cls-66" d="M625.23,426.72a10.33,10.33,0,0,1,6,1.71,8.86,8.86,0,0,1,2,2.58c.16.28-.1.89-.3,1.28-.09.16-.57.22-.82.15a23.25,23.25,0,0,1-2.7-.93,6.93,6.93,0,0,0-6.84.64,25.19,25.19,0,0,1-2.89,1.67,2.09,2.09,0,0,1-2.57-.75,2.28,2.28,0,0,1-.2-2.7,6.64,6.64,0,0,1,4.2-2.94C622.5,427.08,623.94,426.93,625.23,426.72Z"/><path class="cls-77" d="M606.18,501.09l7-1.28c.46-.08.92-.24,1.39-.3,1.55-.23,2.82.18,2.9.93a3.31,3.31,0,0,1-1.37,2.88c-2.77,2.5-10.3,3.26-13.85-.05a1.88,1.88,0,0,1-.49-1.64,2.06,2.06,0,0,1,1.48-.89,19.6,19.6,0,0,1,2.87,0Z"/><path class="cls-64" d="M657.52,463.1c-.43.23-.83.63-1.25.65a5.56,5.56,0,0,1-2.75-.23,13.33,13.33,0,0,1-6.86-9.72,1.75,1.75,0,0,1,1.29-2.22,4.27,4.27,0,0,1,2.11.63,1.56,1.56,0,0,1,.57.74,34.32,34.32,0,0,0,5.53,7.68A16.24,16.24,0,0,1,657.52,463.1Z"/><path class="cls-78" d="M651.47,468.65c-.06.36-.28.91-.14,1,.83.69,1.75,1.3,2.65,1.91a9.92,9.92,0,0,1,1.95,1.31,2.11,2.11,0,0,1,.44,1.68,2,2,0,0,1-1.32,1.07,5.77,5.77,0,0,1-4.49-1,12.23,12.23,0,0,1-2.19-1.79c-.88-.9-1.81-1.9-1.58-3.29s1.47-1.47,2.48-1.88c.18-.08.22-.52.33-.79C651,466.61,651.64,467.23,651.47,468.65Z"/><path class="cls-64" d="M654.27,486.52c-.06.18-.1.69-.26.73a2.79,2.79,0,0,1-1.28-.07,1.39,1.39,0,0,1-.78-.53c-2.13-3.51-4.26-7-6.32-10.59a1.32,1.32,0,0,1,.35-1.24,1.29,1.29,0,0,1,1.25,0,30.53,30.53,0,0,1,7,10.62A3.29,3.29,0,0,1,654.27,486.52Z"/><path class="cls-79" d="M661.3,471.66c.48-3.2,1.58-5.6,3.8-7.36a1.46,1.46,0,0,1,1.32-.15,1.32,1.32,0,0,1,.47,1.21,5,5,0,0,0,0,5.29c.11.19-.35,1-.6,1.06-1.6.18-2.07,1.16-2.2,2.58,0,.32-.54.86-.8.84a1.5,1.5,0,0,1-1.09-.74A25.12,25.12,0,0,1,661.3,471.66Z"/><path class="cls-64" d="M651.47,468.65l-1.87-1.79a13.38,13.38,0,0,1-1.21-1.42c-.85-1.29-1-2.77-.31-2.89,1.11-.2,1.7.62,2.27,1.35a14.66,14.66,0,0,0,5.59,4.2,19.1,19.1,0,0,1,2.32,1.5.85.85,0,0,1-.08,1.11l-2.87-.11c-.41-.31-.79-.69-1.38-.62a.44.44,0,0,1-.55-.23,1.9,1.9,0,0,0-1.27-.79A.51.51,0,0,1,651.47,468.65Z"/><path class="cls-80" d="M647,496.06c-.37.19-.88.68-1.32.62a3.32,3.32,0,0,1-2.42-4.92,1.44,1.44,0,0,1,2-.26A6.16,6.16,0,0,1,647,496.06Z"/><path class="cls-81" d="M653.88,478.21c.85.36,1.73.67,2.54,1.1,1.28.67,1.65,1.47,1.13,2.1A2.05,2.05,0,0,1,655,482a7.88,7.88,0,0,1-2.26-1.6,1.4,1.4,0,0,1,0-1.3C652.87,478.71,653.4,478.53,653.88,478.21Z"/><path class="cls-78" d="M658.18,470.71c0-.37.06-.74.08-1.11l.66.82Z"/><path class="cls-78" d="M653.93,470l1.38.62Z"/><path class="cls-78" d="M652.11,469l1.27.79Z"/><path class="cls-82" d="M540.26,625.44a37,37,0,0,1,11.49,2.8,6,6,0,0,1,2.11,1.86,2.49,2.49,0,0,1-1.47,3.81c-1.63.42-3.11-.11-4.67-.56-3.2-.93-6.48-1.62-9.71-2.49a9.9,9.9,0,0,0-7.82,1.11,7.73,7.73,0,0,1-1.75.74.87.87,0,0,1-.8-.32,1.92,1.92,0,0,1-.2-1.25,2.59,2.59,0,0,1,.87-1.11A21.25,21.25,0,0,1,540.26,625.44Z"/><path class="cls-62" d="M547.79,601l.84-.7Z"/><path class="cls-62" d="M548.76,600.22l.91-.81Z"/><path class="cls-7" d="M483.62,398l41.18-.46c1.28,0,2.56,0,3.83.07a3.63,3.63,0,0,1,3.47,3.32c.08,1.89-1.47,3.42-3.69,3.62-.63.06-1.27,0-1.91,0-9.9,0-19.83.32-29.7-.2-12.6-.67-25.21-.61-37.82-1-5.9-.18-11.81-.09-17.72-.2a38.33,38.33,0,0,1-5.22-.54,1.46,1.46,0,0,1-1.3-1.7,2,2,0,0,1,1.08-1.38,28.25,28.25,0,0,1,5.17-.66c11.82-.2,23.63-.33,35.45-.47,2.39,0,4.79,0,7.18,0Z"/><path class="cls-20" d="M437.15,466.75c-3.47,6.25-6.69,11.93-9.79,17.67-.86,1.61-1.92,2.48-3.76,2.3a5.78,5.78,0,0,0-1.44,0c-2.74.44-4.34-.75-5.68-3.17-2.47-4.47-5.34-8.72-8-13.1-.79-1.32-2-2.48-1.89-4.6C416.73,466.11,426.77,465.77,437.15,466.75Z"/><path class="cls-17" d="M420.71,462.65H406.84A1.62,1.62,0,0,1,405,461c-.06-1.11,0-2.23-.1-3.34a3.36,3.36,0,0,1,1.52-3.23c4-3.18,3.93-3.19,9-3.09s9.88.18,14.82.11c2,0,3.34.33,4.14,2.33a16,16,0,0,0,2.26,3.63,4,4,0,0,1,.69,3.6,1.44,1.44,0,0,1-.84.94,15,15,0,0,1-2.84.24c-4.31,0-8.61,0-12.91,0Z"/><path class="cls-83" d="M437.26,544.09c0,3.67,0,7.34,0,11a1.61,1.61,0,0,1-1.75,1.8c-2.39,0-4.79,0-7.18,0-1.24,0-1.78-.64-1.77-1.75q.06-9.09.14-18.18a10.75,10.75,0,0,1,2.44-7.09,3.06,3.06,0,0,1,3.84-1.06,19.76,19.76,0,0,1,2.95,1.55,3.37,3.37,0,0,1,1.66,3.21c-.06,3.51,0,7,0,10.54Z"/><path class="cls-83" d="M406.51,543.86c0-3.19.18-6.4-.06-9.58a4.46,4.46,0,0,1,2.65-4.61,13.08,13.08,0,0,1,1.74-.8,3.27,3.27,0,0,1,4.23,1.14,11,11,0,0,1,2.28,7.16c-.05,3.51-.15,7-.14,10.54,0,2.22.13,4.45.25,6.68.11,2-.26,2.52-2.43,2.5-9.79-.09-8.08,1.63-8.28-7.76,0-1.75,0-3.51,0-5.27Z"/><path class="cls-21" d="M422,492.84c4,0,8,0,12,0,1.7,0,2.11.39,2.09,1.88,0,5.18.38,4.8-4.49,4.8-7,0-14,0-21,0-2.11,0-2.38-.2-2.44-2-.14-5.11-.66-4.76,4.37-4.74H422Z"/><path class="cls-22" d="M422.11,530.26c-1.33-1.85-2.44-3.35-3.48-4.89a2.51,2.51,0,0,1-.33-1.33q-.09-9.09-.13-18.18c0-1.33.35-1.64,1.68-1.71.48,0,1,0,1.44,0,5.2,0,4.6-.52,4.56,4.56,0,4.62-.17,9.25-.11,13.87a5.65,5.65,0,0,1-1.42,4.33A25.11,25.11,0,0,0,422.11,530.26Z"/><path class="cls-84" d="M455.61,488.42c0,2.22.05,4.44,0,6.65s-.35,2.33-2.61,2.38h-.47c-2.47,0-2.62-.09-2.74-2.69-.19-4.43-.34-8.86-.41-13.29,0-1.63.44-2,1.94-2.06.79,0,1.59,0,2.38,0,1.82.08,2.08.35,2.1,2.34,0,2.22,0,4.43,0,6.65Z"/><path class="cls-84" d="M388.26,488.3c0-2.38,0-4.75,0-7.13a1.54,1.54,0,0,1,1.75-1.73l.48,0c4.13-.19,4.27-.12,4.22,4.08,0,3.8-.26,7.6-.45,11.39-.12,2.43-.33,2.57-2.85,2.56-.48,0-1,0-1.43-.05a1.45,1.45,0,0,1-1.48-1.5c0-2.54,0-5.07,0-7.6Z"/><path class="cls-30" d="M411.67,567.87c-3.2-.2-5.58-.31-8-.51-.88-.07-1-.88-.71-1.42,1.16-2.4,2.69-4.22,5.78-4.07,3.33.16,6.68,0,10,.14.41,0,1.05.7,1.14,1.15a12.34,12.34,0,0,1,0,2.85,1.48,1.48,0,0,1-1.48,1.54C415.94,567.7,413.4,567.79,411.67,567.87Z"/><path class="cls-85" d="M421.23,446.6c-5.78,0-4.9.1-4.13-4.92a26.66,26.66,0,0,1,1.3-5.06,6.29,6.29,0,0,1,1.76-2.21,2,2,0,0,1,2.93.44,17.4,17.4,0,0,1,1.59,3.45,27.53,27.53,0,0,1,.63,3.28C426.37,447.21,426.13,446.52,421.23,446.6Z"/><path class="cls-23" d="M424.86,567.5c-.17-1.41-.37-2.66-.43-3.91s.32-1.66,1.71-1.67c3.35,0,6.71-.07,10.06,0a5.71,5.71,0,0,1,4.89,4.48,1.23,1.23,0,0,1-.78.93A80.4,80.4,0,0,1,424.86,567.5Z"/><path class="cls-40" d="M451.32,511.88c-3.45,0-3.93-.6-3.29-3.94q.09-.46.21-.93c.95-3.91,1-3.91,5.1-3.73,1.71.08,1.8.15,2.15,1.84.1.46.11.95.24,1.41C457,510.76,457.37,512,451.32,511.88Z"/><path class="cls-22" d="M432.84,513.56c0,2.7.05,5.39,0,8.08,0,.47-.6.91-.92,1.37-.41-.39-1.16-.77-1.17-1.18q-.27-8.31-.32-16.62c0-.34.84-.93,1.31-.95a2.22,2.22,0,0,1,1.51.8c.24.28.09.9.09,1.38,0,2.37,0,4.75,0,7.12Z"/><path class="cls-22" d="M413.46,513.48c0,2.37,0,4.75,0,7.12a6.73,6.73,0,0,1-.29,1.84.9.9,0,0,1-.7.5,1.64,1.64,0,0,1-1.08-.58,3.13,3.13,0,0,1-.2-1.39l-.45-14.72a3.75,3.75,0,0,1,0-.95,1.32,1.32,0,0,1,1.77-1,1.85,1.85,0,0,1,1.13,1.14,26.31,26.31,0,0,1,0,3.32c0,1.59,0,3.17,0,4.75Z"/><path class="cls-54" d="M403.6,450c-2.42,4.25-2.54,3.48-5.69,1.37-1.45-1-2.81-2.11-4.16-3.22a18,18,0,0,1-1.65-1.77c2.63-.7,2.64-.72,4.58-.19C399.29,446.89,401.89,447.66,403.6,450Z"/><path class="cls-86" d="M446.6,445.43c-2.11,2.64-3.5,4.32-4.83,6.06-1.58,2.07-2.28,1.21-3.35-.57a1.75,1.75,0,0,1,.27-1.63A15.84,15.84,0,0,1,446.6,445.43Z"/><path class="cls-87" d="M452.6,475.06a11.31,11.31,0,0,1-1-2.41c-.22-3.15-.37-6.31-.5-9.46a.89.89,0,0,1,1.19-1c.39.1,1,.53,1,.78C453.07,466.7,453.29,470.46,452.6,475.06Z"/><path class="cls-87" d="M392.93,467.6c-.17,1.64-.35,3.68-.59,5.71,0,.25-.36.46-.55.68-.25-.26-.72-.52-.73-.8-.16-3.16-.25-6.31-.35-9.47,0-.3,0-.71.15-.89a1.8,1.8,0,0,1,1.11-.65,1.21,1.21,0,0,1,.91.76C393,464.35,392.93,465.77,392.93,467.6Z"/><path class="cls-40" d="M391.26,506.5a26.66,26.66,0,0,1-2.7-.2,1.27,1.27,0,0,1-1-1.75c.13-.47.69-1.12,1.11-1.16a42.6,42.6,0,0,1,5.65-.09c.35,0,.83.8,1,1.3a1.24,1.24,0,0,1-1.06,1.71C393.27,506.43,392.32,506.43,391.26,506.5Z"/><path class="cls-88" d="M365.4,590.72a3.26,3.26,0,0,1-3.28-4.76,9.8,9.8,0,0,1,4.39-4.81,2.84,2.84,0,0,1,4,1.26,4.5,4.5,0,0,1,.5,1.32A6.47,6.47,0,0,1,365.4,590.72Z"/><path class="cls-3" d="M436.34,693.63c1.2-.68,2.39-1.38,3.61-2,5.91-3.17,11.8-6.36,17.74-9.44a6.28,6.28,0,0,1,3.18-.67c8.77.58,17.53,1.27,26.29,1.91,2.87.21,5.74.36,8.6.61,1.22.11,2.53-.11,3.94.82-2.51,2-4.82,3.45-8.12,3.13-8.1-.8-16.23-1.35-24.35-2-2.38-.18-4.78-.25-7.17-.28-.84,0-1.64.41-1.56,1.39s.82,1.31,1.67,1.41c3,.35,6,.74,9,1,7.63.65,15.28,1.22,22.92,1.86,10.19.86,20.37,1.77,30.55,2.62a21.64,21.64,0,0,0,4.26,0c.41-.05.88-.83,1-1.36a1.33,1.33,0,0,0-.72-1.08,24.65,24.65,0,0,0-4.15-.85c-7.12-.71-14.25-1.35-22.33-2.1,3.43-2.19,5.77-4,9.35-3.63,11.45,1.11,22.92,1.92,34.39,2.88a21,21,0,0,1,2.92.73c-1.83,2-3.89,2.9-5.74,4.09-3.62,2.32-7.29,4.56-11,6.76a4.31,4.31,0,0,1-2.27.47c-2.71-.13-5.42-.37-8.12-.59-18.16-1.5-36.35-2.34-54.55-3.08-9.73-.39-19.44-1.23-29.16-1.87Z"/><path class="cls-29" d="M551.36,691.63c.63,2.24.54,3.93-1.5,5.42-4,2.92-7.83,6.05-11.75,9.07a7.92,7.92,0,0,1-5.33,1.71c-4-.14-8-.1-12-.25-5.26-.2-10.52-.5-15.78-.78-18.66-1-37.31-1.92-56-3-5.1-.29-10.17-1-15.25-1.53-1.41-.14-1.27-1.18-1.29-2.1,0-1.36.32-1.78,1.64-1.71,6.37.33,12.75.67,19.12,1.08s12.74,1,19.11,1.36c12.91.81,25.83,1.49,38.73,2.34,4.77.31,9.54.9,14.29,1.48a12.6,12.6,0,0,0,9.85-2.4C540.34,698.49,545.84,695.25,551.36,691.63Z"/><path class="cls-1" d="M173,493.61c-.17-7.3-.34-14.14-.48-21,0-1.27.42-1.71,1.68-1.72,2.4,0,4.79,0,7.18.06l39.73.49a9.38,9.38,0,0,1,2.38.11c.46.13,1.12.76,1.12,1.16,0,6.39-.05,12.77-.09,19.15,0,1.13-.5,1.75-1.7,1.76-1.91,0-3.83.07-5.74.08l-40.7.05C175.39,493.76,174.44,493.68,173,493.61Z"/><path class="cls-3" d="M197.18,437.57a11.36,11.36,0,0,1-4.76,7.83,19.82,19.82,0,0,1-10.67,3.83,10.54,10.54,0,0,1-11.38-10.31c0-1.54.44-2.11,1.86-2.1q12,.14,23.92.34A3.57,3.57,0,0,1,197.18,437.57Z"/><path class="cls-24" d="M171.83,433.3c2.12-4.94,5.35-7.85,10-9.18a3.63,3.63,0,0,1,1.39,0c1.56.2,3.12.4,4.68.63a10.55,10.55,0,0,1,8.63,6.63,1.11,1.11,0,0,1-1,1.65c-1.59.06-3.18,0-4.76.06l-15.73.18Z"/></g><g id="text"><text id="launch_success_GREAT_JOB_DEVELOPERS_SIMPLEMECH_X_IS_FULLY_O" data-name="launch success!  GREAT JOB, DEVELOPERS! SIMPLEMECH X IS FULLY O" class="cls-89" transform="translate(333.81 128.99)"><tspan class="cls-90"><tspan class="cls-91">L</tspan><tspan class="cls-92" x="25.64" y="0">A</tspan><tspan x="52.62" y="0">UNCH SU</tspan><tspan class="cls-92" x="260.48" y="0">C</tspan><tspan x="289.34" y="0">CESS!</tspan></tspan><tspan class="cls-93"><tspan x="-24.98" y="75.6">GR</tspan><tspan class="cls-94" x="27.54" y="75.6">E</tspan><tspan class="cls-95" x="50.86" y="75.6">A</tspan><tspan x="70.53" y="75.6">T JOB, DEVE</tspan><tspan class="cls-96" x="283.92" y="75.6">L</tspan><tspan x="302.89" y="75.6">OPE</tspan><tspan class="cls-92" x="376.13" y="75.6">R</tspan><tspan x="400.66" y="75.6">S!</tspan><tspan x="-149.84" y="123.6">SIMPLEMECH X IS FUL</tspan><tspan class="cls-95" x="253.29" y="123.6">L</tspan><tspan x="269.85" y="123.6">Y OPER</tspan><tspan class="cls-95" x="399.73" y="123.6">A</tspan><tspan x="419.4" y="123.6">TIO</tspan><tspan class="cls-97" x="482.45" y="123.6">N</tspan><tspan x="512.88" y="123.6">AL</tspan><tspan x="31.41" y="171.6">AND GOOD</tspan><tspan class="cls-98" x="238.07" y="171.6"> </tspan><tspan class="cls-99" x="246.39" y="171.6">T</tspan><tspan x="267.16" y="171.6">O GO!</tspan></tspan></text></g></g></svg>