<svg xmlns="http://www.w3.org/2000/svg" viewBox="0 0 361.11 203.87"><defs><style>.cls-1{fill:#fff;}.cls-2{fill:#010000;}.cls-3{fill:#cdcdcd;}.cls-4{fill:#fdfdfd;}.cls-5{fill:#fefefe;}.cls-6{fill:#030303;}.cls-7{fill:#040404;}.cls-8{fill:#010101;}.cls-9{fill:#fcfcfc;}</style></defs><g id="Capa_2" data-name="Capa 2"><g id="small_box" data-name="small box"><path class="cls-1" d="M180.26,203.81q-79.2,0-158.4.06a21.32,21.32,0,0,1-11.39-3c-6.74-4-10.28-10-10.36-17.79-.18-16.79-.06-33.59-.06-50.39q0-55.2,0-110.4A23.85,23.85,0,0,1,2.32,11.69,19.48,19.48,0,0,1,10.7,2.76a21.94,21.94,0,0,1,11-2.71Q162.8.1,303.91,0c12,0,24,.3,36,0a21.15,21.15,0,0,1,20.64,15.46,18.31,18.31,0,0,1,.5,4.75c.08,3.52.06,7,.06,10.56q0,75.83,0,151.67a21.19,21.19,0,0,1-2.15,9.7,20.48,20.48,0,0,1-18.38,11.64q-58.56,0-117.12,0H180.26Z"/><path class="cls-2" d="M181.25,6.17q78.92,0,157.85,0c2,0,4.08-.21,6.13.64,6.7,2.77,9.84,7.7,9.83,14.9q0,63.57,0,127.15c0,11.19-.13,22.39,0,33.58a14.93,14.93,0,0,1-10.23,14.63,8.84,8.84,0,0,1-2.34.47c-1.11.08-2.23,0-3.35,0q-158.58,0-317.15,0a16.4,16.4,0,0,1-8.28-1.82c-4.83-2.66-7-6.86-7.36-12.08-.27-3.82-.12-7.67-.12-11.51q0-75.09,0-150.17a17,17,0,0,1,1.57-7.89A13.57,13.57,0,0,1,20.51,6.22c14.88-.16,29.75-.1,44.62-.1H181.25Z"/><path class="cls-3" d="M348.32,15.76c1.44,1.52,1.45,3.46,1.48,5.35.05,2.72,0,5.44,0,8.16L349.84,179c0,1.76,0,3.53-.13,5.28a8.12,8.12,0,0,1-3.35,6.11,5.26,5.26,0,0,1-3.52,1.29c-.79-.07-1.6,0-2.4,0H22.3c-1.11,0-2.23-.1-3.34-.15A6.2,6.2,0,0,1,17.51,187c-.28-12-1.21-23.91-1.92-35.87-1.44-24.26-1-48.55-1-72.84-.05-17,1.69-33.8,3.53-50.64.64-5.92,3.72-9.2,9.15-10.91a32.75,32.75,0,0,1,9.91-1.48c69.54,0,139.09-.6,208.62.29,30.68.39,61.36.18,92,.67A74.12,74.12,0,0,0,348.32,15.76Z"/><path class="cls-4" d="M348.32,15.76c-.26.94-.51,1.89-1.75,1.93s-2.23.07-3.35.07q-42.93,0-85.86-.07c-1.9,0-3.79-.4-5.69-.54s-3.83-.23-5.74-.23L60.3,16.85c-8.15,0-16.31.07-24.46-.11C31.69,16.65,28,18,24.32,19.54a6.83,6.83,0,0,0-4.49,6.66c-.17,4.26-1,8.5-1.62,12.75,0,.16-.06.32-.07.48-.36,5.08-.77,10.16-1.07,15.24-.17,2.86.07,5.74-.76,8.56a13.84,13.84,0,0,0-.17,3.82q0,31.42,0,62.84c0,1.89.41,3.78.59,5.68.12,1.27.21,2.54.23,3.82.06,3.84,0,7.67.13,11.51.05,1.9.41,3.79.57,5.69.14,1.58.21,3.18.29,4.77.21,4.61.16,9.2.74,13.83.68,5.36.2,10.86.23,16.29-3.47.42-5.35-1.7-6.57-4.44a12.58,12.58,0,0,1-.84-4.66c-.11-4.15,0-8.31,0-12.47q0-72.93,0-145.87a41.28,41.28,0,0,1,.08-4.31,8.42,8.42,0,0,1,3.63-6.47,5.42,5.42,0,0,1,3.55-1.18c1,.08,1.92,0,2.88,0H339.75c.64,0,1.28,0,1.92,0A6.46,6.46,0,0,1,348.32,15.76Z"/><path d="M185.49,75.1h4.83q16.32,0,32.64,0c5.86,0,6.23.34,6.61,6.15.16,2.55.18,5.12.18,7.68q0,23.52,0,47c0,1.27,0,2.56.07,3.83a1.5,1.5,0,0,0,1.5,1.53c.8,0,1.6,0,2.4,0h62.4c4.24,0,4.16.2,4.27-4.15.23-9-.21-17.9-.52-26.84s-.31-17.6-.33-26.4c-.05-15.52,0-31,0-46.56,0-.95,0-1.92,0-2.87.18-3.11.85-3.54,3.93-4.21,9.65-2.1,19.38-.64,29.07-.91a9.23,9.23,0,0,1,3.21.76A4.38,4.38,0,0,1,338.93,35c-.06.79,0,1.6,0,2.4q0,34.32,0,68.63c0,18.88-.1,37.76-.16,56.64,0,.64,0,1.28,0,1.92-.11,4.42-2.63,7.08-7.09,7.12q-13,.12-25.92,0c-4,0-5.39-1.54-5.45-5.61-.08-5.44,0-10.88,0-16.32,0-2.2-.21-2.39-2.52-2.41-4.16,0-8.32,0-12.48,0l-48.47,0c-2.24,0-4.5-.22-6.72,0-3.14.25-4.84-1.31-5.6-4.07a20.93,20.93,0,0,1-.79-5.15c-.11-5,0-9.92,0-14.88,0-2.39-.2-2.58-2.36-2.58-6.88,0-13.76,0-20.64,0a3,3,0,0,0-3,1.75q-6.75,12.71-13.61,25.35a6,6,0,0,0-.73,3.62c.19,2.07-.68,3-2.58,3.33a20.78,20.78,0,0,1-3.35.18q-40.56,0-81.11,0c-1.59,0-3.45-.68-4.67-.06s-1.7,2.55-2.63,3.81a29.88,29.88,0,0,1-3.39,4c-6.72,6.28-15.26,6.19-22.3.9-9.29-7-7.78-21.6.64-27.43a19.49,19.49,0,0,1,11.23-3.65,12.77,12.77,0,0,1,8.77,3.34,22.16,22.16,0,0,1,6.16,9c1.48,4.08,1.5,4.06,6,4,13.44,0,26.88,0,40.32,0,1.56,0,3.12-.12,4.86-.19-1.53-9.44-3-18.54-4.5-27.89-1.5,0-3.08-.11-4.66-.11q-12.72,0-25.44,0c-1.45,0-2.87,0-4-1.09a2.29,2.29,0,0,1,0-3.7,5.78,5.78,0,0,1,2.11-1,10.55,10.55,0,0,1,2.39-.09H136c.48,0,1,0,1.44,0,2.5.19,3.13.84,3.44,3.58a7.69,7.69,0,0,0,.2,1.88c2.66,6.77,3.13,14,4.63,21,1.88,8.83,0,7.48,8.72,7.56,7.2.07,14.4,0,21.6,0,2.87,0,3,0,3.76-2.57,3.08-9.86,8.43-18.6,13.29-27.6,1.57-2.9,3.95-3.94,7.08-3.92,6.24,0,12.48,0,18.72,0,1.12,0,2.24,0,3.36,0s1.36-.68,1.44-1.55c0-.48,0-1,0-1.44q.06-14.16.09-28.32c0-1.93-.27-2.17-2.2-2.24-1,0-1.92,0-2.88,0-10.56,0-21.13-.2-31.68.13-3.69.12-5.72-1.32-7.21-4.24a25.37,25.37,0,0,1-1.44-3.55c-1.69-5-3.32-10-5-15-.82-2.42-1-2.6-3.32-2.61q-16.08,0-32.16,0c-2.17,0-2.52.38-2.55,2.5,0,3,0,6.08,0,9.12,0,1.43,0,2.88-.14,4.31-.11,1.22,0,2.86-.73,3.55a10.11,10.11,0,0,1-4.25,2,14.24,14.24,0,0,1-3.82.24H45.31c-1.6,0-3.2-.1-4.8-.15a3.44,3.44,0,0,1-3-2,9.76,9.76,0,0,1-1.48-5c.11-11.2.09-22.4.27-33.6.07-4.69,1-5.48,5.8-5.51,7.68-.05,15.36,0,23,0q30.24,0,60.47,0a62.39,62.39,0,0,1,6.7.37c2,.21,2.85,1.11,3,3.1.15,2.39,0,4.8.13,7.2s.25,4.73.38,7.1c2.41,1.21,5,.56,7.48.59,8.64.09,17.28,0,25.92,0a22,22,0,0,1,3.35.07c2.87.45,5,1.81,5.95,4.81,1.82,5.79,3.79,11.53,5.73,17.29C184.53,72.89,185,73.89,185.49,75.1Z"/><path class="cls-5" d="M321.36,183.84c-3.43-.16-7.27.34-11.05-.73a14.69,14.69,0,0,0-3.82-.13c-8,0-16,0-24-.09a17,17,0,0,1-3.78-.42,2.11,2.11,0,0,1-1.14-1.35c-.23-.92.5-1.49,1.27-1.74a10.74,10.74,0,0,1,2.35-.33c15.62-1.36,31.28-.8,46.93-1a18.64,18.64,0,0,1,3.81.25,2.35,2.35,0,0,1,1.23,3.81,4,4,0,0,1-3.27,1.7Z"/><path class="cls-6" d="M98.4,98.28c6.06,0,12.11,0,18.16,0a5.65,5.65,0,0,1,4.4,1.4,1.89,1.89,0,0,1,.14,2.9,4.89,4.89,0,0,1-3.35,1.6c-1,0-1.92,0-2.87,0q-16.72,0-33.45-.11a24.17,24.17,0,0,1-4.25-.39,2.63,2.63,0,0,1-2-2.39A2.81,2.81,0,0,1,77.4,98.6a25.35,25.35,0,0,1,3.8-.24c5.74,0,11.47,0,17.2,0Z"/><path class="cls-6" d="M266.5,82.34c-5.6,0-11.2,0-16.8,0a18.54,18.54,0,0,1-3.33-.25,2.62,2.62,0,0,1-2-2.44A2.54,2.54,0,0,1,246,77a17.78,17.78,0,0,1,4.23-.55c9-.06,17.91,0,26.87-.05,2.56,0,5.12,0,7.68,0a11.77,11.77,0,0,1,2.38.18,3.07,3.07,0,0,1,2.54,3,3.1,3.1,0,0,1-2.57,2.5,22,22,0,0,1-3.34.2c-5.76,0-11.52,0-17.28,0Z"/><path class="cls-6" d="M266.79,121.4H250.47a24.9,24.9,0,0,1-3.35-.12,2.88,2.88,0,0,1-2.7-2.84,2.78,2.78,0,0,1,2.64-2.86,21.06,21.06,0,0,1,2.87-.15q17,0,34.07,0a18.47,18.47,0,0,1,3.79.39,2.67,2.67,0,0,1,1.9,2.48,2.29,2.29,0,0,1-1.47,2.28,14.42,14.42,0,0,1-4.16.77c-5.75.08-11.51,0-17.27,0Z"/><path class="cls-6" d="M267.23,66.68c-5.59,0-11.18,0-16.77,0a17.26,17.26,0,0,1-4.22-.6,2.46,2.46,0,0,1-1.68-2.61,2.72,2.72,0,0,1,2-2.37,17.72,17.72,0,0,1,3.33-.32q17.49,0,35,0a12.68,12.68,0,0,1,2.38.2,2.78,2.78,0,0,1,2.26,2.69,2.65,2.65,0,0,1-1.8,2.58,10.51,10.51,0,0,1-3.27.46C278.72,66.7,273,66.68,267.23,66.68Z"/><path class="cls-7" d="M267.14,99.54c5.75,0,11.5,0,17.25,0a11.28,11.28,0,0,1,3.28.43,2.63,2.63,0,0,1,1.87,2.53,2.77,2.77,0,0,1-2.19,2.75,17.51,17.51,0,0,1-3.32.28q-16.29,0-32.58,0a32.45,32.45,0,0,1-4.29-.31,2.68,2.68,0,0,1-.1-5.36,20.11,20.11,0,0,1,3.8-.33C256.29,99.52,261.72,99.54,267.14,99.54Z"/><path class="cls-8" d="M94.84,91c-5,0-9.91,0-14.86,0a16.44,16.44,0,0,1-3.77-.42,2.31,2.31,0,0,1,0-4.36A16.5,16.5,0,0,1,80,85.78c6.38-.12,12.77-.17,19.16-.28,3.51,0,7-.2,10.53-.26a21,21,0,0,1,3.81.18,2.87,2.87,0,0,1,2.47,3A2.79,2.79,0,0,1,113.49,91a16,16,0,0,1-2.85.23c-5.27,0-10.53,0-15.8,0Z"/><path class="cls-9" d="M256,179.82a3.82,3.82,0,0,1-3.86,4,3.93,3.93,0,0,1-3.45-3.43c-.21-1.41,1.62-3.09,3.52-3.23C254.45,177,255.93,178,256,179.82Z"/><path class="cls-1" d="M305.74,35.61a4.16,4.16,0,0,1,1.1-.43q12,0,24,.06c2,0,2.26.29,2.32,2.14.05,1.43,0,2.87,0,4.31q.06,61.14.12,122.27a11.94,11.94,0,0,1-.21,1.58,22.61,22.61,0,0,1-2.29.26c-7.2,0-14.39,0-21.58,0a13.84,13.84,0,0,1-1.44,0c-.88-.08-1.51-.46-1.52-1.46,0-1.27,0-2.55-.05-3.83-.05-11.67-.06-23.34-.19-35,0-3.83-.43-7.65-.64-11.47-.06-1.12-.07-2.24-.07-3.35l.3-70.49C305.6,38.62,305.69,37.06,305.74,35.61Z"/><path class="cls-1" d="M85.74,71.57H47.39c-1.12,0-2.24,0-3.36,0-2-.06-2.13-.18-2.14-2.25q-.12-15.1-.19-30.2c0-1.24.51-1.79,1.64-1.86.8,0,1.6,0,2.4,0h79.58c4.23,0,4.18-.35,4.16,4.15q0,12.94,0,25.88c0,.8,0,1.6,0,2.4-.07,1.6-.33,1.89-2,1.9-7.19,0-14.38,0-21.58,0Q95.81,71.59,85.74,71.57Z"/><path class="cls-5" d="M63,150.25c-.06-7.36,5.44-11.62,12-11.86a7.28,7.28,0,0,1,5.58,2.35,19,19,0,0,1,4.54,7.78,6.92,6.92,0,0,1-.94,6.37,20.29,20.29,0,0,1-2.38,3c-6,6-13.62,3.24-17.07-1.51A9.24,9.24,0,0,1,63,150.25Z"/></g></g></svg>