<svg xmlns="http://www.w3.org/2000/svg" viewBox="0 0 120.03 382.66"><defs><style>.cls-1{fill:#fff;}.cls-2{fill:#f90;}.cls-3{fill:#cdcdcd;}.cls-4{fill:#fd9801;}.cls-5{fill:#ccc;}.cls-6{fill:#fbfcfc;}.cls-7{fill:#fcfdfd;}.cls-8{fill:#fbfbfb;}.cls-9{fill:#f9fcfa;}.cls-10{fill:#f7f7f7;}.cls-11{fill:#f8fafa;}.cls-12{fill:#fafbfb;}.cls-13{fill:#f4f4f4;}.cls-14{fill:#cbc9c9;}.cls-15{fill:#b5b7b7;}.cls-16{fill:#f3f4f4;}.cls-17{fill:#f4f5f5;}.cls-18{fill:#fa9705;}.cls-19{fill:#f6fafa;}.cls-20{fill:#f7f6f2;}.cls-21{fill:#e48e0b;}.cls-22{fill:#e58e0a;}.cls-23{fill:#f9fcfc;}.cls-24{fill:#e89013;}.cls-25{fill:#edefef;}.cls-26{fill:#f2ede4;}.cls-27{fill:#f5f9f9;}.cls-28{fill:#f0f1ee;}.cls-29{fill:#f99702;}.cls-30{fill:#f39708;}.cls-31{fill:#d5870f;}.cls-32{fill:#f2efe9;}.cls-33{fill:#f2ece0;}.cls-34{fill:#f2ece1;}.cls-35{fill:#a9a7a7;}.cls-36{fill:#0a0909;}.cls-37{fill:#1b1b1b;}.cls-38{fill:#020201;}.cls-39{fill:#0b0a08;}.cls-40{fill:#090603;}.cls-41{fill:#f0f7f2;}.cls-42{fill:#f9fbfb;}.cls-43{fill:#fafcfc;}.cls-44{fill:#e4e6e6;}.cls-45{fill:#fffefe;}.cls-46{fill:#140b0b;}.cls-47{fill:#1b1919;}</style></defs><g id="Capa_2" data-name="Capa 2"><g id="simplemech_leg1" data-name="simplemech leg1"><path class="cls-1" d="M62.66,382.59a86.2,86.2,0,0,1-28.87-3.69,22.82,22.82,0,0,1-11-7.19c-5-5.74-4.53-11.51-1.55-17.26A35.47,35.47,0,0,0,23,351.11a1.49,1.49,0,0,0-1.25-2.1c-4.76-.47-7.82-3.29-10-7.21a2.31,2.31,0,0,0-1.85-1.27,12.33,12.33,0,0,1-6.3-3.17,9.51,9.51,0,0,1-3.48-7.55c-.06-3.67-.09-7.35,0-11a12,12,0,0,1,2.34-7.16c1.52-2,3.21-3.58,5.73-4a3.92,3.92,0,0,0,3.58-3.16,7.33,7.33,0,0,1,4.12-5.06c2.47-.92,2.35-2.57,2.14-4.54-.46-4.29-.85-8.58-1.28-12.87a179.11,179.11,0,0,1-.55-26.81A79.16,79.16,0,0,1,20,234.5a28.62,28.62,0,0,1,5.43-10.05A4,4,0,0,0,26.49,221c-.32-2.53-.47-5.08-.64-7.62-.08-1.07-.44-1.89-1.58-2-4.3-.65-6.07-3.88-7.27-7.43a6,6,0,0,0-3.95-4.25c-4.12-1.33-5.65-4.42-5.66-8.47s0-8,.16-12c.18-4.4,2.55-7.32,7-8.47,1.78-.46,2.74-1.26,3-3.07.86-5.28,4.94-7.4,9.16-7.39a9.94,9.94,0,0,0,2.38-.16c.37-.08.72-.53.95-.9a1.81,1.81,0,0,0,.08-.94c0-4.95,0-9.91,0-14.86-.14-9.58-.36-19.16-.53-28.74-.05-2.55,0-5.1,0-7.65-.13-5.12,1-9.83,4.28-13.88a3.31,3.31,0,0,0,.8-3.49A7,7,0,0,1,35,85a5.8,5.8,0,0,0,0-4.22c-1.5-3.64-.51-7,1.47-10a10.46,10.46,0,0,0,1.69-6.27c-.05-8.46,0-16.93,0-25.39a24.31,24.31,0,0,1,2.2-11.17,2.4,2.4,0,0,0-.19-2.62c-1.66-2.72-3.37-5.37-4.21-8.55A13.33,13.33,0,0,1,47.34.1c4.94-.48,9.08.76,12.11,5.09,4.57,6.55,9.41,12.9,14,19.42,8.11,11.48,16.13,23,24.18,34.54,1.65,2.35,3.3,4.71,5,7,5.08,7.11,2.65,16-5.33,19.56a20.56,20.56,0,0,1-2.26.74c-2.39.73-3.23,3.16-1.59,5.08A25.67,25.67,0,0,1,98,98.29a24.29,24.29,0,0,1,1.74,9.35q.06,40.74.15,81.5a12.26,12.26,0,0,0,1.48,6.36,38.6,38.6,0,0,1,4.66,24,5.37,5.37,0,0,0,1,4.4c4.71,6.12,6.89,13.32,7.91,20.8a139.08,139.08,0,0,1,1.2,17.66c.1,11.35.12,22.7-.38,34-.46,10.35-1,20.76-4.28,30.74a3.74,3.74,0,0,0,.37,3.15,73.51,73.51,0,0,1,3.67,7.78A23.87,23.87,0,0,1,117,348a11.73,11.73,0,0,0,1.21,6.45,19,19,0,0,1,1.82,8.35c.13,4.44-1.89,7.64-5.5,10a30.45,30.45,0,0,1-9.67,4.05,194.3,194.3,0,0,1-24.54,4.14C74.43,381.52,68.54,382,62.66,382.59Z"/><path d="M41.15,93.53c-1.78-3.25-2.08-6.29-.58-9.44a2.87,2.87,0,0,0,0-2.21c-1.9-3.76-1.48-7,1.52-10a4.28,4.28,0,0,0,.93-2.57c.14-2.06.06-4.15.05-6.22q0-12,0-24c0-3.75.53-7.37,2.86-10.43,1-1.3.74-2.26-.08-3.42a54.41,54.41,0,0,1-3.16-4.8,21.62,21.62,0,0,1-1.89-4.36A8.66,8.66,0,0,1,50.74,5.18a7.46,7.46,0,0,1,4.69,3.07c3.1,4.27,6.29,8.47,9.32,12.78Q81.44,44.75,98,68.52a15.38,15.38,0,0,1,1.31,2,8.18,8.18,0,0,1-8.16,11.91,32.51,32.51,0,0,1-3.71-.84,1.32,1.32,0,0,0-1.38,1.54c.3.9.71,1.76,1.1,2.63.62,1.35,1.12,2.85.46,4.17-1.14,2.26-.62,3.51,1.47,5,4,2.73,5.37,7,5.69,11.63.18,2.55,0,5.12,0,7.67L95,185.14a31.14,31.14,0,0,1,0,3.35,16.88,16.88,0,0,0,2.46,10.41,32,32,0,0,1,3.45,22.26,4.9,4.9,0,0,0,1.19,4.76c4.87,5.44,6.8,12.23,8,19.21a79.21,79.21,0,0,1,1.08,12.39c.09,12.78.13,25.57-.16,38.34a158.6,158.6,0,0,1-2.56,24.28c-.49,2.68-1,5.34-2.51,7.68a2.21,2.21,0,0,0,.13,2.65c.93,1.49,1.81,3,2.7,4.53a24.46,24.46,0,0,1,3.33,15.65,7.23,7.23,0,0,0,.85,4.51,20.54,20.54,0,0,1,2,6.31c.64,4.13-.53,6.35-4.23,8.19a32.51,32.51,0,0,1-7.13,2.74C97.82,373.7,92,375,86.19,375.74c-10.45,1.39-21,2.52-31.53,2.23a79.79,79.79,0,0,1-19.78-3.36c-4.29-1.21-7.27-3.95-9.66-7.41s-1.59-7.22.61-10.32c1.39-2,2.26-3.74,2-6.06-.24-2,1.21-4,.05-6-1.89-.12-3.78-.3-5.68-.36-3.42-.11-5.26-2.7-6.16-5.18s-2-3.4-4.66-3.39c-4.07,0-6.46-2.61-6.47-6.64,0-3.51.09-7,.34-10.53.28-4.13,1.69-5.57,5.78-6.37a2,2,0,0,1,.47-.09c2.66.13,4.28-.85,4.09-3.8a1.31,1.31,0,0,1,.12-.46c.86-2.86,2.4-4.73,5.75-4.7,2.3,0,2.47-.41,2.23-2.52-.76-6.5-1.71-13-2.21-19.5-.86-11-1.32-22,.32-33,.43-2.84,1.09-5.64,1.74-8.44,1.17-5.06,3.16-9.72,6.94-13.43A3.41,3.41,0,0,0,31.55,223a33.94,33.94,0,0,1-.31-14.26c.2-1-.47-1.43-1.37-1.52-.64-.06-1.28,0-1.92-.06-3.9-.18-6.07-2-6.84-5.87a27.12,27.12,0,0,1-.24-2.86,1.56,1.56,0,0,0-1.44-1.6,13.15,13.15,0,0,1-1.43-.11c-4.89-1.18-5.74-2.25-5.73-7.18,0-2.39,0-4.79,0-7.19a19,19,0,0,1,.09-2.39c.4-2.81,1.9-4.36,4.76-4.31,4.13.09,4.25-.33,4.71-4.13.62-5.16,1.8-6.07,7.21-6.14,1.43,0,2.87,0,4.31,0a1.6,1.6,0,0,0,1.75-1.78c0-1.27.06-2.55,0-3.83-.19-9.9-.42-19.81-.56-29.71-.12-7.82-.15-15.65-.17-23.47C34.43,101.3,36.09,96.82,41.15,93.53Z"/><path class="cls-1" d="M39.85,190.79c-.18-7.12-.47-13.18-.44-19.23.07-13.09.34-26.17.48-39.26.08-7.82.07-15.64.12-23.46a41.12,41.12,0,0,1,.19-4.3,7.58,7.58,0,0,1,5.59-7,21,21,0,0,1,8.43-1.34c2.66.25,5.39-.58,8,.53.07,2.55.21,5.09.2,7.64q-.13,33.52-.33,67c0,2.55,0,5.1,0,7.54-4.18,1.51-8.1,2.77-11.89,4.33S43.55,187.48,39.85,190.79Z"/><path class="cls-1" d="M89.51,188.11c-7.28-5.67-14.62-8.44-22.79-8.79-.9-1.74-.59-3.54-.62-5.25q-.27-15.8-.37-31.58c-.07-13.88,0-27.76,0-41.64a21.86,21.86,0,0,1,.08-3.34c.07-.48.68-1.26,1.06-1.27,4.62-.09,9.27-.3,13.87,0a9.55,9.55,0,0,1,6.94,3.8A10,10,0,0,1,90,106.66q-.31,22.25-.43,44.5c-.06,10.53,0,21.06,0,31.58Z"/><path class="cls-2" d="M86.26,194.61c5.52,4.23,8.21,10.13,9.3,16.71,2.58,15.58-7,29.84-22.38,33.62a29.51,29.51,0,0,1-35-18.76,32,32,0,0,1-.8-3.21,47.29,47.29,0,0,1,3.72-17c5-12.87,22-20.69,35.35-15C79.64,192.36,83.13,193,86.26,194.61Z"/><path class="cls-3" d="M59.3,249.67A36.58,36.58,0,0,0,79,247.83a2.77,2.77,0,0,1,.91,0,1.58,1.58,0,0,1,.32.31.85.85,0,0,1,.18.43q0,28,0,56c0,1.12-.09,2.24-.2,3.35a4.64,4.64,0,0,1-.53,1.11c-6-1.62-12.24-.95-18.44-.9-2.63-3.59-2.21-7.94-2.35-11.91-.41-11.74-1.76-23.46-1.19-35.24C58,257.13,57.9,253.31,59.3,249.67Z"/><path class="cls-4" d="M53.64,13.53c.69.86,1.43,1.69,2,2.59Q74.07,43.06,92.4,70c.63.93,1.28,1.84,1.86,2.8,1.2,2,.28,3.93-2,4.06a6.52,6.52,0,0,1-5.92-2.48c-.29-.38-.54-.79-.81-1.19q-14.16-20.52-28.32-41a19.78,19.78,0,0,1-1.1-2.09c-1.18-3.44-3.87-6.21-4.39-9.93C51.39,17.68,50.55,15,53.64,13.53Z"/><path class="cls-5" d="M49.74,362.86A30.63,30.63,0,0,1,54,363c7.63,1.24,15.29,1,22.94.49a112.76,112.76,0,0,0,19.44-2.64c3.24-.8,6.43-1.82,9.64-2.76,1.63-.47,2.31-.1,2.79,1.58.09.31.17.62.23.93.53,2.56.36,3.18-2,4.07A61.5,61.5,0,0,1,98,367.45a212,212,0,0,1-39.46,4.36C50.2,372,42,371,34.21,367.57c0-3.37,2.85-3.41,5-3.92,3.3-.78,6.67-.31,10,.25C51.21,364.24,49,362.88,49.74,362.86Z"/><path class="cls-6" d="M38.39,324.21A26.81,26.81,0,0,1,49.23,316a36.74,36.74,0,0,1,12.43-3.21c5.26-.38,10.48-1,15.74,0A54.68,54.68,0,0,1,92,317.29a28.54,28.54,0,0,1,9.09,7.1c-4-.59-7-2.35-10.37-2.88s-6.91-1.27-10.39-1.61-7-.42-10.52-.42-7,.09-10.52.42a98.91,98.91,0,0,0-10.4,1.59C45.46,322.2,42.14,323.22,38.39,324.21Z"/><path class="cls-7" d="M38.51,329.52c2.49-2.22,7.06-3.85,14.47-5,15.28-2.42,34.9-1.48,44.23,3.14C87.48,331.28,49.19,332.51,38.51,329.52Z"/><path class="cls-8" d="M33.4,323.93c-1-5.43-1.91-10.27-2.67-15.13A301.2,301.2,0,0,1,27,274.51c0-.8-.14-1.6-.16-2.39-.18-4.9-.49-4.79,4.47-4.77a28.65,28.65,0,0,1,7.24.69,15.63,15.63,0,0,1-1.85.65c-1.4.32-2.82.55-4.23.82a1.5,1.5,0,0,0-1.29,1.7,71.27,71.27,0,0,0,.36,7.17q2.2,15.66,4.62,31.29c.41,2.67,1.17,5.3,1.64,8a3.08,3.08,0,0,1-.44,2.2A56.68,56.68,0,0,1,33.4,323.93Z"/><path class="cls-6" d="M34,231c2.14,1.84,2.53,3.5,1.73,5.8A47.38,47.38,0,0,0,33,252.68c0,2.85.14,3.29,3,3.94a70.6,70.6,0,0,0,7.53,1.18c2.21.28,4.45.34,6.66.64a2.77,2.77,0,0,1,2,4,1.87,1.87,0,0,1-1.14.7,9.28,9.28,0,0,1-1.9.1l-18.17,0a23.75,23.75,0,0,1-2.39-.09c-1.05-.1-1.81-.53-1.78-1.76s0-2.23.05-3.34a75.11,75.11,0,0,1,3.53-20.16A20.91,20.91,0,0,1,34,231Z"/><path class="cls-9" d="M86.26,194.61c-2.32-.45-4.66-.85-7-1.38A29.44,29.44,0,0,1,75.7,192c-8.19-3.15-15.9-1.53-23.37,2.34a19,19,0,0,0-6.83,6.51,39.28,39.28,0,0,0-6.38,15.26c-.43,2.32-1.16,4.58-1.75,6.86-4.85-16.72,8.54-37.64,30.32-36.67a28.47,28.47,0,0,1,17.07,6.52A13.14,13.14,0,0,1,86.26,194.61Z"/><path class="cls-10" d="M59.3,249.67a5.05,5.05,0,0,1,.7,4.1,31.71,31.71,0,0,0-.68,5.65q-.12,8.63,0,17.25c0,2.05.44,4.1.63,6.15.12,1.27.18,2.54.24,3.81.22,4.93-.28,9.87.84,14.77.49,2.14.21,4.46.28,6.69l-.16,0c-.85.63-2,.05-2.84.7-.75.12-1.62.49-1.9-.64a8,8,0,0,1-.16-1.9Q56,279,55.67,251.63a9.7,9.7,0,0,1,0-1.43c.16-1,.85-1.22,1.74-1Z"/><path class="cls-11" d="M56.25,341.44a5.46,5.46,0,0,1,.28-.92c2.82-5.55,2.82-5.5,9-5.91,7.48-.49,15-1,22.44-1.63,3.48-.31,6.94-1,10.39-1.63a2.18,2.18,0,0,1,2.69,1.35c1.49,3.17,3,6.32,4.38,9.54,1.3,3,.76,6.28.73,10.37-.8-1.74-1.33-2.72-1.72-3.75a29.82,29.82,0,0,0-5-8.68c-2.6-3.12-5.73-4.87-10-4.39-7,.77-14,1.21-21,2a16,16,0,0,0-11.19,5.76,2.08,2.08,0,0,0-.82,1,1.29,1.29,0,0,1-.36.68c-.88.2-1.28,0-.93-1l.45-1.67A11.34,11.34,0,0,1,56.25,341.44Z"/><path class="cls-12" d="M55.44,335.32a48.63,48.63,0,0,0-5.55,14.52c-.58,2.48-.89,5-1.36,7.54a1.35,1.35,0,0,1-1.7,1.23c-4.13-.93-4-.45-3.57-4.48a48.71,48.71,0,0,1,2.39-11.22c.58-1.6.24-2.21-1.19-3.22a12.54,12.54,0,0,0-6.27-2.12,1,1,0,0,1-1.07-1.26,6.3,6.3,0,0,1,1.07-2c.12-.18.6-.16.91-.14C44.35,334.52,49.59,334.9,55.44,335.32Z"/><path class="cls-13" d="M49.89,31.23c1.42,1.87,2,2.78,2.74,3.6,1.46,1.7,1.61,3.5,1.28,5.73A111.59,111.59,0,0,0,52.48,59.1c.05,2.71,0,5.41,0,8.12,0,2.25-.58,2.68-2.92,2.5a1.46,1.46,0,0,1-1.53-1.47c0-1,0-1.91,0-2.87-.45-9.38.6-18.74.69-28.11C48.72,35.59,49.34,33.92,49.89,31.23Z"/><path class="cls-14" d="M51.62,85.51c4.46-.1,8.91-.28,13.37-.27,4.93,0,9.87.2,14.81.25a3,3,0,0,1,2.89,2.06,2.66,2.66,0,0,1-1.93,3.62,11.4,11.4,0,0,1-1.43.06L47.75,91.1c.79-2.53,2.86-2,4.68-1.86,1.64.14,3.22.8,5.06.49.49,0-.48-.92-.15-.37.13.21,0,.34-.36.3C54.36,89.36,50.85,90.18,51.62,85.51Z"/><path class="cls-15" d="M47.78,75.12c7.32,0,14.63.06,21.94,0,3,0,6-.17,9.06-.19A3.62,3.62,0,0,1,82,79.65a1.15,1.15,0,0,1-.57.67,3.6,3.6,0,0,1-1.37.27c-6.35,0-12.71-.06-19.06-.18-3.16-.06-6.31-.32-9.47-.49,3-2.67,6.15-.38,8.66-.58-2.66-.67-6.16-.51-9.29-1.93C49.72,76.87,48,77,47.78,75.12Z"/><path class="cls-16" d="M99,295.12c-1.81-5.15-1.72-10.44-2.23-15.62a163.42,163.42,0,0,0-4.37-24.93,27.81,27.81,0,0,1-.59-4.19c0-.18.36-.5.61-.58s.75-.05.87.12a8.05,8.05,0,0,1,1.45,2.37c1.25,4.61,2.64,9.2,3.48,13.89,1,5.48,1.48,11.05,2.15,16.59A29.19,29.19,0,0,1,99,295.12Z"/><path class="cls-17" d="M104.8,264c-1.77-7.08-3.5-14.18-5.33-21.25-.52-2-.87-4.25-2.06-5.81-2.06-2.72-1-4.55.91-6.64,1.89,1.69,2.77,3.91,3.61,6.13a52.43,52.43,0,0,1,3,12.54A53.62,53.62,0,0,1,104.8,264Z"/><path class="cls-18" d="M23,326.36c3.43-.87,5.83-.06,7.63,3.4a6.26,6.26,0,0,1,.37,6.09c-1.19,2.68-1.07,2.76-4.05,2.77-1.41,0-2.82-.14-4.23-.21C21.84,334.37,20.1,330.31,23,326.36Z"/><path class="cls-19" d="M49.74,362.86l3.4,1.76c-4.48,0-8.18-.11-11.86,0-2.65.11-5.37.34-7.07,2.91-3.79-1.06-5.07-2.63-4.69-5.77.25-2.17,1.75-2.87,4-2.35,5.08,1.18,10.21,2.16,15.32,3.22Z"/><path class="cls-20" d="M53.64,13.53a5.81,5.81,0,0,0-.93,5.78c.71,2.26,1.54,4.47,2.27,6.71.44,1.33.77,2.7,1.15,4.05-3.29-4.51-6.6-9-9.86-13.53a4.32,4.32,0,0,1,.92-5.94c1.57-1.38,3.82-1.11,5.46.8A8.16,8.16,0,0,1,53.64,13.53Z"/><path class="cls-21" d="M14.8,323.77c0,1.58,0,3.17,0,4.75,0,1.27-.68,1.7-2.28,1.67s-2.13-.4-2.17-1.81c-.07-3-.09-6-.05-9a2.85,2.85,0,0,1,4-2.4,1.6,1.6,0,0,1,.64,1.13,26.88,26.88,0,0,1,0,2.84v2.84Z"/><path class="cls-22" d="M29.59,180.81c6.36,0,5.51,0,5.49,5.77a8.8,8.8,0,0,1-.13,2.36c-.15.52-.67,1.27-1.1,1.33-2.93.41-5.87,1.37-8.84.23C29,188.44,27.37,183.72,29.59,180.81Z"/><path class="cls-23" d="M47.78,75.12c.23.21.45.59.69.61,4.31.34,8.16,2.45,12.35,3.24.09,0,.13.27.18.38l-9.45.57a44.2,44.2,0,0,1-4.61-.13,2.29,2.29,0,0,1-2.15-2.09,2.62,2.62,0,0,1,1.27-2.78C46.49,74.71,47.2,75,47.78,75.12Z"/><path class="cls-24" d="M23.64,309.11c1-.24,1.48.35,1.64,1.17.41,2,.71,4,1.09,6,1.21,6.27.74,6.69-6.05,5.35,1.44-2,1.1-4.26,1.21-6.47S21.63,310.69,23.64,309.11Z"/><path class="cls-25" d="M71.74,347.94c.05,2.21-.81,3.55-2.13,4a3.36,3.36,0,0,1-3.7-1.37,4.64,4.64,0,0,1,.09-5.68c1.46-1.9,3.2-1.83,4.43.26A29.66,29.66,0,0,1,71.74,347.94Z"/><path class="cls-26" d="M29.59,180.81q-.14,3.51-.28,7c-.09,2.11-.31,2.35-2.43,2.56-.62.07-1.25.07-1.87.1-.11-2.78-.24-5.56-.31-8.34,0-1.08.48-1.8,1.67-1.71S28.52,180.69,29.59,180.81Z"/><path class="cls-27" d="M51.62,85.51a2.84,2.84,0,0,0,2.06,2.9c1.46.51,3,.9,5.33,1.61-3.3.3-5.74.17-8.16.22-1.11,0-2.27-.15-3.1.86-1.62.37-2.4-.75-2.7-1.93a5.9,5.9,0,0,1,.36-3.11c.13-.4,1-.78,1.55-.78C48.51,85.25,50.07,85.42,51.62,85.51Z"/><path class="cls-28" d="M23.64,309.11c-.29,3.48-.74,6.95-.82,10.44-.05,2-1.31,1.85-2.5,2.12-1-3.94-.33-7.89,0-11.83,0-.31.61-.78,1-.83A13.59,13.59,0,0,1,23.64,309.11Z"/><path class="cls-29" d="M29.52,195l1.84-.24c3.14-.36,4.57-.16,3.06,4.36a12.1,12.1,0,0,1-.56,1.28c-.78,1.61-.93,1.69-2.93,1.45a16.88,16.88,0,0,1-1.82-.39C27.93,199.23,27.85,197.06,29.52,195Z"/><path class="cls-30" d="M29.59,171a17.3,17.3,0,0,1,1.87-.22c3.84-.07,4,.09,3.76,3.91-.11,1.82-.42,2.13-2.33,2.08-1.25,0-2.51-.2-3.76-.3A4.3,4.3,0,0,1,29.59,171Z"/><path class="cls-31" d="M20.79,186.57A25.23,25.23,0,0,1,20.5,190c-.06.36-.93.72-1.47.81-.31,0-1-.45-1-.72-.09-2.84-.12-5.68,0-8.52,0-.28,1-.78,1.49-.72a1.76,1.76,0,0,1,1.24,1.09A38.91,38.91,0,0,1,20.79,186.57Z"/><path class="cls-32" d="M23,326.36c0,2.32,0,4.64-.06,7,0,1.69-.15,3.39-.22,5.09l-1.19-.12h-.1c-.5-3.21-1.13-6.4-1.44-9.62C19.71,326.19,20.07,326,23,326.36Z"/><path class="cls-33" d="M29.52,195c-.14,2.16-.27,4.31-.41,6.46-.32,0-.63.07-.95.09-1.2.07-2.26-.06-2.4-1.6,0-.47-.11-.95-.17-1.43C25.07,194.52,25.07,194.52,29.52,195Z"/><path class="cls-34" d="M29.59,171c-.15,1.82-.3,3.64-.46,5.47-.77,0-1.55.1-2.32.1s-1.49-.39-1.44-1.36.13-1.86.26-2.78c.21-1.5.45-1.71,2.15-1.73A10.36,10.36,0,0,1,29.59,171Z"/><path class="cls-1" d="M55.23,344.27l.93,1c-.65,1.57-1.29,3.15-1.95,4.72-.05.13-.24.19-.55.43"/><path class="cls-1" d="M58.32,308.82a2.34,2.34,0,0,1,2.84-.7A2.79,2.79,0,0,1,58.32,308.82Z"/><polygon class="cls-18" points="21.39 338.28 21.51 338.1 21.49 338.29 21.39 338.28"/><path class="cls-35" d="M56.25,341.44l-.57,1.16Z"/><path class="cls-35" d="M56.52,344.59l.82-1Z"/><path class="cls-36" d="M85.34,116.06c0,3.46.15,5.87-1,8.09a1,1,0,0,1-.66.52.93.93,0,0,1-.75-.42c-.56-1.82-1.15-3.63-1.56-5.48s-.62-3.76-.91-5.64a17.93,17.93,0,0,0-3.14-8.39,1.73,1.73,0,0,1,.17-2.55,2,2,0,0,1,2.63-.21,8.41,8.41,0,0,1,2.79,3.11,62.21,62.21,0,0,1,2.24,8.24A11.51,11.51,0,0,1,85.34,116.06Z"/><path class="cls-37" d="M78.65,111.78c0,1.59-.65,3-1.51,3.25s-2.25-1.23-2.53-3c-.33-2.09.57-3.67,2-3.55C77.92,108.62,78.64,109.79,78.65,111.78Z"/><path class="cls-38" d="M67.5,227.41c-2.75-.61-4-2.21-3.85-5.12.18-4.79.08-9.58.11-14.37a4.86,4.86,0,0,1,1.46-3.87c2-1.82,2.69-2.05,5-.51q6,4,11.8,8.21c2.11,1.52,2.11,2.12.65,4.76A27.45,27.45,0,0,1,67.5,227.41Z"/><path class="cls-39" d="M59.34,216.57c0,2.55,0,5.11,0,7.66a2.56,2.56,0,0,1-2,2.42,14.18,14.18,0,0,1-7.1.42c-2.28-.34-3.48-2-3.45-4.41.06-3.68.16-7.35.24-11a3.85,3.85,0,0,1,0-.48c.77-7.93,1.8-7.62,9.09-7.33,1.74.07,2.47.88,2.8,2.71a30.74,30.74,0,0,1,.44,4.28c.08,1.91,0,3.83,0,5.75Z"/><path class="cls-40" d="M93.14,216.38c-.45,2.33-.83,4.67-1.4,7a5.35,5.35,0,0,1-1.39,2.43,2.81,2.81,0,0,1-2.09.59c-.42-.05-1-.88-1-1.4a9.57,9.57,0,0,1,.17-3.29,21.83,21.83,0,0,0-2.13-16.14,4.59,4.59,0,0,1-.71-1.75,2.2,2.2,0,0,1,.6-1.65,1.8,1.8,0,0,1,1.68-.17A17,17,0,0,1,90,205.4,22.71,22.71,0,0,1,93.14,216.38Z"/><path class="cls-41" d="M67.5,227.41c3.58-2.48,7.18-4.93,10.74-7.44,1.52-1.08,3-2.3,4.42-3.46,1,1.72,0,3.15-.92,4.36a23.77,23.77,0,0,1-8.42,6.85A5.25,5.25,0,0,1,67.5,227.41Z"/><path class="cls-42" d="M62.18,266a8.42,8.42,0,0,1,.24-1.59c.82-2.8,3.47-5.35,5.46-5.32a7.87,7.87,0,0,1,7.31,5.12,7,7,0,0,1-2.79,7.92c-2,1.33-4,1.81-6.23.51S62,269.76,62.18,266Z"/><path class="cls-43" d="M74.87,288.35c-.3,1.21-.51,2.45-.91,3.63-1.59,4.75-8.49,4.69-10.86,1.21-2-2.93-1-9,2.19-10.54C69.62,280.63,75,283.16,74.87,288.35Z"/><path class="cls-44" d="M77.5,214.5c-2.82,1.93-5.27,3.62-7.74,5.28a1,1,0,0,1-1.42-.67c0-3.15-.06-6.3-.06-9.44a.84.84,0,0,1,1.31-.71C72.14,210.72,74.67,212.51,77.5,214.5Z"/><path class="cls-45" d="M55,215.55c0,1.74,0,3.48,0,5.22,0,1.5-.54,1.87-2.08,1.87-1.13,0-1.8-.49-1.85-1.63-.08-1.57-.11-3.15-.13-4.73,0-1.9-.07-3.79-.06-5.69s.53-2.35,2.61-2.18a1.37,1.37,0,0,1,1.46,1.46c0,1.89,0,3.79,0,5.68Z"/><path class="cls-46" d="M71.89,266.68a3.28,3.28,0,0,1-3,3.59,3.56,3.56,0,0,1-3.41-3.35c0-1.72,1.28-2.75,3.7-2.85A2.51,2.51,0,0,1,71.89,266.68Z"/><path class="cls-47" d="M69.08,292.45c-2.74-.06-4.73-3.15-3.46-5.39,1.11-2,3.16-2.35,4.76-.83a7.68,7.68,0,0,1,1.47,1.85A3.06,3.06,0,0,1,69.08,292.45Z"/></g></g></svg>