<svg xmlns="http://www.w3.org/2000/svg" viewBox="0 0 402 226.22"><defs><style>.cls-1{fill:#fff;}.cls-2{fill:#010000;}.cls-3{fill:#020201;}.cls-4{fill:#010101;}.cls-5{fill:#090909;}.cls-6{fill:#030303;}.cls-7{fill:#f90;}.cls-8{fill:#fefefd;}.cls-9{fill:#fefefe;}.cls-10{fill:#fdfcfb;}.cls-11{fill:#070400;}.cls-12{fill:#080500;}</style></defs><g id="Capa_2" data-name="Capa 2"><g id="medium_box" data-name="medium box"><path class="cls-1" d="M201,226.13q-89,0-178.07.09a23.66,23.66,0,0,1-13.83-4.47,17.55,17.55,0,0,1-6-6.75A27.05,27.05,0,0,1,0,202.64q.15-89.52,0-179A26.19,26.19,0,0,1,2.94,11.66a19.6,19.6,0,0,1,8.2-8.47A24.13,24.13,0,0,1,23.46.08q155,.06,310.07,0c15.36,0,30.72.38,46.07,0,7.61-.2,17.91,6,20.42,13.36A29.33,29.33,0,0,1,402,23.12c0,13.44,0,26.88,0,40.32q0,69.6.05,139.19A26,26,0,0,1,398.93,215a18,18,0,0,1-6,6.76,23.94,23.94,0,0,1-13.85,4.43Q290.07,226,201,226.13Z"/><path class="cls-2" d="M201.14,6.2H378.7a16.51,16.51,0,0,1,7,1.07,15.84,15.84,0,0,1,9.4,10.22,15.67,15.67,0,0,1,.78,4.17c.12,4.31.1,8.63.09,12.95q0,84,0,168a18.27,18.27,0,0,1-1.71,8.33c-3,6.06-7.91,9.14-14.5,9.21-15,.16-30.07.09-45.11.09q-155.24,0-310.48,0A19,19,0,0,1,14.51,218c-5.42-3-7.87-7.78-8.28-13.67-.3-4.3-.12-8.63-.12-12.95q0-83.73,0-167.47a20.48,20.48,0,0,1,2.07-9.22A13.6,13.6,0,0,1,14,8.52a19,19,0,0,1,9.57-2.38Q112.38,6.28,201.14,6.2Z"/><path class="cls-1" d="M201,12.88H380c1.87,0,3.75-.29,5.54.93A9.62,9.62,0,0,1,390,21.39c.14,1.75.06,3.52.06,5.28V199.46c0,1.6.08,3.21-.05,4.8a14.34,14.34,0,0,1-.78,3.72,8.05,8.05,0,0,1-8.07,5.5c-9.76,0-19.52,0-29.28,0H21.15c-4.34,0-7.25-2.13-8.47-6.28a16.79,16.79,0,0,1-.57-4.24c-.07-3.52,0-7,0-10.56q0-79.2,0-158.4c0-3.68-.06-7.36,0-11a14.83,14.83,0,0,1,.5-3.77c1.22-4.26,4-6.32,8.39-6.33q14.64,0,29.28,0Z"/><path class="cls-3" d="M252.38,129.91H148.27c-1.28,0-2.56.07-3.84,0-3.25-.25-4.94-1.92-5.25-5.11-.09-1-.05-1.92-.05-2.88q0-27.11,0-54.21a27.63,27.63,0,0,1,.06-2.88c.35-3.22,2-4.82,5.3-5,4.8-.19,9.59-.33,14.39-.34q64.53-.17,129.06-.27c21.11,0,42.21-.21,63.32-.2a63.79,63.79,0,0,1,10.4,1c2.58.43,4.1,2.05,4.16,4.53,0,1.12,0,2.24,0,3.36v53.25c0,.8,0,1.6,0,2.4.23,5.18-1.87,5.32-5.55,6.2a19.93,19.93,0,0,1-4.31.12H252.38Z"/><path class="cls-4" d="M260.58,23.58H369a41.21,41.21,0,0,1,4.31.1,3.9,3.9,0,0,1,3.47,3.43c.18,1.42.12,2.87.18,4.3.08,2.24.12,4.48.28,6.71a11.74,11.74,0,0,1-1.09,6.06c-.28.6-1.24,1.36-1.76,1.28-3-.5-6,.3-9,.22-13.73-.37-27.46-.57-41.2-.82-2.56,0-5.12,0-7.67,0l-166.93-.1c-1.28,0-2.56,0-3.84,0a2.69,2.69,0,0,1-2.78-2.18,28.78,28.78,0,0,1-.82-5.18c-.09-2.56,0-5.12.16-7.67.17-3.51,2-5.47,5.59-5.85,1.1-.12,2.23-.06,3.35-.07l78.19-.14c10.39,0,20.78,0,31.18,0Z"/><path class="cls-4" d="M120.93,75.28c-.67,25.59-21.23,45.44-46.53,45a45.66,45.66,0,1,1,46.53-44.95Z"/><path class="cls-5" d="M317.13,190h31.6c1.11,0,2.24-.06,3.34.05,2.31.23,3.68,1.44,3.61,3.07s-1.45,2.71-3.78,2.94c-1.11.1-2.23,0-3.35,0H323.18q-19.15,0-38.3,0a25.82,25.82,0,0,1-4.73-.4,2.86,2.86,0,0,1-2.23-2.76,3,3,0,0,1,2.38-2.66,26.54,26.54,0,0,1,4.28-.29q16.28,0,32.55,0Z"/><path class="cls-6" d="M315.57,155.13q-16.51,0-33,0a27.91,27.91,0,0,1-4.29-.23,2.82,2.82,0,0,1-2.34-2.66,2.85,2.85,0,0,1,2.64-2.86,30.44,30.44,0,0,1,3.82-.18q33.75,0,67.49,0a26.5,26.5,0,0,1,3.34.14,2.84,2.84,0,0,1,2.54,2.46,2.93,2.93,0,0,1-2.38,3.13,22,22,0,0,1-3.81.21h-34Z"/><path class="cls-6" d="M315,175.54H282.47a32.28,32.28,0,0,1-4.29-.22,2.72,2.72,0,0,1-2.22-2.72,2.76,2.76,0,0,1,1.79-2.59,5.23,5.23,0,0,1,1.85-.39c.95-.07,1.91,0,2.87,0h65.62a30.36,30.36,0,0,1,3.82.12,2.94,2.94,0,0,1,2.69,2.87,2.81,2.81,0,0,1-2.69,2.81,32.37,32.37,0,0,1-3.82.13H315Z"/><path class="cls-7" d="M359.78,67.14c.88,5.69.62,11.42.63,17.14q0,17.52,0,35a24.27,24.27,0,0,1-.16,3.82,1.77,1.77,0,0,1-1.2,1.15,18.67,18.67,0,0,1-3.35.14q-100.77,0-201.53,0c-1.55,0-3.22.49-4.63-.67a13.75,13.75,0,0,1-1-5.61c-.33-14.37.69-28.76-.68-43.12-.43-4.54,1.54-6.48,6.12-6.72,4.8-.26,9.52.86,14.34.86Q259,69,349.6,69.11C353.13,69.11,356.65,69.16,359.78,67.14Z"/><path class="cls-8" d="M359.78,67.14c-.15,1.09-.3,2.18-.5,3.6-1.35,0-2.6,0-3.85,0l-166.81-.21q-12,0-24-.17c-3.35,0-6.7-.32-10-.47-1.11,0-2.23-.08-3.35,0a1.69,1.69,0,0,0-1.83,1.77c0,1.44,0,2.87,0,4.31q.32,22.76.59,45.52a10.23,10.23,0,0,1-.53,2.27c-1.11,0-2.24,0-3.34-.1a1.39,1.39,0,0,1-.94-.86,7.13,7.13,0,0,1-.1-1.91q0-26.84,0-53.69c0-3,.06-3,2.89-3,4.79,0,9.58.13,14.38.14q61.83.14,123.67.27,32.61.07,65.2.3c2.23,0,4.46.2,6.69.36A1.81,1.81,0,0,1,359.78,67.14Z"/><path class="cls-9" d="M259.76,29.34H366.32c1.12,0,2.24,0,3.36,0,2,.06,2.14.2,2.15,2.27,0,2.24-.09,4.48-.14,6.72,0,1.2-.75,1.64-1.85,1.65-5.12,0-10.35.69-15.34-.11-7.83-1.25-15.64-.82-23.44-.73-59.35.75-118.71.15-178.06.45-5.94,0-5.39.61-5.45-5.36,0-1,0-1.92,0-2.88,0-1.68.33-2,1.84-2.1,1.12-.05,2.24,0,3.36,0h107Z"/><path class="cls-7" d="M91,77.41c6.2-.17,12.38-1.29,18.6-.63,6.44.68,7.07-.55,5.24,6.88-4,16.39-14.41,26.65-30.76,30.62a40.86,40.86,0,0,1-19.44-.34c-3.63-.88-6.95-2.26-9.53-5.08a4,4,0,0,1-1.08-.82l.08.11c-6.75-6.36-9.26-14.77-11.1-23.42-.91-4.32.18-5.47,4.58-5.8A22.55,22.55,0,0,1,52.4,79C65.37,80.79,78.15,78,91,77.41Z"/><path class="cls-1" d="M89.71,37.29c-1.66,3.32-3.28,6.43-4.78,9.59C81.11,55,77.19,63,73.64,71.2c-1,2.26-2.18,2.73-4.32,2.68-4.79-.11-9.59,0-14.39,0-5.59,0-11.19.08-16.78.12-.32,0-.64,0-1,0-1.51-.06-2-.58-1.86-2.06C36.7,57.3,43.71,46.23,56.62,39.26,67.18,33.56,78.26,33.22,89.71,37.29Z"/><path class="cls-1" d="M95.72,73.83c-5.27,0-10.55,0-15.83,0-1.89,0-2.14-.51-1.24-2.35Q85,58.59,91.45,45.72c.78-1.57,1.47-3.19,2.2-4.78.53-1.14,1-1.31,2.22-.57,11.42,7.24,17.88,17.54,19.15,31,.12,1.26-.32,1.79-1.55,1.91s-2.23.16-3.35.17H95.72Z"/><path class="cls-10" d="M91,77.41c-2.32.47-4.62,1-7,1.38C75.7,80,67.32,81.13,58.85,80.94c-3.35-.08-6.68-.38-10-.57-.64,0-1.28,0-1.91,0-2.53,0-3.4,0-2.76,3.26,1.58,8.08,4.17,15.69,9.08,22.4a9.86,9.86,0,0,1,.89,2.13,26.69,26.69,0,0,1-3.24-1.9A39.38,39.38,0,0,1,35.4,77.67a5.72,5.72,0,0,1,1.51-.5q26.34,0,52.68.16C90.07,77.33,90.55,77.38,91,77.41Z"/><path class="cls-10" d="M54.05,108l1.08.82Z"/><path class="cls-11" d="M254.23,93.62H170.32a28,28,0,0,1-4.3-.2,2.3,2.3,0,0,1-2-1.87c-.19-.88.81-2,2.06-2.25a16.94,16.94,0,0,1,2.85-.22C172.33,89,175.69,89,179,89q80.09,0,160.16,0A25.68,25.68,0,0,1,343,89a4.79,4.79,0,0,1,2.05,1.08,1.62,1.62,0,0,1-.06,2.5,4.84,4.84,0,0,1-2.08,1,34.37,34.37,0,0,1-4.31.11q-42.19,0-84.4,0Z"/><path class="cls-11" d="M253.31,112.1H178c-3.36,0-6.72,0-10.07-.1a6.4,6.4,0,0,1-2.78-.5,2.74,2.74,0,0,1-1.15-1.89,1.89,1.89,0,0,1,1.05-1.43,12.41,12.41,0,0,1,3.7-.78c3.19-.13,6.39-.1,9.59-.1l125.66,0q16.55,0,33.09,0c1.58,0,3.28-.34,4.64.71a2.68,2.68,0,0,1,1.08,1.9,3,3,0,0,1-1.34,1.76,3.56,3.56,0,0,1-1.84.37c-1.44.06-2.88,0-4.32,0h-82Z"/><path class="cls-12" d="M196.33,81.94c-9.09,0-18.18,0-27.27,0a17.06,17.06,0,0,1-4.19-.63,2.17,2.17,0,0,1-1.11-1.39c-.25-.88.4-1.51,1.12-1.89a5.21,5.21,0,0,1,1.81-.51,27.5,27.5,0,0,1,2.87-.07l53.11-.15a29.3,29.3,0,0,1,4.3.13,7.28,7.28,0,0,1,2.59,1.06,1.61,1.61,0,0,1,0,2.49,8.06,8.06,0,0,1-2.6,1.06,19.51,19.51,0,0,1-3.34.1q-13.64,0-27.27,0Z"/></g></g></svg>